<?xml version="1.0" encoding="utf-8" standalone="no"?>
<!DOCTYPE svg PUBLIC "-//W3C//DTD SVG 1.1//EN"
  "http://www.w3.org/Graphics/SVG/1.1/DTD/svg11.dtd">
<!-- Created with matplotlib (http://matplotlib.org/) -->
<svg height="504pt" version="1.1" viewBox="0 0 1656 504" width="1656pt" xmlns="http://www.w3.org/2000/svg" xmlns:xlink="http://www.w3.org/1999/xlink">
 <defs>
  <style type="text/css">
*{stroke-linecap:butt;stroke-linejoin:round;}
  </style>
 </defs>
 <g id="figure_1">
  <g id="patch_1">
   <path d="
M0 504
L1656 504
L1656 0
L0 0
z
" style="fill:#ffffff;"/>
  </g>
  <g id="axes_1">
   <g id="patch_2">
    <path d="
M82.8 428.4
L1639.44 428.4
L1639.44 25.2
L82.8 25.2
z
" style="fill:#ffffff;"/>
   </g>
   <g id="patch_3">
    <path clip-path="url(#p882b81455c)" d="
M122.714 428.4
L138.679 428.4
L138.679 183.47
L122.714 183.47
z
" style="fill:#e90027;opacity:0.9;stroke:#000000;stroke-linejoin:miter;"/>
   </g>
   <g id="patch_4">
    <path clip-path="url(#p882b81455c)" d="
M202.542 428.4
L218.507 428.4
L218.507 267.539
L202.542 267.539
z
" style="fill:#e90027;opacity:0.9;stroke:#000000;stroke-linejoin:miter;"/>
   </g>
   <g id="patch_5">
    <path clip-path="url(#p882b81455c)" d="
M282.369 428.4
L298.335 428.4
L298.335 277.836
L282.369 277.836
z
" style="fill:#e90027;opacity:0.9;stroke:#000000;stroke-linejoin:miter;"/>
   </g>
   <g id="patch_6">
    <path clip-path="url(#p882b81455c)" d="
M362.197 428.4
L378.162 428.4
L378.162 284.743
L362.197 284.743
z
" style="fill:#e90027;opacity:0.9;stroke:#000000;stroke-linejoin:miter;"/>
   </g>
   <g id="patch_7">
    <path clip-path="url(#p882b81455c)" d="
M442.025 428.4
L457.99 428.4
L457.99 300.496
L442.025 300.496
z
" style="fill:#e90027;opacity:0.9;stroke:#000000;stroke-linejoin:miter;"/>
   </g>
   <g id="patch_8">
    <path clip-path="url(#p882b81455c)" d="
M521.852 428.4
L537.818 428.4
L537.818 294.434
L521.852 294.434
z
" style="fill:#e90027;opacity:0.9;stroke:#000000;stroke-linejoin:miter;"/>
   </g>
   <g id="patch_9">
    <path clip-path="url(#p882b81455c)" d="
M601.68 428.4
L617.646 428.4
L617.646 347.643
L601.68 347.643
z
" style="fill:#e90027;opacity:0.9;stroke:#000000;stroke-linejoin:miter;"/>
   </g>
   <g id="patch_10">
    <path clip-path="url(#p882b81455c)" d="
M681.508 428.4
L697.473 428.4
L697.473 304.102
L681.508 304.102
z
" style="fill:#e90027;opacity:0.9;stroke:#000000;stroke-linejoin:miter;"/>
   </g>
   <g id="patch_11">
    <path clip-path="url(#p882b81455c)" d="
M761.335 428.4
L777.301 428.4
L777.301 374.587
L761.335 374.587
z
" style="fill:#e90027;opacity:0.9;stroke:#000000;stroke-linejoin:miter;"/>
   </g>
   <g id="patch_12">
    <path clip-path="url(#p882b81455c)" d="
M841.163 428.4
L857.129 428.4
L857.129 316.55
L841.163 316.55
z
" style="fill:#e90027;opacity:0.9;stroke:#000000;stroke-linejoin:miter;"/>
   </g>
   <g id="patch_13">
    <path clip-path="url(#p882b81455c)" d="
M920.991 428.4
L936.956 428.4
L936.956 366.817
L920.991 366.817
z
" style="fill:#e90027;opacity:0.9;stroke:#000000;stroke-linejoin:miter;"/>
   </g>
   <g id="patch_14">
    <path clip-path="url(#p882b81455c)" d="
M1000.82 428.4
L1016.78 428.4
L1016.78 385.597
L1000.82 385.597
z
" style="fill:#e90027;opacity:0.9;stroke:#000000;stroke-linejoin:miter;"/>
   </g>
   <g id="patch_15">
    <path clip-path="url(#p882b81455c)" d="
M1080.65 428.4
L1096.61 428.4
L1096.61 406.125
L1080.65 406.125
z
" style="fill:#e90027;opacity:0.9;stroke:#000000;stroke-linejoin:miter;"/>
   </g>
   <g id="patch_16">
    <path clip-path="url(#p882b81455c)" d="
M1160.47 428.4
L1176.44 428.4
L1176.44 372.433
L1160.47 372.433
z
" style="fill:#e90027;opacity:0.9;stroke:#000000;stroke-linejoin:miter;"/>
   </g>
   <g id="patch_17">
    <path clip-path="url(#p882b81455c)" d="
M1240.3 428.4
L1256.27 428.4
L1256.27 380.488
L1240.3 380.488
z
" style="fill:#e90027;opacity:0.9;stroke:#000000;stroke-linejoin:miter;"/>
   </g>
   <g id="patch_18">
    <path clip-path="url(#p882b81455c)" d="
M1320.13 428.4
L1336.09 428.4
L1336.09 395.123
L1320.13 395.123
z
" style="fill:#e90027;opacity:0.9;stroke:#000000;stroke-linejoin:miter;"/>
   </g>
   <g id="patch_19">
    <path clip-path="url(#p882b81455c)" d="
M1399.96 428.4
L1415.92 428.4
L1415.92 416.171
L1399.96 416.171
z
" style="fill:#e90027;opacity:0.9;stroke:#000000;stroke-linejoin:miter;"/>
   </g>
   <g id="patch_20">
    <path clip-path="url(#p882b81455c)" d="
M1479.78 428.4
L1495.75 428.4
L1495.75 410.925
L1479.78 410.925
z
" style="fill:#e90027;opacity:0.9;stroke:#000000;stroke-linejoin:miter;"/>
   </g>
   <g id="patch_21">
    <path clip-path="url(#p882b81455c)" d="
M1559.61 428.4
L1575.58 428.4
L1575.58 424.91
L1559.61 424.91
z
" style="fill:#e90027;opacity:0.9;stroke:#000000;stroke-linejoin:miter;"/>
   </g>
   <g id="patch_22">
    <path clip-path="url(#p882b81455c)" d="
M138.679 428.4
L154.645 428.4
L154.645 200.699
L138.679 200.699
z
" style="fill:#0068a5;opacity:0.9;stroke:#000000;stroke-linejoin:miter;"/>
   </g>
   <g id="patch_23">
    <path clip-path="url(#p882b81455c)" d="
M218.507 428.4
L234.473 428.4
L234.473 271.338
L218.507 271.338
z
" style="fill:#0068a5;opacity:0.9;stroke:#000000;stroke-linejoin:miter;"/>
   </g>
   <g id="patch_24">
    <path clip-path="url(#p882b81455c)" d="
M298.335 428.4
L314.3 428.4
L314.3 282.726
L298.335 282.726
z
" style="fill:#0068a5;opacity:0.9;stroke:#000000;stroke-linejoin:miter;"/>
   </g>
   <g id="patch_25">
    <path clip-path="url(#p882b81455c)" d="
M378.162 428.4
L394.128 428.4
L394.128 289.101
L378.162 289.101
z
" style="fill:#0068a5;opacity:0.9;stroke:#000000;stroke-linejoin:miter;"/>
   </g>
   <g id="patch_26">
    <path clip-path="url(#p882b81455c)" d="
M457.99 428.4
L473.956 428.4
L473.956 293.814
L457.99 293.814
z
" style="fill:#0068a5;opacity:0.9;stroke:#000000;stroke-linejoin:miter;"/>
   </g>
   <g id="patch_27">
    <path clip-path="url(#p882b81455c)" d="
M537.818 428.4
L553.783 428.4
L553.783 300.413
L537.818 300.413
z
" style="fill:#0068a5;opacity:0.9;stroke:#000000;stroke-linejoin:miter;"/>
   </g>
   <g id="patch_28">
    <path clip-path="url(#p882b81455c)" d="
M617.646 428.4
L633.611 428.4
L633.611 332.095
L617.646 332.095
z
" style="fill:#0068a5;opacity:0.9;stroke:#000000;stroke-linejoin:miter;"/>
   </g>
   <g id="patch_29">
    <path clip-path="url(#p882b81455c)" d="
M697.473 428.4
L713.439 428.4
L713.439 333.446
L697.473 333.446
z
" style="fill:#0068a5;opacity:0.9;stroke:#000000;stroke-linejoin:miter;"/>
   </g>
   <g id="patch_30">
    <path clip-path="url(#p882b81455c)" d="
M777.301 428.4
L793.266 428.4
L793.266 337.603
L777.301 337.603
z
" style="fill:#0068a5;opacity:0.9;stroke:#000000;stroke-linejoin:miter;"/>
   </g>
   <g id="patch_31">
    <path clip-path="url(#p882b81455c)" d="
M857.129 428.4
L873.094 428.4
L873.094 356.264
L857.129 356.264
z
" style="fill:#0068a5;opacity:0.9;stroke:#000000;stroke-linejoin:miter;"/>
   </g>
   <g id="patch_32">
    <path clip-path="url(#p882b81455c)" d="
M936.956 428.4
L952.922 428.4
L952.922 361.98
L936.956 361.98
z
" style="fill:#0068a5;opacity:0.9;stroke:#000000;stroke-linejoin:miter;"/>
   </g>
   <g id="patch_33">
    <path clip-path="url(#p882b81455c)" d="
M1016.78 428.4
L1032.75 428.4
L1032.75 362.46
L1016.78 362.46
z
" style="fill:#0068a5;opacity:0.9;stroke:#000000;stroke-linejoin:miter;"/>
   </g>
   <g id="patch_34">
    <path clip-path="url(#p882b81455c)" d="
M1096.61 428.4
L1112.58 428.4
L1112.58 385.289
L1096.61 385.289
z
" style="fill:#0068a5;opacity:0.9;stroke:#000000;stroke-linejoin:miter;"/>
   </g>
   <g id="patch_35">
    <path clip-path="url(#p882b81455c)" d="
M1176.44 428.4
L1192.4 428.4
L1192.4 391.004
L1176.44 391.004
z
" style="fill:#0068a5;opacity:0.9;stroke:#000000;stroke-linejoin:miter;"/>
   </g>
   <g id="patch_36">
    <path clip-path="url(#p882b81455c)" d="
M1256.27 428.4
L1272.23 428.4
L1272.23 391.908
L1256.27 391.908
z
" style="fill:#0068a5;opacity:0.9;stroke:#000000;stroke-linejoin:miter;"/>
   </g>
   <g id="patch_37">
    <path clip-path="url(#p882b81455c)" d="
M1336.09 428.4
L1352.06 428.4
L1352.06 395.966
L1336.09 395.966
z
" style="fill:#0068a5;opacity:0.9;stroke:#000000;stroke-linejoin:miter;"/>
   </g>
   <g id="patch_38">
    <path clip-path="url(#p882b81455c)" d="
M1415.92 428.4
L1431.89 428.4
L1431.89 414.42
L1415.92 414.42
z
" style="fill:#0068a5;opacity:0.9;stroke:#000000;stroke-linejoin:miter;"/>
   </g>
   <g id="patch_39">
    <path clip-path="url(#p882b81455c)" d="
M1495.75 428.4
L1511.72 428.4
L1511.72 416.776
L1495.75 416.776
z
" style="fill:#0068a5;opacity:0.9;stroke:#000000;stroke-linejoin:miter;"/>
   </g>
   <g id="patch_40">
    <path clip-path="url(#p882b81455c)" d="
M1575.58 428.4
L1591.54 428.4
L1591.54 425.647
L1575.58 425.647
z
" style="fill:#0068a5;opacity:0.9;stroke:#000000;stroke-linejoin:miter;"/>
   </g>
   <g id="patch_41">
    <path clip-path="url(#p882b81455c)" d="
M154.645 428.4
L170.61 428.4
L170.61 147.041
L154.645 147.041
z
" style="fill:#610b0b;opacity:0.9;stroke:#000000;stroke-linejoin:miter;"/>
   </g>
   <g id="patch_42">
    <path clip-path="url(#p882b81455c)" d="
M234.473 428.4
L250.438 428.4
L250.438 239.526
L234.473 239.526
z
" style="fill:#610b0b;opacity:0.9;stroke:#000000;stroke-linejoin:miter;"/>
   </g>
   <g id="patch_43">
    <path clip-path="url(#p882b81455c)" d="
M314.3 428.4
L330.266 428.4
L330.266 250.12
L314.3 250.12
z
" style="fill:#610b0b;opacity:0.9;stroke:#000000;stroke-linejoin:miter;"/>
   </g>
   <g id="patch_44">
    <path clip-path="url(#p882b81455c)" d="
M394.128 428.4
L410.094 428.4
L410.094 257.859
L394.128 257.859
z
" style="fill:#610b0b;opacity:0.9;stroke:#000000;stroke-linejoin:miter;"/>
   </g>
   <g id="patch_45">
    <path clip-path="url(#p882b81455c)" d="
M473.956 428.4
L489.921 428.4
L489.921 282.389
L473.956 282.389
z
" style="fill:#610b0b;opacity:0.9;stroke:#000000;stroke-linejoin:miter;"/>
   </g>
   <g id="patch_46">
    <path clip-path="url(#p882b81455c)" d="
M553.783 428.4
L569.749 428.4
L569.749 277.597
L553.783 277.597
z
" style="fill:#610b0b;opacity:0.9;stroke:#000000;stroke-linejoin:miter;"/>
   </g>
   <g id="patch_47">
    <path clip-path="url(#p882b81455c)" d="
M633.611 428.4
L649.577 428.4
L649.577 350.403
L633.611 350.403
z
" style="fill:#610b0b;opacity:0.9;stroke:#000000;stroke-linejoin:miter;"/>
   </g>
   <g id="patch_48">
    <path clip-path="url(#p882b81455c)" d="
M713.439 428.4
L729.404 428.4
L729.404 300.177
L713.439 300.177
z
" style="fill:#610b0b;opacity:0.9;stroke:#000000;stroke-linejoin:miter;"/>
   </g>
   <g id="patch_49">
    <path clip-path="url(#p882b81455c)" d="
M793.266 428.4
L809.232 428.4
L809.232 370.403
L793.266 370.403
z
" style="fill:#610b0b;opacity:0.9;stroke:#000000;stroke-linejoin:miter;"/>
   </g>
   <g id="patch_50">
    <path clip-path="url(#p882b81455c)" d="
M873.094 428.4
L889.06 428.4
L889.06 346.049
L873.094 346.049
z
" style="fill:#610b0b;opacity:0.9;stroke:#000000;stroke-linejoin:miter;"/>
   </g>
   <g id="patch_51">
    <path clip-path="url(#p882b81455c)" d="
M952.922 428.4
L968.887 428.4
L968.887 376.055
L952.922 376.055
z
" style="fill:#610b0b;opacity:0.9;stroke:#000000;stroke-linejoin:miter;"/>
   </g>
   <g id="patch_52">
    <path clip-path="url(#p882b81455c)" d="
M1032.75 428.4
L1048.72 428.4
L1048.72 363.708
L1032.75 363.708
z
" style="fill:#610b0b;opacity:0.9;stroke:#000000;stroke-linejoin:miter;"/>
   </g>
   <g id="patch_53">
    <path clip-path="url(#p882b81455c)" d="
M1112.58 428.4
L1128.54 428.4
L1128.54 376.19
L1112.58 376.19
z
" style="fill:#610b0b;opacity:0.9;stroke:#000000;stroke-linejoin:miter;"/>
   </g>
   <g id="patch_54">
    <path clip-path="url(#p882b81455c)" d="
M1192.4 428.4
L1208.37 428.4
L1208.37 364.386
L1192.4 364.386
z
" style="fill:#610b0b;opacity:0.9;stroke:#000000;stroke-linejoin:miter;"/>
   </g>
   <g id="patch_55">
    <path clip-path="url(#p882b81455c)" d="
M1272.23 428.4
L1288.2 428.4
L1288.2 405.506
L1272.23 405.506
z
" style="fill:#610b0b;opacity:0.9;stroke:#000000;stroke-linejoin:miter;"/>
   </g>
   <g id="patch_56">
    <path clip-path="url(#p882b81455c)" d="
M1352.06 428.4
L1368.03 428.4
L1368.03 375.89
L1352.06 375.89
z
" style="fill:#610b0b;opacity:0.9;stroke:#000000;stroke-linejoin:miter;"/>
   </g>
   <g id="patch_57">
    <path clip-path="url(#p882b81455c)" d="
M1431.89 428.4
L1447.85 428.4
L1447.85 406.252
L1431.89 406.252
z
" style="fill:#610b0b;opacity:0.9;stroke:#000000;stroke-linejoin:miter;"/>
   </g>
   <g id="patch_58">
    <path clip-path="url(#p882b81455c)" d="
M1511.72 428.4
L1527.68 428.4
L1527.68 410.401
L1511.72 410.401
z
" style="fill:#610b0b;opacity:0.9;stroke:#000000;stroke-linejoin:miter;"/>
   </g>
   <g id="patch_59">
    <path clip-path="url(#p882b81455c)" d="
M1591.54 428.4
L1607.51 428.4
L1607.51 427.888
L1591.54 427.888
z
" style="fill:#610b0b;opacity:0.9;stroke:#000000;stroke-linejoin:miter;"/>
   </g>
   <g id="LineCollection_1">
    <path clip-path="url(#p882b81455c)" d="
M130.697 311.106
L130.697 55.8332" style="fill:none;stroke:#000000;"/>
    <path clip-path="url(#p882b81455c)" d="
M210.524 331.464
L210.524 203.615" style="fill:none;stroke:#000000;"/>
    <path clip-path="url(#p882b81455c)" d="
M290.352 337.106
L290.352 218.567" style="fill:none;stroke:#000000;"/>
    <path clip-path="url(#p882b81455c)" d="
M370.18 339.822
L370.18 229.663" style="fill:none;stroke:#000000;"/>
    <path clip-path="url(#p882b81455c)" d="
M450.007 354.518
L450.007 246.474" style="fill:none;stroke:#000000;"/>
    <path clip-path="url(#p882b81455c)" d="
M529.835 355.209
L529.835 233.659" style="fill:none;stroke:#000000;"/>
    <path clip-path="url(#p882b81455c)" d="
M609.663 375.82
L609.663 319.466" style="fill:none;stroke:#000000;"/>
    <path clip-path="url(#p882b81455c)" d="
M689.49 353.338
L689.49 254.866" style="fill:none;stroke:#000000;"/>
    <path clip-path="url(#p882b81455c)" d="
M769.318 403.294
L769.318 345.88" style="fill:none;stroke:#000000;"/>
    <path clip-path="url(#p882b81455c)" d="
M849.146 357.721
L849.146 275.379" style="fill:none;stroke:#000000;"/>
    <path clip-path="url(#p882b81455c)" d="
M928.974 400.03
L928.974 333.604" style="fill:none;stroke:#000000;"/>
    <path clip-path="url(#p882b81455c)" d="
M1008.8 404.775
L1008.8 366.419" style="fill:none;stroke:#000000;"/>
    <path clip-path="url(#p882b81455c)" d="
M1088.63 419.921
L1088.63 392.328" style="fill:none;stroke:#000000;"/>
    <path clip-path="url(#p882b81455c)" d="
M1168.46 406.734
L1168.46 338.132" style="fill:none;stroke:#000000;"/>
    <path clip-path="url(#p882b81455c)" d="
M1248.28 404.109
L1248.28 356.867" style="fill:none;stroke:#000000;"/>
    <path clip-path="url(#p882b81455c)" d="
M1328.11 417.412
L1328.11 372.834" style="fill:none;stroke:#000000;"/>
    <path clip-path="url(#p882b81455c)" d="
M1407.94 427.597
L1407.94 404.745" style="fill:none;stroke:#000000;"/>
    <path clip-path="url(#p882b81455c)" d="
M1487.77 422.527
L1487.77 399.323" style="fill:none;stroke:#000000;"/>
    <path clip-path="url(#p882b81455c)" d="
M1567.6 428.371
L1567.6 421.449" style="fill:none;stroke:#000000;"/>
   </g>
   <g id="LineCollection_2">
    <path clip-path="url(#p882b81455c)" d="
M146.662 268.329
L146.662 133.068" style="fill:none;stroke:#000000;"/>
    <path clip-path="url(#p882b81455c)" d="
M226.49 315.751
L226.49 226.925" style="fill:none;stroke:#000000;"/>
    <path clip-path="url(#p882b81455c)" d="
M306.318 321.278
L306.318 244.175" style="fill:none;stroke:#000000;"/>
    <path clip-path="url(#p882b81455c)" d="
M386.145 329.907
L386.145 248.296" style="fill:none;stroke:#000000;"/>
    <path clip-path="url(#p882b81455c)" d="
M465.973 327.63
L465.973 259.998" style="fill:none;stroke:#000000;"/>
    <path clip-path="url(#p882b81455c)" d="
M545.801 340.075
L545.801 260.75" style="fill:none;stroke:#000000;"/>
    <path clip-path="url(#p882b81455c)" d="
M625.628 365.392
L625.628 298.798" style="fill:none;stroke:#000000;"/>
    <path clip-path="url(#p882b81455c)" d="
M705.456 367.744
L705.456 299.147" style="fill:none;stroke:#000000;"/>
    <path clip-path="url(#p882b81455c)" d="
M785.284 370.389
L785.284 304.816" style="fill:none;stroke:#000000;"/>
    <path clip-path="url(#p882b81455c)" d="
M865.111 378.848
L865.111 333.68" style="fill:none;stroke:#000000;"/>
    <path clip-path="url(#p882b81455c)" d="
M944.939 397.808
L944.939 326.153" style="fill:none;stroke:#000000;"/>
    <path clip-path="url(#p882b81455c)" d="
M1024.77 379.728
L1024.77 345.192" style="fill:none;stroke:#000000;"/>
    <path clip-path="url(#p882b81455c)" d="
M1104.59 398.112
L1104.59 372.466" style="fill:none;stroke:#000000;"/>
    <path clip-path="url(#p882b81455c)" d="
M1184.42 420.141
L1184.42 361.868" style="fill:none;stroke:#000000;"/>
    <path clip-path="url(#p882b81455c)" d="
M1264.25 420.199
L1264.25 363.618" style="fill:none;stroke:#000000;"/>
    <path clip-path="url(#p882b81455c)" d="
M1344.08 410.181
L1344.08 381.751" style="fill:none;stroke:#000000;"/>
    <path clip-path="url(#p882b81455c)" d="
M1423.91 422.685
L1423.91 406.156" style="fill:none;stroke:#000000;"/>
    <path clip-path="url(#p882b81455c)" d="
M1503.73 423.677
L1503.73 409.876" style="fill:none;stroke:#000000;"/>
    <path clip-path="url(#p882b81455c)" d="
M1583.56 428.712
L1583.56 422.581" style="fill:none;stroke:#000000;"/>
   </g>
   <g id="LineCollection_3">
    <path clip-path="url(#p882b81455c)" d="
M162.628 246.98
L162.628 47.1023" style="fill:none;stroke:#000000;"/>
    <path clip-path="url(#p882b81455c)" d="
M242.455 297.362
L242.455 181.69" style="fill:none;stroke:#000000;"/>
    <path clip-path="url(#p882b81455c)" d="
M322.283 294.167
L322.283 206.073" style="fill:none;stroke:#000000;"/>
    <path clip-path="url(#p882b81455c)" d="
M402.111 299.258
L402.111 216.461" style="fill:none;stroke:#000000;"/>
    <path clip-path="url(#p882b81455c)" d="
M481.938 331.811
L481.938 232.967" style="fill:none;stroke:#000000;"/>
    <path clip-path="url(#p882b81455c)" d="
M561.766 337.786
L561.766 217.408" style="fill:none;stroke:#000000;"/>
    <path clip-path="url(#p882b81455c)" d="
M641.594 383.594
L641.594 317.211" style="fill:none;stroke:#000000;"/>
    <path clip-path="url(#p882b81455c)" d="
M721.422 350.166
L721.422 250.188" style="fill:none;stroke:#000000;"/>
    <path clip-path="url(#p882b81455c)" d="
M801.249 396.894
L801.249 343.912" style="fill:none;stroke:#000000;"/>
    <path clip-path="url(#p882b81455c)" d="
M881.077 389.215
L881.077 302.883" style="fill:none;stroke:#000000;"/>
    <path clip-path="url(#p882b81455c)" d="
M960.905 411.325
L960.905 340.785" style="fill:none;stroke:#000000;"/>
    <path clip-path="url(#p882b81455c)" d="
M1040.73 385.064
L1040.73 342.352" style="fill:none;stroke:#000000;"/>
    <path clip-path="url(#p882b81455c)" d="
M1120.56 385.353
L1120.56 367.028" style="fill:none;stroke:#000000;"/>
    <path clip-path="url(#p882b81455c)" d="
M1200.39 407.94
L1200.39 320.832" style="fill:none;stroke:#000000;"/>
    <path clip-path="url(#p882b81455c)" d="
M1280.22 425.748
L1280.22 385.264" style="fill:none;stroke:#000000;"/>
    <path clip-path="url(#p882b81455c)" d="
M1360.04 403.944
L1360.04 347.836" style="fill:none;stroke:#000000;"/>
    <path clip-path="url(#p882b81455c)" d="
M1439.87 419.598
L1439.87 392.907" style="fill:none;stroke:#000000;"/>
    <path clip-path="url(#p882b81455c)" d="
M1519.7 428.164
L1519.7 392.638" style="fill:none;stroke:#000000;"/>
    <path clip-path="url(#p882b81455c)" d="
M1599.53 430.258
L1599.53 425.519" style="fill:none;stroke:#000000;"/>
   </g>
   <g id="line2d_1">
    <defs>
     <path d="
M3 1.83697e-16
L-3 -1.83697e-16" id="m81edfc9aba" style="stroke:#000000;stroke-width:0.5;"/>
    </defs>
    <g clip-path="url(#p882b81455c)">
     <use style="stroke:#000000;stroke-width:0.5;" x="130.696615385" xlink:href="#m81edfc9aba" y="311.106087061"/>
     <use style="stroke:#000000;stroke-width:0.5;" x="210.524307692" xlink:href="#m81edfc9aba" y="331.464342851"/>
     <use style="stroke:#000000;stroke-width:0.5;" x="290.352" xlink:href="#m81edfc9aba" y="337.105779215"/>
     <use style="stroke:#000000;stroke-width:0.5;" x="370.179692308" xlink:href="#m81edfc9aba" y="339.822306212"/>
     <use style="stroke:#000000;stroke-width:0.5;" x="450.007384615" xlink:href="#m81edfc9aba" y="354.517784083"/>
     <use style="stroke:#000000;stroke-width:0.5;" x="529.835076923" xlink:href="#m81edfc9aba" y="355.208765325"/>
     <use style="stroke:#000000;stroke-width:0.5;" x="609.662769231" xlink:href="#m81edfc9aba" y="375.819607948"/>
     <use style="stroke:#000000;stroke-width:0.5;" x="689.490461538" xlink:href="#m81edfc9aba" y="353.337995803"/>
     <use style="stroke:#000000;stroke-width:0.5;" x="769.318153846" xlink:href="#m81edfc9aba" y="403.294090908"/>
     <use style="stroke:#000000;stroke-width:0.5;" x="849.145846154" xlink:href="#m81edfc9aba" y="357.721095621"/>
     <use style="stroke:#000000;stroke-width:0.5;" x="928.973538462" xlink:href="#m81edfc9aba" y="400.030317016"/>
     <use style="stroke:#000000;stroke-width:0.5;" x="1008.80123077" xlink:href="#m81edfc9aba" y="404.775122516"/>
     <use style="stroke:#000000;stroke-width:0.5;" x="1088.62892308" xlink:href="#m81edfc9aba" y="419.921050174"/>
     <use style="stroke:#000000;stroke-width:0.5;" x="1168.45661538" xlink:href="#m81edfc9aba" y="406.733580235"/>
     <use style="stroke:#000000;stroke-width:0.5;" x="1248.28430769" xlink:href="#m81edfc9aba" y="404.108706758"/>
     <use style="stroke:#000000;stroke-width:0.5;" x="1328.112" xlink:href="#m81edfc9aba" y="417.411503833"/>
     <use style="stroke:#000000;stroke-width:0.5;" x="1407.93969231" xlink:href="#m81edfc9aba" y="427.597300177"/>
     <use style="stroke:#000000;stroke-width:0.5;" x="1487.76738462" xlink:href="#m81edfc9aba" y="422.526762763"/>
     <use style="stroke:#000000;stroke-width:0.5;" x="1567.59507692" xlink:href="#m81edfc9aba" y="428.370623149"/>
    </g>
   </g>
   <g id="line2d_2">
    <g clip-path="url(#p882b81455c)">
     <use style="stroke:#000000;stroke-width:0.5;" x="130.696615385" xlink:href="#m81edfc9aba" y="55.8332003"/>
     <use style="stroke:#000000;stroke-width:0.5;" x="210.524307692" xlink:href="#m81edfc9aba" y="203.614524994"/>
     <use style="stroke:#000000;stroke-width:0.5;" x="290.352" xlink:href="#m81edfc9aba" y="218.56706009"/>
     <use style="stroke:#000000;stroke-width:0.5;" x="370.179692308" xlink:href="#m81edfc9aba" y="229.663100897"/>
     <use style="stroke:#000000;stroke-width:0.5;" x="450.007384615" xlink:href="#m81edfc9aba" y="246.474044592"/>
     <use style="stroke:#000000;stroke-width:0.5;" x="529.835076923" xlink:href="#m81edfc9aba" y="233.6590813"/>
     <use style="stroke:#000000;stroke-width:0.5;" x="609.662769231" xlink:href="#m81edfc9aba" y="319.465535896"/>
     <use style="stroke:#000000;stroke-width:0.5;" x="689.490461538" xlink:href="#m81edfc9aba" y="254.865766762"/>
     <use style="stroke:#000000;stroke-width:0.5;" x="769.318153846" xlink:href="#m81edfc9aba" y="345.88010709"/>
     <use style="stroke:#000000;stroke-width:0.5;" x="849.145846154" xlink:href="#m81edfc9aba" y="275.379020879"/>
     <use style="stroke:#000000;stroke-width:0.5;" x="928.973538462" xlink:href="#m81edfc9aba" y="333.603602364"/>
     <use style="stroke:#000000;stroke-width:0.5;" x="1008.80123077" xlink:href="#m81edfc9aba" y="366.418882572"/>
     <use style="stroke:#000000;stroke-width:0.5;" x="1088.62892308" xlink:href="#m81edfc9aba" y="392.328384039"/>
     <use style="stroke:#000000;stroke-width:0.5;" x="1168.45661538" xlink:href="#m81edfc9aba" y="338.132272742"/>
     <use style="stroke:#000000;stroke-width:0.5;" x="1248.28430769" xlink:href="#m81edfc9aba" y="356.867440954"/>
     <use style="stroke:#000000;stroke-width:0.5;" x="1328.112" xlink:href="#m81edfc9aba" y="372.834223473"/>
     <use style="stroke:#000000;stroke-width:0.5;" x="1407.93969231" xlink:href="#m81edfc9aba" y="404.745118746"/>
     <use style="stroke:#000000;stroke-width:0.5;" x="1487.76738462" xlink:href="#m81edfc9aba" y="399.323053949"/>
     <use style="stroke:#000000;stroke-width:0.5;" x="1567.59507692" xlink:href="#m81edfc9aba" y="421.448958789"/>
    </g>
   </g>
   <g id="line2d_3">
    <g clip-path="url(#p882b81455c)">
     <use style="stroke:#000000;stroke-width:0.5;" x="146.662153846" xlink:href="#m81edfc9aba" y="268.329257877"/>
     <use style="stroke:#000000;stroke-width:0.5;" x="226.489846154" xlink:href="#m81edfc9aba" y="315.751156297"/>
     <use style="stroke:#000000;stroke-width:0.5;" x="306.317538462" xlink:href="#m81edfc9aba" y="321.277692724"/>
     <use style="stroke:#000000;stroke-width:0.5;" x="386.145230769" xlink:href="#m81edfc9aba" y="329.907020295"/>
     <use style="stroke:#000000;stroke-width:0.5;" x="465.972923077" xlink:href="#m81edfc9aba" y="327.630218275"/>
     <use style="stroke:#000000;stroke-width:0.5;" x="545.800615385" xlink:href="#m81edfc9aba" y="340.075307315"/>
     <use style="stroke:#000000;stroke-width:0.5;" x="625.628307692" xlink:href="#m81edfc9aba" y="365.392202901"/>
     <use style="stroke:#000000;stroke-width:0.5;" x="705.456" xlink:href="#m81edfc9aba" y="367.74416635"/>
     <use style="stroke:#000000;stroke-width:0.5;" x="785.283692308" xlink:href="#m81edfc9aba" y="370.388723019"/>
     <use style="stroke:#000000;stroke-width:0.5;" x="865.111384615" xlink:href="#m81edfc9aba" y="378.847783979"/>
     <use style="stroke:#000000;stroke-width:0.5;" x="944.939076923" xlink:href="#m81edfc9aba" y="397.808221708"/>
     <use style="stroke:#000000;stroke-width:0.5;" x="1024.76676923" xlink:href="#m81edfc9aba" y="379.727937437"/>
     <use style="stroke:#000000;stroke-width:0.5;" x="1104.59446154" xlink:href="#m81edfc9aba" y="398.111796452"/>
     <use style="stroke:#000000;stroke-width:0.5;" x="1184.42215385" xlink:href="#m81edfc9aba" y="420.140860247"/>
     <use style="stroke:#000000;stroke-width:0.5;" x="1264.24984615" xlink:href="#m81edfc9aba" y="420.199264673"/>
     <use style="stroke:#000000;stroke-width:0.5;" x="1344.07753846" xlink:href="#m81edfc9aba" y="410.181167811"/>
     <use style="stroke:#000000;stroke-width:0.5;" x="1423.90523077" xlink:href="#m81edfc9aba" y="422.684733485"/>
     <use style="stroke:#000000;stroke-width:0.5;" x="1503.73292308" xlink:href="#m81edfc9aba" y="423.677148863"/>
     <use style="stroke:#000000;stroke-width:0.5;" x="1583.56061538" xlink:href="#m81edfc9aba" y="428.711921712"/>
    </g>
   </g>
   <g id="line2d_4">
    <g clip-path="url(#p882b81455c)">
     <use style="stroke:#000000;stroke-width:0.5;" x="146.662153846" xlink:href="#m81edfc9aba" y="133.067747021"/>
     <use style="stroke:#000000;stroke-width:0.5;" x="226.489846154" xlink:href="#m81edfc9aba" y="226.925082726"/>
     <use style="stroke:#000000;stroke-width:0.5;" x="306.317538462" xlink:href="#m81edfc9aba" y="244.174696099"/>
     <use style="stroke:#000000;stroke-width:0.5;" x="386.145230769" xlink:href="#m81edfc9aba" y="248.295548438"/>
     <use style="stroke:#000000;stroke-width:0.5;" x="465.972923077" xlink:href="#m81edfc9aba" y="259.997510753"/>
     <use style="stroke:#000000;stroke-width:0.5;" x="545.800615385" xlink:href="#m81edfc9aba" y="260.749955826"/>
     <use style="stroke:#000000;stroke-width:0.5;" x="625.628307692" xlink:href="#m81edfc9aba" y="298.798454516"/>
     <use style="stroke:#000000;stroke-width:0.5;" x="705.456" xlink:href="#m81edfc9aba" y="299.147006932"/>
     <use style="stroke:#000000;stroke-width:0.5;" x="785.283692308" xlink:href="#m81edfc9aba" y="304.816358752"/>
     <use style="stroke:#000000;stroke-width:0.5;" x="865.111384615" xlink:href="#m81edfc9aba" y="333.680233163"/>
     <use style="stroke:#000000;stroke-width:0.5;" x="944.939076923" xlink:href="#m81edfc9aba" y="326.152760162"/>
     <use style="stroke:#000000;stroke-width:0.5;" x="1024.76676923" xlink:href="#m81edfc9aba" y="345.192257727"/>
     <use style="stroke:#000000;stroke-width:0.5;" x="1104.59446154" xlink:href="#m81edfc9aba" y="372.465931345"/>
     <use style="stroke:#000000;stroke-width:0.5;" x="1184.42215385" xlink:href="#m81edfc9aba" y="361.868059403"/>
     <use style="stroke:#000000;stroke-width:0.5;" x="1264.24984615" xlink:href="#m81edfc9aba" y="363.617645725"/>
     <use style="stroke:#000000;stroke-width:0.5;" x="1344.07753846" xlink:href="#m81edfc9aba" y="381.751002926"/>
     <use style="stroke:#000000;stroke-width:0.5;" x="1423.90523077" xlink:href="#m81edfc9aba" y="406.1562598"/>
     <use style="stroke:#000000;stroke-width:0.5;" x="1503.73292308" xlink:href="#m81edfc9aba" y="409.875530439"/>
     <use style="stroke:#000000;stroke-width:0.5;" x="1583.56061538" xlink:href="#m81edfc9aba" y="422.581174255"/>
    </g>
   </g>
   <g id="line2d_5">
    <g clip-path="url(#p882b81455c)">
     <use style="stroke:#000000;stroke-width:0.5;" x="162.627692308" xlink:href="#m81edfc9aba" y="246.980138311"/>
     <use style="stroke:#000000;stroke-width:0.5;" x="242.455384615" xlink:href="#m81edfc9aba" y="297.361826996"/>
     <use style="stroke:#000000;stroke-width:0.5;" x="322.283076923" xlink:href="#m81edfc9aba" y="294.167138491"/>
     <use style="stroke:#000000;stroke-width:0.5;" x="402.110769231" xlink:href="#m81edfc9aba" y="299.257831456"/>
     <use style="stroke:#000000;stroke-width:0.5;" x="481.938461538" xlink:href="#m81edfc9aba" y="331.811230726"/>
     <use style="stroke:#000000;stroke-width:0.5;" x="561.766153846" xlink:href="#m81edfc9aba" y="337.78567509"/>
     <use style="stroke:#000000;stroke-width:0.5;" x="641.593846154" xlink:href="#m81edfc9aba" y="383.593781242"/>
     <use style="stroke:#000000;stroke-width:0.5;" x="721.421538462" xlink:href="#m81edfc9aba" y="350.165630302"/>
     <use style="stroke:#000000;stroke-width:0.5;" x="801.249230769" xlink:href="#m81edfc9aba" y="396.894243586"/>
     <use style="stroke:#000000;stroke-width:0.5;" x="881.076923077" xlink:href="#m81edfc9aba" y="389.215148745"/>
     <use style="stroke:#000000;stroke-width:0.5;" x="960.904615385" xlink:href="#m81edfc9aba" y="411.324772649"/>
     <use style="stroke:#000000;stroke-width:0.5;" x="1040.73230769" xlink:href="#m81edfc9aba" y="385.064263706"/>
     <use style="stroke:#000000;stroke-width:0.5;" x="1120.56" xlink:href="#m81edfc9aba" y="385.352690452"/>
     <use style="stroke:#000000;stroke-width:0.5;" x="1200.38769231" xlink:href="#m81edfc9aba" y="407.940464786"/>
     <use style="stroke:#000000;stroke-width:0.5;" x="1280.21538462" xlink:href="#m81edfc9aba" y="425.74753932"/>
     <use style="stroke:#000000;stroke-width:0.5;" x="1360.04307692" xlink:href="#m81edfc9aba" y="403.944325166"/>
     <use style="stroke:#000000;stroke-width:0.5;" x="1439.87076923" xlink:href="#m81edfc9aba" y="419.598402332"/>
     <use style="stroke:#000000;stroke-width:0.5;" x="1519.69846154" xlink:href="#m81edfc9aba" y="428.164297771"/>
     <use style="stroke:#000000;stroke-width:0.5;" x="1599.52615385" xlink:href="#m81edfc9aba" y="430.257679601"/>
    </g>
   </g>
   <g id="line2d_6">
    <g clip-path="url(#p882b81455c)">
     <use style="stroke:#000000;stroke-width:0.5;" x="162.627692308" xlink:href="#m81edfc9aba" y="47.1022825001"/>
     <use style="stroke:#000000;stroke-width:0.5;" x="242.455384615" xlink:href="#m81edfc9aba" y="181.689502082"/>
     <use style="stroke:#000000;stroke-width:0.5;" x="322.283076923" xlink:href="#m81edfc9aba" y="206.073158116"/>
     <use style="stroke:#000000;stroke-width:0.5;" x="402.110769231" xlink:href="#m81edfc9aba" y="216.460959736"/>
     <use style="stroke:#000000;stroke-width:0.5;" x="481.938461538" xlink:href="#m81edfc9aba" y="232.967090555"/>
     <use style="stroke:#000000;stroke-width:0.5;" x="561.766153846" xlink:href="#m81edfc9aba" y="217.407727919"/>
     <use style="stroke:#000000;stroke-width:0.5;" x="641.593846154" xlink:href="#m81edfc9aba" y="317.211316196"/>
     <use style="stroke:#000000;stroke-width:0.5;" x="721.421538462" xlink:href="#m81edfc9aba" y="250.188325597"/>
     <use style="stroke:#000000;stroke-width:0.5;" x="801.249230769" xlink:href="#m81edfc9aba" y="343.912391071"/>
     <use style="stroke:#000000;stroke-width:0.5;" x="881.076923077" xlink:href="#m81edfc9aba" y="302.882572564"/>
     <use style="stroke:#000000;stroke-width:0.5;" x="960.904615385" xlink:href="#m81edfc9aba" y="340.785286656"/>
     <use style="stroke:#000000;stroke-width:0.5;" x="1040.73230769" xlink:href="#m81edfc9aba" y="342.352433405"/>
     <use style="stroke:#000000;stroke-width:0.5;" x="1120.56" xlink:href="#m81edfc9aba" y="367.028039946"/>
     <use style="stroke:#000000;stroke-width:0.5;" x="1200.38769231" xlink:href="#m81edfc9aba" y="320.831585413"/>
     <use style="stroke:#000000;stroke-width:0.5;" x="1280.21538462" xlink:href="#m81edfc9aba" y="385.26393941"/>
     <use style="stroke:#000000;stroke-width:0.5;" x="1360.04307692" xlink:href="#m81edfc9aba" y="347.836011425"/>
     <use style="stroke:#000000;stroke-width:0.5;" x="1439.87076923" xlink:href="#m81edfc9aba" y="392.906554848"/>
     <use style="stroke:#000000;stroke-width:0.5;" x="1519.69846154" xlink:href="#m81edfc9aba" y="392.638023098"/>
     <use style="stroke:#000000;stroke-width:0.5;" x="1599.52615385" xlink:href="#m81edfc9aba" y="425.518849764"/>
    </g>
   </g>
   <g id="patch_60">
    <path d="
M82.8 25.2
L1639.44 25.2" style="fill:none;stroke:#000000;stroke-linecap:square;stroke-linejoin:miter;"/>
   </g>
   <g id="patch_61">
    <path d="
M1639.44 428.4
L1639.44 25.2" style="fill:none;stroke:#000000;stroke-linecap:square;stroke-linejoin:miter;"/>
   </g>
   <g id="patch_62">
    <path d="
M82.8 428.4
L1639.44 428.4" style="fill:none;stroke:#000000;stroke-linecap:square;stroke-linejoin:miter;"/>
   </g>
   <g id="patch_63">
    <path d="
M82.8 428.4
L82.8 25.2" style="fill:none;stroke:#000000;stroke-linecap:square;stroke-linejoin:miter;"/>
   </g>
   <g id="matplotlib.axis_1">
    <g id="xtick_1">
     <g id="line2d_7">
      <defs>
       <path d="
M0 0
L0 -4" id="m93b0483c22" style="stroke:#000000;stroke-width:0.5;"/>
      </defs>
      <g>
       <use style="stroke:#000000;stroke-width:0.5;" x="158.636307692" xlink:href="#m93b0483c22" y="428.4"/>
      </g>
     </g>
     <g id="line2d_8">
      <defs>
       <path d="
M0 0
L0 4" id="m741efc42ff" style="stroke:#000000;stroke-width:0.5;"/>
      </defs>
      <g>
       <use style="stroke:#000000;stroke-width:0.5;" x="158.636307692" xlink:href="#m741efc42ff" y="25.2"/>
      </g>
     </g>
     <g id="text_1">
      <!-- Max A -->
      <defs>
       <path d="
M22.2188 27.9844
L2.48438 54.6875
L21 54.6875
L32.1719 38.4844
L43.5 54.6875
L62.0156 54.6875
L42.2812 28.0781
L62.9844 0
L44.4844 0
L32.1719 17.2812
L20.0156 0
L1.51562 0
z
" id="BitstreamVeraSans-Bold-78"/>
       <path d="
M32.9062 24.6094
Q27.4375 24.6094 24.6719 22.75
Q21.9219 20.9062 21.9219 17.2812
Q21.9219 13.9688 24.1406 12.0781
Q26.375 10.2031 30.3281 10.2031
Q35.25 10.2031 38.625 13.7344
Q42 17.2812 42 22.6094
L42 24.6094
z

M59.625 31.2031
L59.625 0
L42 0
L42 8.10938
Q38.4844 3.125 34.0781 0.84375
Q29.6875 -1.42188 23.3906 -1.42188
Q14.8906 -1.42188 9.59375 3.53125
Q4.29688 8.5 4.29688 16.4062
Q4.29688 26.0312 10.9062 30.5156
Q17.5312 35.0156 31.6875 35.0156
L42 35.0156
L42 36.375
Q42 40.5312 38.7188 42.4531
Q35.4531 44.3906 28.5156 44.3906
Q22.9062 44.3906 18.0625 43.2656
Q13.2344 42.1406 9.07812 39.8906
L9.07812 53.2188
Q14.7031 54.5938 20.3594 55.2969
Q26.0312 56 31.6875 56
Q46.4844 56 53.0469 50.1719
Q59.625 44.3438 59.625 31.2031" id="BitstreamVeraSans-Bold-61"/>
       <path d="
M9.1875 72.9062
L33.1094 72.9062
L49.7031 33.8906
L66.4062 72.9062
L90.2812 72.9062
L90.2812 0
L72.5156 0
L72.5156 53.3281
L55.7188 14.0156
L43.7969 14.0156
L27 53.3281
L27 0
L9.1875 0
z
" id="BitstreamVeraSans-Bold-4d"/>
       <path id="BitstreamVeraSans-Bold-20"/>
       <path d="
M53.4219 13.2812
L24.0312 13.2812
L19.3906 0
L0.484375 0
L27.4844 72.9062
L49.9062 72.9062
L76.9062 0
L58.0156 0
z

M28.7188 26.8125
L48.6875 26.8125
L38.7188 55.8125
z
" id="BitstreamVeraSans-Bold-41"/>
      </defs>
      <g transform="translate(161.947557692 473.58625)rotate(-90.0)scale(0.12 -0.12)">
       <use xlink:href="#BitstreamVeraSans-Bold-4d"/>
       <use x="99.51171875" xlink:href="#BitstreamVeraSans-Bold-61"/>
       <use x="166.9921875" xlink:href="#BitstreamVeraSans-Bold-78"/>
       <use x="231.494140625" xlink:href="#BitstreamVeraSans-Bold-20"/>
       <use x="266.30859375" xlink:href="#BitstreamVeraSans-Bold-41"/>
      </g>
     </g>
    </g>
    <g id="xtick_2">
     <g id="line2d_9">
      <g>
       <use style="stroke:#000000;stroke-width:0.5;" x="238.464" xlink:href="#m93b0483c22" y="428.4"/>
      </g>
     </g>
     <g id="line2d_10">
      <g>
       <use style="stroke:#000000;stroke-width:0.5;" x="238.464" xlink:href="#m741efc42ff" y="25.2"/>
      </g>
     </g>
     <g id="text_2">
      <!-- Mean S -->
      <defs>
       <path d="
M63.375 33.2969
L63.375 0
L45.7969 0
L45.7969 5.42188
L45.7969 25.4844
Q45.7969 32.5625 45.4844 35.25
Q45.1719 37.9375 44.3906 39.2031
Q43.3594 40.9219 41.5938 41.875
Q39.8438 42.8281 37.5938 42.8281
Q32.125 42.8281 29 38.5938
Q25.875 34.375 25.875 26.9062
L25.875 0
L8.40625 0
L8.40625 54.6875
L25.875 54.6875
L25.875 46.6875
Q29.8281 51.4688 34.2656 53.7344
Q38.7188 56 44.0938 56
Q53.5625 56 58.4688 50.1875
Q63.375 44.3906 63.375 33.2969" id="BitstreamVeraSans-Bold-6e"/>
       <path d="
M59.9062 70.6094
L59.9062 55.1719
Q53.9062 57.8594 48.1875 59.2188
Q42.4844 60.5938 37.4062 60.5938
Q30.6719 60.5938 27.4375 58.7344
Q24.2188 56.8906 24.2188 52.9844
Q24.2188 50.0469 26.3906 48.4062
Q28.5625 46.7812 34.2812 45.6094
L42.2812 44
Q54.4375 41.5469 59.5625 36.5625
Q64.7031 31.5938 64.7031 22.4062
Q64.7031 10.3594 57.5469 4.46875
Q50.3906 -1.42188 35.6875 -1.42188
Q28.7656 -1.42188 21.7812 -0.09375
Q14.7969 1.21875 7.8125 3.8125
L7.8125 19.6719
Q14.7969 15.9688 21.3125 14.0781
Q27.8281 12.2031 33.8906 12.2031
Q40.0469 12.2031 43.3125 14.25
Q46.5781 16.3125 46.5781 20.125
Q46.5781 23.5312 44.3594 25.3906
Q42.1406 27.25 35.5 28.7188
L28.2188 30.3281
Q17.2812 32.6719 12.2188 37.7969
Q7.17188 42.9219 7.17188 51.6094
Q7.17188 62.5 14.2031 68.3594
Q21.2344 74.2188 34.4219 74.2188
Q40.4375 74.2188 46.7812 73.3125
Q53.125 72.4062 59.9062 70.6094" id="BitstreamVeraSans-Bold-53"/>
       <path d="
M62.9844 27.4844
L62.9844 22.5156
L22.125 22.5156
Q22.75 16.3594 26.5625 13.2812
Q30.375 10.2031 37.2031 10.2031
Q42.7188 10.2031 48.5 11.8438
Q54.2969 13.4844 60.4062 16.7969
L60.4062 3.32812
Q54.2031 0.984375 48 -0.21875
Q41.7969 -1.42188 35.5938 -1.42188
Q20.75 -1.42188 12.5156 6.125
Q4.29688 13.6719 4.29688 27.2969
Q4.29688 40.6719 12.375 48.3281
Q20.4531 56 34.625 56
Q47.5156 56 55.25 48.2344
Q62.9844 40.4844 62.9844 27.4844
M45.0156 33.2969
Q45.0156 38.2812 42.1094 41.3281
Q39.2031 44.3906 34.5156 44.3906
Q29.4375 44.3906 26.2656 41.5312
Q23.0938 38.6719 22.3125 33.2969
z
" id="BitstreamVeraSans-Bold-65"/>
      </defs>
      <g transform="translate(241.77525 481.06375)rotate(-90.0)scale(0.12 -0.12)">
       <use xlink:href="#BitstreamVeraSans-Bold-4d"/>
       <use x="99.51171875" xlink:href="#BitstreamVeraSans-Bold-65"/>
       <use x="167.333984375" xlink:href="#BitstreamVeraSans-Bold-61"/>
       <use x="234.814453125" xlink:href="#BitstreamVeraSans-Bold-6e"/>
       <use x="306.005859375" xlink:href="#BitstreamVeraSans-Bold-20"/>
       <use x="340.8203125" xlink:href="#BitstreamVeraSans-Bold-53"/>
      </g>
     </g>
    </g>
    <g id="xtick_3">
     <g id="line2d_11">
      <g>
       <use style="stroke:#000000;stroke-width:0.5;" x="318.291692308" xlink:href="#m93b0483c22" y="428.4"/>
      </g>
     </g>
     <g id="line2d_12">
      <g>
       <use style="stroke:#000000;stroke-width:0.5;" x="318.291692308" xlink:href="#m741efc42ff" y="25.2"/>
      </g>
     </g>
     <g id="text_3">
      <!-- Q2 -->
      <defs>
       <path d="
M44.4844 -1.3125
L43.0156 -1.3125
Q25 -1.3125 14.9844 8.64062
Q4.98438 18.6094 4.98438 36.375
Q4.98438 54.1094 14.9688 64.1562
Q24.9531 74.2188 42.4844 74.2188
Q60.2031 74.2188 70.0938 64.25
Q79.9844 54.2969 79.9844 36.375
Q79.9844 24.0781 74.7344 15.1875
Q69.4844 6.29688 59.625 1.8125
L74.3125 -14.5938
L56.3906 -14.5938
z

M42.4844 60.5938
Q33.8906 60.5938 29.1562 54.25
Q24.4219 47.9062 24.4219 36.375
Q24.4219 24.6562 29.0469 18.4219
Q33.6875 12.2031 42.4844 12.2031
Q51.125 12.2031 55.8594 18.5469
Q60.5938 24.9062 60.5938 36.375
Q60.5938 47.9062 55.8594 54.25
Q51.125 60.5938 42.4844 60.5938" id="BitstreamVeraSans-Bold-51"/>
       <path d="
M28.8125 13.8125
L60.8906 13.8125
L60.8906 0
L7.90625 0
L7.90625 13.8125
L34.5156 37.3125
Q38.0938 40.5312 39.7969 43.6094
Q41.5 46.6875 41.5 50
Q41.5 55.125 38.0625 58.25
Q34.625 61.375 28.9062 61.375
Q24.5156 61.375 19.2812 59.5
Q14.0625 57.625 8.10938 53.9062
L8.10938 69.9219
Q14.4531 72.0156 20.6562 73.1094
Q26.8594 74.2188 32.8125 74.2188
Q45.9062 74.2188 53.1562 68.4531
Q60.4062 62.7031 60.4062 52.3906
Q60.4062 46.4375 57.3281 41.2812
Q54.25 36.1406 44.3906 27.4844
z
" id="BitstreamVeraSans-Bold-32"/>
      </defs>
      <g transform="translate(321.602942308 449.310625)rotate(-90.0)scale(0.12 -0.12)">
       <use xlink:href="#BitstreamVeraSans-Bold-51"/>
       <use x="85.009765625" xlink:href="#BitstreamVeraSans-Bold-32"/>
      </g>
     </g>
    </g>
    <g id="xtick_4">
     <g id="line2d_13">
      <g>
       <use style="stroke:#000000;stroke-width:0.5;" x="398.119384615" xlink:href="#m93b0483c22" y="428.4"/>
      </g>
     </g>
     <g id="line2d_14">
      <g>
       <use style="stroke:#000000;stroke-width:0.5;" x="398.119384615" xlink:href="#m741efc42ff" y="25.2"/>
      </g>
     </g>
     <g id="text_4">
      <!-- Q3 -->
      <defs>
       <path d="
M46.5781 39.3125
Q53.9531 37.4062 57.7812 32.6875
Q61.625 27.9844 61.625 20.7031
Q61.625 9.85938 53.3125 4.21875
Q45.0156 -1.42188 29.1094 -1.42188
Q23.4844 -1.42188 17.8438 -0.515625
Q12.2031 0.390625 6.6875 2.20312
L6.6875 16.7031
Q11.9688 14.0625 17.1562 12.7188
Q22.3594 11.375 27.3906 11.375
Q34.8594 11.375 38.8438 13.9531
Q42.8281 16.5469 42.8281 21.3906
Q42.8281 26.375 38.75 28.9375
Q34.6719 31.5 26.7031 31.5
L19.1875 31.5
L19.1875 43.6094
L27.0938 43.6094
Q34.1875 43.6094 37.6406 45.8281
Q41.1094 48.0469 41.1094 52.5938
Q41.1094 56.7812 37.7344 59.0781
Q34.375 61.375 28.2188 61.375
Q23.6875 61.375 19.0469 60.3438
Q14.4062 59.3281 9.8125 57.3281
L9.8125 71.0938
Q15.375 72.6562 20.8438 73.4375
Q26.3125 74.2188 31.5938 74.2188
Q45.7969 74.2188 52.8438 69.5469
Q59.9062 64.8906 59.9062 55.5156
Q59.9062 49.125 56.5312 45.0469
Q53.1719 40.9688 46.5781 39.3125" id="BitstreamVeraSans-Bold-33"/>
      </defs>
      <g transform="translate(401.430634615 449.39875)rotate(-90.0)scale(0.12 -0.12)">
       <use xlink:href="#BitstreamVeraSans-Bold-51"/>
       <use x="85.009765625" xlink:href="#BitstreamVeraSans-Bold-33"/>
      </g>
     </g>
    </g>
    <g id="xtick_5">
     <g id="line2d_15">
      <g>
       <use style="stroke:#000000;stroke-width:0.5;" x="477.947076923" xlink:href="#m93b0483c22" y="428.4"/>
      </g>
     </g>
     <g id="line2d_16">
      <g>
       <use style="stroke:#000000;stroke-width:0.5;" x="477.947076923" xlink:href="#m741efc42ff" y="25.2"/>
      </g>
     </g>
     <g id="text_5">
      <!-- Skew S -->
      <defs>
       <path d="
M8.40625 75.9844
L25.875 75.9844
L25.875 34.625
L46 54.6875
L66.3125 54.6875
L39.5938 29.5938
L68.4062 0
L47.2188 0
L25.875 22.7969
L25.875 0
L8.40625 0
z
" id="BitstreamVeraSans-Bold-6b"/>
       <path d="
M3.51562 54.6875
L20.5156 54.6875
L29.6875 17
L38.9219 54.6875
L53.5156 54.6875
L62.7031 17.3906
L71.9219 54.6875
L88.9219 54.6875
L74.5156 0
L55.4219 0
L46.1875 37.5938
L37.0156 0
L17.9219 0
z
" id="BitstreamVeraSans-Bold-77"/>
      </defs>
      <g transform="translate(481.258326923 479.875)rotate(-90.0)scale(0.12 -0.12)">
       <use xlink:href="#BitstreamVeraSans-Bold-53"/>
       <use x="72.021484375" xlink:href="#BitstreamVeraSans-Bold-6b"/>
       <use x="135.900390625" xlink:href="#BitstreamVeraSans-Bold-65"/>
       <use x="203.72265625" xlink:href="#BitstreamVeraSans-Bold-77"/>
       <use x="296.10546875" xlink:href="#BitstreamVeraSans-Bold-20"/>
       <use x="330.919921875" xlink:href="#BitstreamVeraSans-Bold-53"/>
      </g>
     </g>
    </g>
    <g id="xtick_6">
     <g id="line2d_17">
      <g>
       <use style="stroke:#000000;stroke-width:0.5;" x="557.774769231" xlink:href="#m93b0483c22" y="428.4"/>
      </g>
     </g>
     <g id="line2d_18">
      <g>
       <use style="stroke:#000000;stroke-width:0.5;" x="557.774769231" xlink:href="#m741efc42ff" y="25.2"/>
      </g>
     </g>
     <g id="text_6">
      <!-- Q1 -->
      <defs>
       <path d="
M11.7188 12.9844
L28.3281 12.9844
L28.3281 60.1094
L11.2812 56.5938
L11.2812 69.3906
L28.2188 72.9062
L46.0938 72.9062
L46.0938 12.9844
L62.7031 12.9844
L62.7031 0
L11.7188 0
z
" id="BitstreamVeraSans-Bold-31"/>
      </defs>
      <g transform="translate(561.086019231 449.528125)rotate(-90.0)scale(0.12 -0.12)">
       <use xlink:href="#BitstreamVeraSans-Bold-51"/>
       <use x="85.009765625" xlink:href="#BitstreamVeraSans-Bold-31"/>
      </g>
     </g>
    </g>
    <g id="xtick_7">
     <g id="line2d_19">
      <g>
       <use style="stroke:#000000;stroke-width:0.5;" x="637.602461538" xlink:href="#m93b0483c22" y="428.4"/>
      </g>
     </g>
     <g id="line2d_20">
      <g>
       <use style="stroke:#000000;stroke-width:0.5;" x="637.602461538" xlink:href="#m741efc42ff" y="25.2"/>
      </g>
     </g>
     <g id="text_7">
      <!-- Ent T -->
      <defs>
       <path d="
M0.484375 72.9062
L67.6719 72.9062
L67.6719 58.6875
L43.5 58.6875
L43.5 0
L24.7031 0
L24.7031 58.6875
L0.484375 58.6875
z
" id="BitstreamVeraSans-Bold-54"/>
       <path d="
M9.1875 72.9062
L59.9062 72.9062
L59.9062 58.6875
L27.9844 58.6875
L27.9844 45.125
L58.0156 45.125
L58.0156 30.9062
L27.9844 30.9062
L27.9844 14.2031
L60.9844 14.2031
L60.9844 0
L9.1875 0
z
" id="BitstreamVeraSans-Bold-45"/>
       <path d="
M27.4844 70.2188
L27.4844 54.6875
L45.5156 54.6875
L45.5156 42.1875
L27.4844 42.1875
L27.4844 19
Q27.4844 15.1875 29 13.8438
Q30.5156 12.5 35.0156 12.5
L44 12.5
L44 0
L29 0
Q18.6562 0 14.3281 4.3125
Q10.0156 8.64062 10.0156 19
L10.0156 42.1875
L1.3125 42.1875
L1.3125 54.6875
L10.0156 54.6875
L10.0156 70.2188
z
" id="BitstreamVeraSans-Bold-74"/>
      </defs>
      <g transform="translate(640.913711538 467.17375)rotate(-90.0)scale(0.12 -0.12)">
       <use xlink:href="#BitstreamVeraSans-Bold-45"/>
       <use x="68.310546875" xlink:href="#BitstreamVeraSans-Bold-6e"/>
       <use x="139.501953125" xlink:href="#BitstreamVeraSans-Bold-74"/>
       <use x="187.3046875" xlink:href="#BitstreamVeraSans-Bold-20"/>
       <use x="222.119140625" xlink:href="#BitstreamVeraSans-Bold-54"/>
      </g>
     </g>
    </g>
    <g id="xtick_8">
     <g id="line2d_21">
      <g>
       <use style="stroke:#000000;stroke-width:0.5;" x="717.430153846" xlink:href="#m93b0483c22" y="428.4"/>
      </g>
     </g>
     <g id="line2d_22">
      <g>
       <use style="stroke:#000000;stroke-width:0.5;" x="717.430153846" xlink:href="#m741efc42ff" y="25.2"/>
      </g>
     </g>
     <g id="text_8">
      <!-- Ent S -->
      <g transform="translate(720.741403846 466.8175)rotate(-90.0)scale(0.12 -0.12)">
       <use xlink:href="#BitstreamVeraSans-Bold-45"/>
       <use x="68.310546875" xlink:href="#BitstreamVeraSans-Bold-6e"/>
       <use x="139.501953125" xlink:href="#BitstreamVeraSans-Bold-74"/>
       <use x="187.3046875" xlink:href="#BitstreamVeraSans-Bold-20"/>
       <use x="222.119140625" xlink:href="#BitstreamVeraSans-Bold-53"/>
      </g>
     </g>
    </g>
    <g id="xtick_9">
     <g id="line2d_23">
      <g>
       <use style="stroke:#000000;stroke-width:0.5;" x="797.257846154" xlink:href="#m93b0483c22" y="428.4"/>
      </g>
     </g>
     <g id="line2d_24">
      <g>
       <use style="stroke:#000000;stroke-width:0.5;" x="797.257846154" xlink:href="#m741efc42ff" y="25.2"/>
      </g>
     </g>
     <g id="text_9">
      <!-- Skew T -->
      <g transform="translate(800.569096154 480.23125)rotate(-90.0)scale(0.12 -0.12)">
       <use xlink:href="#BitstreamVeraSans-Bold-53"/>
       <use x="72.021484375" xlink:href="#BitstreamVeraSans-Bold-6b"/>
       <use x="135.900390625" xlink:href="#BitstreamVeraSans-Bold-65"/>
       <use x="203.72265625" xlink:href="#BitstreamVeraSans-Bold-77"/>
       <use x="296.10546875" xlink:href="#BitstreamVeraSans-Bold-20"/>
       <use x="330.919921875" xlink:href="#BitstreamVeraSans-Bold-54"/>
      </g>
     </g>
    </g>
    <g id="xtick_10">
     <g id="line2d_25">
      <g>
       <use style="stroke:#000000;stroke-width:0.5;" x="877.085538462" xlink:href="#m93b0483c22" y="428.4"/>
      </g>
     </g>
     <g id="line2d_26">
      <g>
       <use style="stroke:#000000;stroke-width:0.5;" x="877.085538462" xlink:href="#m741efc42ff" y="25.2"/>
      </g>
     </g>
     <g id="text_10">
      <!-- Saliency -->
      <defs>
       <path d="
M1.21875 54.6875
L18.7031 54.6875
L33.4062 17.5781
L45.9062 54.6875
L63.375 54.6875
L40.375 -5.17188
Q36.9219 -14.3125 32.2969 -17.9375
Q27.6875 -21.5781 20.125 -21.5781
L10.0156 -21.5781
L10.0156 -10.1094
L15.4844 -10.1094
Q19.9219 -10.1094 21.9375 -8.6875
Q23.9688 -7.28125 25.0938 -3.60938
L25.5938 -2.09375
z
" id="BitstreamVeraSans-Bold-79"/>
       <path d="
M8.40625 75.9844
L25.875 75.9844
L25.875 0
L8.40625 0
z
" id="BitstreamVeraSans-Bold-6c"/>
       <path d="
M8.40625 54.6875
L25.875 54.6875
L25.875 0
L8.40625 0
z

M8.40625 75.9844
L25.875 75.9844
L25.875 61.7188
L8.40625 61.7188
z
" id="BitstreamVeraSans-Bold-69"/>
       <path d="
M52.5938 52.9844
L52.5938 38.7188
Q49.0312 41.1562 45.4375 42.3281
Q41.8438 43.5 37.9844 43.5
Q30.6719 43.5 26.5938 39.2344
Q22.5156 34.9688 22.5156 27.2969
Q22.5156 19.625 26.5938 15.3438
Q30.6719 11.0781 37.9844 11.0781
Q42.0938 11.0781 45.7812 12.2969
Q49.4688 13.5312 52.5938 15.9219
L52.5938 1.60938
Q48.4844 0.09375 44.2656 -0.65625
Q40.0469 -1.42188 35.7969 -1.42188
Q21 -1.42188 12.6406 6.17188
Q4.29688 13.7656 4.29688 27.2969
Q4.29688 40.8281 12.6406 48.4062
Q21 56 35.7969 56
Q40.0938 56 44.2656 55.25
Q48.4375 54.5 52.5938 52.9844" id="BitstreamVeraSans-Bold-63"/>
      </defs>
      <g transform="translate(880.349913462 487.9075)rotate(-90.0)scale(0.12 -0.12)">
       <use xlink:href="#BitstreamVeraSans-Bold-53"/>
       <use x="72.021484375" xlink:href="#BitstreamVeraSans-Bold-61"/>
       <use x="139.501953125" xlink:href="#BitstreamVeraSans-Bold-6c"/>
       <use x="173.779296875" xlink:href="#BitstreamVeraSans-Bold-69"/>
       <use x="208.056640625" xlink:href="#BitstreamVeraSans-Bold-65"/>
       <use x="275.87890625" xlink:href="#BitstreamVeraSans-Bold-6e"/>
       <use x="347.0703125" xlink:href="#BitstreamVeraSans-Bold-63"/>
       <use x="406.34765625" xlink:href="#BitstreamVeraSans-Bold-79"/>
      </g>
     </g>
    </g>
    <g id="xtick_11">
     <g id="line2d_27">
      <g>
       <use style="stroke:#000000;stroke-width:0.5;" x="956.913230769" xlink:href="#m93b0483c22" y="428.4"/>
      </g>
     </g>
     <g id="line2d_28">
      <g>
       <use style="stroke:#000000;stroke-width:0.5;" x="956.913230769" xlink:href="#m741efc42ff" y="25.2"/>
      </g>
     </g>
     <g id="text_11">
      <!-- Max F0 -->
      <defs>
       <path d="
M46 36.5312
Q46 50.2031 43.4375 55.7812
Q40.875 61.375 34.8125 61.375
Q28.7656 61.375 26.1719 55.7812
Q23.5781 50.2031 23.5781 36.5312
Q23.5781 22.7031 26.1719 17.0312
Q28.7656 11.375 34.8125 11.375
Q40.8281 11.375 43.4062 17.0312
Q46 22.7031 46 36.5312
M64.7969 36.375
Q64.7969 18.2656 56.9844 8.42188
Q49.1719 -1.42188 34.8125 -1.42188
Q20.4062 -1.42188 12.5938 8.42188
Q4.78125 18.2656 4.78125 36.375
Q4.78125 54.5469 12.5938 64.375
Q20.4062 74.2188 34.8125 74.2188
Q49.1719 74.2188 56.9844 64.375
Q64.7969 54.5469 64.7969 36.375" id="BitstreamVeraSans-Bold-30"/>
       <path d="
M9.1875 72.9062
L59.9062 72.9062
L59.9062 58.6875
L27.9844 58.6875
L27.9844 45.125
L58.0156 45.125
L58.0156 30.9062
L27.9844 30.9062
L27.9844 0
L9.1875 0
z
" id="BitstreamVeraSans-Bold-46"/>
      </defs>
      <g transform="translate(960.224480769 480.330625)rotate(-90.0)scale(0.12 -0.12)">
       <use xlink:href="#BitstreamVeraSans-Bold-4d"/>
       <use x="99.51171875" xlink:href="#BitstreamVeraSans-Bold-61"/>
       <use x="166.9921875" xlink:href="#BitstreamVeraSans-Bold-78"/>
       <use x="231.494140625" xlink:href="#BitstreamVeraSans-Bold-20"/>
       <use x="266.30859375" xlink:href="#BitstreamVeraSans-Bold-46"/>
       <use x="334.619140625" xlink:href="#BitstreamVeraSans-Bold-30"/>
      </g>
     </g>
    </g>
    <g id="xtick_12">
     <g id="line2d_29">
      <g>
       <use style="stroke:#000000;stroke-width:0.5;" x="1036.74092308" xlink:href="#m93b0483c22" y="428.4"/>
      </g>
     </g>
     <g id="line2d_30">
      <g>
       <use style="stroke:#000000;stroke-width:0.5;" x="1036.74092308" xlink:href="#m741efc42ff" y="25.2"/>
      </g>
     </g>
     <g id="text_12">
      <!-- CV F0 -->
      <defs>
       <path d="
M0.484375 72.9062
L19.3906 72.9062
L38.7188 19.0938
L58.0156 72.9062
L76.9062 72.9062
L49.9062 0
L27.4844 0
z
" id="BitstreamVeraSans-Bold-56"/>
       <path d="
M67 4
Q61.8125 1.3125 56.2031 -0.046875
Q50.5938 -1.42188 44.4844 -1.42188
Q26.2656 -1.42188 15.625 8.76562
Q4.98438 18.9531 4.98438 36.375
Q4.98438 53.8594 15.625 64.0312
Q26.2656 74.2188 44.4844 74.2188
Q50.5938 74.2188 56.2031 72.8438
Q61.8125 71.4844 67 68.7969
L67 53.7188
Q61.7656 57.2812 56.6875 58.9375
Q51.6094 60.5938 46 60.5938
Q35.9375 60.5938 30.1719 54.1406
Q24.4219 47.7031 24.4219 36.375
Q24.4219 25.0938 30.1719 18.6406
Q35.9375 12.2031 46 12.2031
Q51.6094 12.2031 56.6875 13.8594
Q61.7656 15.5312 67 19.0938
z
" id="BitstreamVeraSans-Bold-43"/>
      </defs>
      <g transform="translate(1040.05217308 470.644375)rotate(-90.0)scale(0.12 -0.12)">
       <use xlink:href="#BitstreamVeraSans-Bold-43"/>
       <use x="73.388671875" xlink:href="#BitstreamVeraSans-Bold-56"/>
       <use x="150.78125" xlink:href="#BitstreamVeraSans-Bold-20"/>
       <use x="185.595703125" xlink:href="#BitstreamVeraSans-Bold-46"/>
       <use x="253.90625" xlink:href="#BitstreamVeraSans-Bold-30"/>
      </g>
     </g>
    </g>
    <g id="xtick_13">
     <g id="line2d_31">
      <g>
       <use style="stroke:#000000;stroke-width:0.5;" x="1116.56861538" xlink:href="#m93b0483c22" y="428.4"/>
      </g>
     </g>
     <g id="line2d_32">
      <g>
       <use style="stroke:#000000;stroke-width:0.5;" x="1116.56861538" xlink:href="#m741efc42ff" y="25.2"/>
      </g>
     </g>
     <g id="text_13">
      <!-- Min F0 -->
      <g transform="translate(1119.87986538 477.14875)rotate(-90.0)scale(0.12 -0.12)">
       <use xlink:href="#BitstreamVeraSans-Bold-4d"/>
       <use x="99.51171875" xlink:href="#BitstreamVeraSans-Bold-69"/>
       <use x="133.7890625" xlink:href="#BitstreamVeraSans-Bold-6e"/>
       <use x="204.98046875" xlink:href="#BitstreamVeraSans-Bold-20"/>
       <use x="239.794921875" xlink:href="#BitstreamVeraSans-Bold-46"/>
       <use x="308.10546875" xlink:href="#BitstreamVeraSans-Bold-30"/>
      </g>
     </g>
    </g>
    <g id="xtick_14">
     <g id="line2d_33">
      <g>
       <use style="stroke:#000000;stroke-width:0.5;" x="1196.39630769" xlink:href="#m93b0483c22" y="428.4"/>
      </g>
     </g>
     <g id="line2d_34">
      <g>
       <use style="stroke:#000000;stroke-width:0.5;" x="1196.39630769" xlink:href="#m741efc42ff" y="25.2"/>
      </g>
     </g>
     <g id="text_14">
      <!-- Std S -->
      <defs>
       <path d="
M45.6094 46.6875
L45.6094 75.9844
L63.1875 75.9844
L63.1875 0
L45.6094 0
L45.6094 7.90625
Q42 3.07812 37.6406 0.828125
Q33.2969 -1.42188 27.5938 -1.42188
Q17.4844 -1.42188 10.9844 6.60938
Q4.5 14.6562 4.5 27.2969
Q4.5 39.9375 10.9844 47.9688
Q17.4844 56 27.5938 56
Q33.25 56 37.625 53.7344
Q42 51.4688 45.6094 46.6875
M34.0781 11.2812
Q39.7031 11.2812 42.6562 15.375
Q45.6094 19.4844 45.6094 27.2969
Q45.6094 35.1094 42.6562 39.2031
Q39.7031 43.3125 34.0781 43.3125
Q28.5156 43.3125 25.5625 39.2031
Q22.6094 35.1094 22.6094 27.2969
Q22.6094 19.4844 25.5625 15.375
Q28.5156 11.2812 34.0781 11.2812" id="BitstreamVeraSans-Bold-64"/>
      </defs>
      <g transform="translate(1199.70755769 467.30875)rotate(-90.0)scale(0.12 -0.12)">
       <use xlink:href="#BitstreamVeraSans-Bold-53"/>
       <use x="72.021484375" xlink:href="#BitstreamVeraSans-Bold-74"/>
       <use x="119.82421875" xlink:href="#BitstreamVeraSans-Bold-64"/>
       <use x="191.40625" xlink:href="#BitstreamVeraSans-Bold-20"/>
       <use x="226.220703125" xlink:href="#BitstreamVeraSans-Bold-53"/>
      </g>
     </g>
    </g>
    <g id="xtick_15">
     <g id="line2d_35">
      <g>
       <use style="stroke:#000000;stroke-width:0.5;" x="1276.224" xlink:href="#m93b0483c22" y="428.4"/>
      </g>
     </g>
     <g id="line2d_36">
      <g>
       <use style="stroke:#000000;stroke-width:0.5;" x="1276.224" xlink:href="#m741efc42ff" y="25.2"/>
      </g>
     </g>
     <g id="text_15">
      <!-- Mean F0 -->
      <g transform="translate(1279.53525 489.2725)rotate(-90.0)scale(0.12 -0.12)">
       <use xlink:href="#BitstreamVeraSans-Bold-4d"/>
       <use x="99.51171875" xlink:href="#BitstreamVeraSans-Bold-65"/>
       <use x="167.333984375" xlink:href="#BitstreamVeraSans-Bold-61"/>
       <use x="234.814453125" xlink:href="#BitstreamVeraSans-Bold-6e"/>
       <use x="306.005859375" xlink:href="#BitstreamVeraSans-Bold-20"/>
       <use x="340.8203125" xlink:href="#BitstreamVeraSans-Bold-46"/>
       <use x="409.130859375" xlink:href="#BitstreamVeraSans-Bold-30"/>
      </g>
     </g>
    </g>
    <g id="xtick_16">
     <g id="line2d_37">
      <g>
       <use style="stroke:#000000;stroke-width:0.5;" x="1356.05169231" xlink:href="#m93b0483c22" y="428.4"/>
      </g>
     </g>
     <g id="line2d_38">
      <g>
       <use style="stroke:#000000;stroke-width:0.5;" x="1356.05169231" xlink:href="#m741efc42ff" y="25.2"/>
      </g>
     </g>
     <g id="text_16">
      <!-- Kurt S -->
      <defs>
       <path d="
M9.1875 72.9062
L27.9844 72.9062
L27.9844 46.2969
L55.0781 72.9062
L76.9062 72.9062
L41.7969 38.375
L80.5156 0
L56.9844 0
L27.9844 28.7188
L27.9844 0
L9.1875 0
z
" id="BitstreamVeraSans-Bold-4b"/>
       <path d="
M49.0312 39.7969
Q46.7344 40.875 44.4531 41.375
Q42.1875 41.8906 39.8906 41.8906
Q33.1562 41.8906 29.5156 37.5625
Q25.875 33.25 25.875 25.2031
L25.875 0
L8.40625 0
L8.40625 54.6875
L25.875 54.6875
L25.875 45.7031
Q29.25 51.0781 33.6094 53.5312
Q37.9844 56 44.0938 56
Q44.9688 56 45.9844 55.9219
Q47.0156 55.8594 48.9688 55.6094
z
" id="BitstreamVeraSans-Bold-72"/>
       <path d="
M7.8125 21.2969
L7.8125 54.6875
L25.3906 54.6875
L25.3906 49.2188
Q25.3906 44.7812 25.3438 38.0625
Q25.2969 31.3438 25.2969 29.1094
Q25.2969 22.5156 25.6406 19.6094
Q25.9844 16.7031 26.8125 15.375
Q27.875 13.6719 29.6094 12.7344
Q31.3438 11.8125 33.5938 11.8125
Q39.0625 11.8125 42.1875 16.0156
Q45.3125 20.2188 45.3125 27.6875
L45.3125 54.6875
L62.7969 54.6875
L62.7969 0
L45.3125 0
L45.3125 7.90625
Q41.3594 3.125 36.9375 0.84375
Q32.5156 -1.42188 27.2031 -1.42188
Q17.7188 -1.42188 12.7656 4.39062
Q7.8125 10.2031 7.8125 21.2969" id="BitstreamVeraSans-Bold-75"/>
      </defs>
      <g transform="translate(1359.36294231 473.625625)rotate(-90.0)scale(0.12 -0.12)">
       <use xlink:href="#BitstreamVeraSans-Bold-4b"/>
       <use x="75.740234375" xlink:href="#BitstreamVeraSans-Bold-75"/>
       <use x="146.931640625" xlink:href="#BitstreamVeraSans-Bold-72"/>
       <use x="196.248046875" xlink:href="#BitstreamVeraSans-Bold-74"/>
       <use x="244.05078125" xlink:href="#BitstreamVeraSans-Bold-20"/>
       <use x="278.865234375" xlink:href="#BitstreamVeraSans-Bold-53"/>
      </g>
     </g>
    </g>
    <g id="xtick_17">
     <g id="line2d_39">
      <g>
       <use style="stroke:#000000;stroke-width:0.5;" x="1435.87938462" xlink:href="#m93b0483c22" y="428.4"/>
      </g>
     </g>
     <g id="line2d_40">
      <g>
       <use style="stroke:#000000;stroke-width:0.5;" x="1435.87938462" xlink:href="#m741efc42ff" y="25.2"/>
      </g>
     </g>
     <g id="text_17">
      <!-- Kurt T -->
      <g transform="translate(1439.19063462 473.981875)rotate(-90.0)scale(0.12 -0.12)">
       <use xlink:href="#BitstreamVeraSans-Bold-4b"/>
       <use x="75.740234375" xlink:href="#BitstreamVeraSans-Bold-75"/>
       <use x="146.931640625" xlink:href="#BitstreamVeraSans-Bold-72"/>
       <use x="196.248046875" xlink:href="#BitstreamVeraSans-Bold-74"/>
       <use x="244.05078125" xlink:href="#BitstreamVeraSans-Bold-20"/>
       <use x="278.865234375" xlink:href="#BitstreamVeraSans-Bold-54"/>
      </g>
     </g>
    </g>
    <g id="xtick_18">
     <g id="line2d_41">
      <g>
       <use style="stroke:#000000;stroke-width:0.5;" x="1515.70707692" xlink:href="#m93b0483c22" y="428.4"/>
      </g>
     </g>
     <g id="line2d_42">
      <g>
       <use style="stroke:#000000;stroke-width:0.5;" x="1515.70707692" xlink:href="#m741efc42ff" y="25.2"/>
      </g>
     </g>
     <g id="text_18">
      <!-- 2nd V -->
      <g transform="translate(1519.01832692 471.2875)rotate(-90.0)scale(0.12 -0.12)">
       <use xlink:href="#BitstreamVeraSans-Bold-32"/>
       <use x="69.580078125" xlink:href="#BitstreamVeraSans-Bold-6e"/>
       <use x="140.771484375" xlink:href="#BitstreamVeraSans-Bold-64"/>
       <use x="212.353515625" xlink:href="#BitstreamVeraSans-Bold-20"/>
       <use x="247.16796875" xlink:href="#BitstreamVeraSans-Bold-56"/>
      </g>
     </g>
    </g>
    <g id="xtick_19">
     <g id="line2d_43">
      <g>
       <use style="stroke:#000000;stroke-width:0.5;" x="1595.53476923" xlink:href="#m93b0483c22" y="428.4"/>
      </g>
     </g>
     <g id="line2d_44">
      <g>
       <use style="stroke:#000000;stroke-width:0.5;" x="1595.53476923" xlink:href="#m741efc42ff" y="25.2"/>
      </g>
     </g>
     <g id="text_19">
      <!-- Pk 2 -->
      <defs>
       <path d="
M9.1875 72.9062
L40.375 72.9062
Q54.2969 72.9062 61.7344 66.7188
Q69.1875 60.5469 69.1875 49.125
Q69.1875 37.6406 61.7344 31.4688
Q54.2969 25.2969 40.375 25.2969
L27.9844 25.2969
L27.9844 0
L9.1875 0
z

M27.9844 59.2812
L27.9844 38.9219
L38.375 38.9219
Q43.8438 38.9219 46.8281 41.5781
Q49.8125 44.2344 49.8125 49.125
Q49.8125 54 46.8281 56.6406
Q43.8438 59.2812 38.375 59.2812
z
" id="BitstreamVeraSans-Bold-50"/>
      </defs>
      <g transform="translate(1598.84601923 460.66)rotate(-90.0)scale(0.12 -0.12)">
       <use xlink:href="#BitstreamVeraSans-Bold-50"/>
       <use x="73.291015625" xlink:href="#BitstreamVeraSans-Bold-6b"/>
       <use x="139.794921875" xlink:href="#BitstreamVeraSans-Bold-20"/>
       <use x="174.609375" xlink:href="#BitstreamVeraSans-Bold-32"/>
      </g>
     </g>
    </g>
   </g>
   <g id="matplotlib.axis_2">
    <g id="ytick_1">
     <g id="line2d_45">
      <defs>
       <path d="
M0 0
L4 0" id="m728421d6d4" style="stroke:#000000;stroke-width:0.5;"/>
      </defs>
      <g>
       <use style="stroke:#000000;stroke-width:0.5;" x="82.8" xlink:href="#m728421d6d4" y="428.4"/>
      </g>
     </g>
     <g id="line2d_46">
      <defs>
       <path d="
M0 0
L-4 0" id="mcb0005524f" style="stroke:#000000;stroke-width:0.5;"/>
      </defs>
      <g>
       <use style="stroke:#000000;stroke-width:0.5;" x="1639.44" xlink:href="#mcb0005524f" y="428.4"/>
      </g>
     </g>
     <g id="text_20">
      <!-- 0.0 -->
      <defs>
       <path d="
M10.2031 18.8906
L27.7812 18.8906
L27.7812 0
L10.2031 0
z
" id="BitstreamVeraSans-Bold-2e"/>
      </defs>
      <g transform="translate(51.9875 432.815)scale(0.16 -0.16)">
       <use xlink:href="#BitstreamVeraSans-Bold-30"/>
       <use x="69.580078125" xlink:href="#BitstreamVeraSans-Bold-2e"/>
       <use x="107.568359375" xlink:href="#BitstreamVeraSans-Bold-30"/>
      </g>
     </g>
    </g>
    <g id="ytick_2">
     <g id="line2d_47">
      <g>
       <use style="stroke:#000000;stroke-width:0.5;" x="82.8" xlink:href="#m728421d6d4" y="361.2"/>
      </g>
     </g>
     <g id="line2d_48">
      <g>
       <use style="stroke:#000000;stroke-width:0.5;" x="1639.44" xlink:href="#mcb0005524f" y="361.2"/>
      </g>
     </g>
     <g id="text_21">
      <!-- 0.1 -->
      <g transform="translate(52.3225 365.615)scale(0.16 -0.16)">
       <use xlink:href="#BitstreamVeraSans-Bold-30"/>
       <use x="69.580078125" xlink:href="#BitstreamVeraSans-Bold-2e"/>
       <use x="107.568359375" xlink:href="#BitstreamVeraSans-Bold-31"/>
      </g>
     </g>
    </g>
    <g id="ytick_3">
     <g id="line2d_49">
      <g>
       <use style="stroke:#000000;stroke-width:0.5;" x="82.8" xlink:href="#m728421d6d4" y="294.0"/>
      </g>
     </g>
     <g id="line2d_50">
      <g>
       <use style="stroke:#000000;stroke-width:0.5;" x="1639.44" xlink:href="#mcb0005524f" y="294.0"/>
      </g>
     </g>
     <g id="text_22">
      <!-- 0.2 -->
      <g transform="translate(52.6125 298.415)scale(0.16 -0.16)">
       <use xlink:href="#BitstreamVeraSans-Bold-30"/>
       <use x="69.580078125" xlink:href="#BitstreamVeraSans-Bold-2e"/>
       <use x="107.568359375" xlink:href="#BitstreamVeraSans-Bold-32"/>
      </g>
     </g>
    </g>
    <g id="ytick_4">
     <g id="line2d_51">
      <g>
       <use style="stroke:#000000;stroke-width:0.5;" x="82.8" xlink:href="#m728421d6d4" y="226.8"/>
      </g>
     </g>
     <g id="line2d_52">
      <g>
       <use style="stroke:#000000;stroke-width:0.5;" x="1639.44" xlink:href="#mcb0005524f" y="226.8"/>
      </g>
     </g>
     <g id="text_23">
      <!-- 0.3 -->
      <g transform="translate(52.495 231.215)scale(0.16 -0.16)">
       <use xlink:href="#BitstreamVeraSans-Bold-30"/>
       <use x="69.580078125" xlink:href="#BitstreamVeraSans-Bold-2e"/>
       <use x="107.568359375" xlink:href="#BitstreamVeraSans-Bold-33"/>
      </g>
     </g>
    </g>
    <g id="ytick_5">
     <g id="line2d_53">
      <g>
       <use style="stroke:#000000;stroke-width:0.5;" x="82.8" xlink:href="#m728421d6d4" y="159.6"/>
      </g>
     </g>
     <g id="line2d_54">
      <g>
       <use style="stroke:#000000;stroke-width:0.5;" x="1639.44" xlink:href="#mcb0005524f" y="159.6"/>
      </g>
     </g>
     <g id="text_24">
      <!-- 0.4 -->
      <defs>
       <path d="
M36.8125 57.4219
L16.2188 26.9062
L36.8125 26.9062
z

M33.6875 72.9062
L54.5938 72.9062
L54.5938 26.9062
L64.9844 26.9062
L64.9844 13.2812
L54.5938 13.2812
L54.5938 0
L36.8125 0
L36.8125 13.2812
L4.5 13.2812
L4.5 29.3906
z
" id="BitstreamVeraSans-Bold-34"/>
      </defs>
      <g transform="translate(51.9575 164.015)scale(0.16 -0.16)">
       <use xlink:href="#BitstreamVeraSans-Bold-30"/>
       <use x="69.580078125" xlink:href="#BitstreamVeraSans-Bold-2e"/>
       <use x="107.568359375" xlink:href="#BitstreamVeraSans-Bold-34"/>
      </g>
     </g>
    </g>
    <g id="ytick_6">
     <g id="line2d_55">
      <g>
       <use style="stroke:#000000;stroke-width:0.5;" x="82.8" xlink:href="#m728421d6d4" y="92.4"/>
      </g>
     </g>
     <g id="line2d_56">
      <g>
       <use style="stroke:#000000;stroke-width:0.5;" x="1639.44" xlink:href="#mcb0005524f" y="92.4"/>
      </g>
     </g>
     <g id="text_25">
      <!-- 0.5 -->
      <defs>
       <path d="
M10.5938 72.9062
L57.3281 72.9062
L57.3281 59.0781
L25.5938 59.0781
L25.5938 47.7969
Q27.7344 48.3906 29.9062 48.7031
Q32.0781 49.0312 34.4219 49.0312
Q47.75 49.0312 55.1719 42.3594
Q62.5938 35.6875 62.5938 23.7812
Q62.5938 11.9688 54.5156 5.26562
Q46.4375 -1.42188 32.0781 -1.42188
Q25.875 -1.42188 19.7969 -0.21875
Q13.7188 0.984375 7.71875 3.42188
L7.71875 18.2188
Q13.6719 14.7969 19.0156 13.0781
Q24.3594 11.375 29.1094 11.375
Q35.9375 11.375 39.8594 14.7188
Q43.7969 18.0625 43.7969 23.7812
Q43.7969 29.5469 39.8594 32.8594
Q35.9375 36.1875 29.1094 36.1875
Q25.0469 36.1875 20.4531 35.125
Q15.875 34.0781 10.5938 31.8906
z
" id="BitstreamVeraSans-Bold-35"/>
      </defs>
      <g transform="translate(52.34 96.815)scale(0.16 -0.16)">
       <use xlink:href="#BitstreamVeraSans-Bold-30"/>
       <use x="69.580078125" xlink:href="#BitstreamVeraSans-Bold-2e"/>
       <use x="107.568359375" xlink:href="#BitstreamVeraSans-Bold-35"/>
      </g>
     </g>
    </g>
    <g id="ytick_7">
     <g id="text_26">
      <!-- 0.6 -->
      <defs>
       <path d="
M36.1875 35.9844
Q31.25 35.9844 28.7812 32.7812
Q26.3125 29.5938 26.3125 23.1875
Q26.3125 16.7969 28.7812 13.5938
Q31.25 10.4062 36.1875 10.4062
Q41.1562 10.4062 43.625 13.5938
Q46.0938 16.7969 46.0938 23.1875
Q46.0938 29.5938 43.625 32.7812
Q41.1562 35.9844 36.1875 35.9844
M59.4219 71
L59.4219 57.5156
Q54.7812 59.7188 50.6719 60.7656
Q46.5781 61.8125 42.6719 61.8125
Q34.2812 61.8125 29.5938 57.1406
Q24.9062 52.4844 24.125 43.3125
Q27.3438 45.7031 31.0938 46.8906
Q34.8594 48.0938 39.3125 48.0938
Q50.4844 48.0938 57.3438 41.5469
Q64.2031 35.0156 64.2031 24.4219
Q64.2031 12.7031 56.5312 5.64062
Q48.875 -1.42188 35.9844 -1.42188
Q21.7812 -1.42188 13.9844 8.17188
Q6.20312 17.7812 6.20312 35.4062
Q6.20312 53.4688 15.3125 63.7969
Q24.4219 74.125 40.2812 74.125
Q45.3125 74.125 50.0469 73.3438
Q54.7812 72.5625 59.4219 71" id="BitstreamVeraSans-Bold-36"/>
      </defs>
      <g transform="translate(52.0825 29.615)scale(0.16 -0.16)">
       <use xlink:href="#BitstreamVeraSans-Bold-30"/>
       <use x="69.580078125" xlink:href="#BitstreamVeraSans-Bold-2e"/>
       <use x="107.568359375" xlink:href="#BitstreamVeraSans-Bold-36"/>
      </g>
     </g>
    </g>
    <g id="text_27">
     <!-- Decoder R2 -->
     <defs>
      <path d="
M19.1875 8.29688
L53.6094 8.29688
L53.6094 0
L7.32812 0
L7.32812 8.29688
Q12.9375 14.1094 22.625 23.8906
Q32.3281 33.6875 34.8125 36.5312
Q39.5469 41.8438 41.4219 45.5312
Q43.3125 49.2188 43.3125 52.7812
Q43.3125 58.5938 39.2344 62.25
Q35.1562 65.9219 28.6094 65.9219
Q23.9688 65.9219 18.8125 64.3125
Q13.6719 62.7031 7.8125 59.4219
L7.8125 69.3906
Q13.7656 71.7812 18.9375 73
Q24.125 74.2188 28.4219 74.2188
Q39.75 74.2188 46.4844 68.5469
Q53.2188 62.8906 53.2188 53.4219
Q53.2188 48.9219 51.5312 44.8906
Q49.8594 40.875 45.4062 35.4062
Q44.1875 33.9844 37.6406 27.2188
Q31.1094 20.4531 19.1875 8.29688" id="BitstreamVeraSans-Roman-32"/>
      <path id="BitstreamVeraSans-Roman-20"/>
      <path d="
M30.6094 48.3906
Q23.3906 48.3906 19.1875 42.75
Q14.9844 37.1094 14.9844 27.2969
Q14.9844 17.4844 19.1562 11.8438
Q23.3438 6.20312 30.6094 6.20312
Q37.7969 6.20312 41.9844 11.8594
Q46.1875 17.5312 46.1875 27.2969
Q46.1875 37.0156 41.9844 42.7031
Q37.7969 48.3906 30.6094 48.3906
M30.6094 56
Q42.3281 56 49.0156 48.375
Q55.7188 40.7656 55.7188 27.2969
Q55.7188 13.875 49.0156 6.21875
Q42.3281 -1.42188 30.6094 -1.42188
Q18.8438 -1.42188 12.1719 6.21875
Q5.51562 13.875 5.51562 27.2969
Q5.51562 40.7656 12.1719 48.375
Q18.8438 56 30.6094 56" id="BitstreamVeraSans-Roman-6f"/>
      <path d="
M44.3906 34.1875
Q47.5625 33.1094 50.5625 29.5938
Q53.5625 26.0781 56.5938 19.9219
L66.6094 0
L56 0
L46.6875 18.7031
Q43.0625 26.0312 39.6719 28.4219
Q36.2812 30.8125 30.4219 30.8125
L19.6719 30.8125
L19.6719 0
L9.8125 0
L9.8125 72.9062
L32.0781 72.9062
Q44.5781 72.9062 50.7344 67.6719
Q56.8906 62.4531 56.8906 51.9062
Q56.8906 45.0156 53.6875 40.4688
Q50.4844 35.9375 44.3906 34.1875
M19.6719 64.7969
L19.6719 38.9219
L32.0781 38.9219
Q39.2031 38.9219 42.8438 42.2188
Q46.4844 45.5156 46.4844 51.9062
Q46.4844 58.2969 42.8438 61.5469
Q39.2031 64.7969 32.0781 64.7969
z
" id="BitstreamVeraSans-Roman-52"/>
      <path d="
M19.6719 64.7969
L19.6719 8.10938
L31.5938 8.10938
Q46.6875 8.10938 53.6875 14.9375
Q60.6875 21.7812 60.6875 36.5312
Q60.6875 51.1719 53.6875 57.9844
Q46.6875 64.7969 31.5938 64.7969
z

M9.8125 72.9062
L30.0781 72.9062
Q51.2656 72.9062 61.1719 64.0938
Q71.0938 55.2812 71.0938 36.5312
Q71.0938 17.6719 61.125 8.82812
Q51.1719 0 30.0781 0
L9.8125 0
z
" id="BitstreamVeraSans-Roman-44"/>
      <path d="
M56.2031 29.5938
L56.2031 25.2031
L14.8906 25.2031
Q15.4844 15.9219 20.4844 11.0625
Q25.4844 6.20312 34.4219 6.20312
Q39.5938 6.20312 44.4531 7.46875
Q49.3125 8.73438 54.1094 11.2812
L54.1094 2.78125
Q49.2656 0.734375 44.1875 -0.34375
Q39.1094 -1.42188 33.8906 -1.42188
Q20.7969 -1.42188 13.1562 6.1875
Q5.51562 13.8125 5.51562 26.8125
Q5.51562 40.2344 12.7656 48.1094
Q20.0156 56 32.3281 56
Q43.3594 56 49.7812 48.8906
Q56.2031 41.7969 56.2031 29.5938
M47.2188 32.2344
Q47.125 39.5938 43.0938 43.9844
Q39.0625 48.3906 32.4219 48.3906
Q24.9062 48.3906 20.3906 44.1406
Q15.875 39.8906 15.1875 32.1719
z
" id="BitstreamVeraSans-Roman-65"/>
      <path d="
M45.4062 46.3906
L45.4062 75.9844
L54.3906 75.9844
L54.3906 0
L45.4062 0
L45.4062 8.20312
Q42.5781 3.32812 38.25 0.953125
Q33.9375 -1.42188 27.875 -1.42188
Q17.9688 -1.42188 11.7344 6.48438
Q5.51562 14.4062 5.51562 27.2969
Q5.51562 40.1875 11.7344 48.0938
Q17.9688 56 27.875 56
Q33.9375 56 38.25 53.625
Q42.5781 51.2656 45.4062 46.3906
M14.7969 27.2969
Q14.7969 17.3906 18.875 11.75
Q22.9531 6.10938 30.0781 6.10938
Q37.2031 6.10938 41.2969 11.75
Q45.4062 17.3906 45.4062 27.2969
Q45.4062 37.2031 41.2969 42.8438
Q37.2031 48.4844 30.0781 48.4844
Q22.9531 48.4844 18.875 42.8438
Q14.7969 37.2031 14.7969 27.2969" id="BitstreamVeraSans-Roman-64"/>
      <path d="
M41.1094 46.2969
Q39.5938 47.1719 37.8125 47.5781
Q36.0312 48 33.8906 48
Q26.2656 48 22.1875 43.0469
Q18.1094 38.0938 18.1094 28.8125
L18.1094 0
L9.07812 0
L9.07812 54.6875
L18.1094 54.6875
L18.1094 46.1875
Q20.9531 51.1719 25.4844 53.5781
Q30.0312 56 36.5312 56
Q37.4531 56 38.5781 55.875
Q39.7031 55.7656 41.0625 55.5156
z
" id="BitstreamVeraSans-Roman-72"/>
      <path d="
M48.7812 52.5938
L48.7812 44.1875
Q44.9688 46.2969 41.1406 47.3438
Q37.3125 48.3906 33.4062 48.3906
Q24.6562 48.3906 19.8125 42.8438
Q14.9844 37.3125 14.9844 27.2969
Q14.9844 17.2812 19.8125 11.7344
Q24.6562 6.20312 33.4062 6.20312
Q37.3125 6.20312 41.1406 7.25
Q44.9688 8.29688 48.7812 10.4062
L48.7812 2.09375
Q45.0156 0.34375 40.9844 -0.53125
Q36.9688 -1.42188 32.4219 -1.42188
Q20.0625 -1.42188 12.7812 6.34375
Q5.51562 14.1094 5.51562 27.2969
Q5.51562 40.6719 12.8594 48.3281
Q20.2188 56 33.0156 56
Q37.1562 56 41.1094 55.1406
Q45.0625 54.2969 48.7812 52.5938" id="BitstreamVeraSans-Roman-63"/>
     </defs>
     <g transform="translate(41.96625 295.884375)rotate(-90.0)scale(0.24 -0.24)">
      <use xlink:href="#BitstreamVeraSans-Roman-44"/>
      <use x="77.001953125" xlink:href="#BitstreamVeraSans-Roman-65"/>
      <use x="138.525390625" xlink:href="#BitstreamVeraSans-Roman-63"/>
      <use x="193.505859375" xlink:href="#BitstreamVeraSans-Roman-6f"/>
      <use x="254.6875" xlink:href="#BitstreamVeraSans-Roman-64"/>
      <use x="318.1640625" xlink:href="#BitstreamVeraSans-Roman-65"/>
      <use x="379.6875" xlink:href="#BitstreamVeraSans-Roman-72"/>
      <use x="420.80078125" xlink:href="#BitstreamVeraSans-Roman-20"/>
      <use x="452.587890625" xlink:href="#BitstreamVeraSans-Roman-52"/>
      <use x="522.0703125" xlink:href="#BitstreamVeraSans-Roman-32"/>
     </g>
    </g>
   </g>
   <g id="legend_1">
    <g id="patch_64">
     <path d="
M1365.09 125.256
L1629.84 125.256
L1629.84 34.8
L1365.09 34.8
z
" style="fill:#ffffff;stroke:#000000;stroke-linejoin:miter;"/>
    </g>
    <g id="patch_65">
     <path d="
M1372.77 57.069
L1411.17 57.069
L1411.17 43.629
L1372.77 43.629
z
" style="fill:#e90027;stroke:#e90027;stroke-linejoin:miter;"/>
    </g>
    <g id="text_28">
     <!-- Spike Rate -->
     <defs>
      <path d="
M25.875 7.90625
L25.875 -20.7969
L8.40625 -20.7969
L8.40625 54.6875
L25.875 54.6875
L25.875 46.6875
Q29.5 51.4688 33.8906 53.7344
Q38.2812 56 44 56
Q54.1094 56 60.5938 47.9688
Q67.0938 39.9375 67.0938 27.2969
Q67.0938 14.6562 60.5938 6.60938
Q54.1094 -1.42188 44 -1.42188
Q38.2812 -1.42188 33.8906 0.84375
Q29.5 3.125 25.875 7.90625
M37.5 43.3125
Q31.8906 43.3125 28.875 39.1875
Q25.875 35.0625 25.875 27.2969
Q25.875 19.5312 28.875 15.4062
Q31.8906 11.2812 37.5 11.2812
Q43.1094 11.2812 46.0625 15.375
Q49.0312 19.4844 49.0312 27.2969
Q49.0312 35.1094 46.0625 39.2031
Q43.1094 43.3125 37.5 43.3125" id="BitstreamVeraSans-Bold-70"/>
      <path d="
M35.8906 40.5781
Q41.7969 40.5781 44.3594 42.7656
Q46.9219 44.9688 46.9219 50
Q46.9219 54.9844 44.3594 57.125
Q41.7969 59.2812 35.8906 59.2812
L27.9844 59.2812
L27.9844 40.5781
z

M27.9844 27.5938
L27.9844 0
L9.1875 0
L9.1875 72.9062
L37.8906 72.9062
Q52.2969 72.9062 59 68.0625
Q65.7188 63.2344 65.7188 52.7812
Q65.7188 45.5625 62.2188 40.9219
Q58.7344 36.2812 51.7031 34.0781
Q55.5625 33.2031 58.6094 30.0938
Q61.6719 27 64.7969 20.7031
L75 0
L54.9844 0
L46.0938 18.1094
Q43.4062 23.5781 40.6406 25.5781
Q37.8906 27.5938 33.2969 27.5938
z
" id="BitstreamVeraSans-Bold-52"/>
     </defs>
     <g transform="translate(1426.53 57.069)scale(0.192 -0.192)">
      <use xlink:href="#BitstreamVeraSans-Bold-53"/>
      <use x="72.021484375" xlink:href="#BitstreamVeraSans-Bold-70"/>
      <use x="143.603515625" xlink:href="#BitstreamVeraSans-Bold-69"/>
      <use x="177.880859375" xlink:href="#BitstreamVeraSans-Bold-6b"/>
      <use x="241.759765625" xlink:href="#BitstreamVeraSans-Bold-65"/>
      <use x="309.58203125" xlink:href="#BitstreamVeraSans-Bold-20"/>
      <use x="344.396484375" xlink:href="#BitstreamVeraSans-Bold-52"/>
      <use x="421.3984375" xlink:href="#BitstreamVeraSans-Bold-61"/>
      <use x="488.87890625" xlink:href="#BitstreamVeraSans-Bold-74"/>
      <use x="536.681640625" xlink:href="#BitstreamVeraSans-Bold-65"/>
     </g>
    </g>
    <g id="patch_66">
     <path d="
M1372.77 85.251
L1411.17 85.251
L1411.17 71.811
L1372.77 71.811
z
" style="fill:#0068a5;stroke:#0068a5;stroke-linejoin:miter;"/>
    </g>
    <g id="text_29">
     <!-- LFP PSD -->
     <defs>
      <path d="
M9.1875 72.9062
L27.9844 72.9062
L27.9844 14.2031
L60.9844 14.2031
L60.9844 0
L9.1875 0
z
" id="BitstreamVeraSans-Bold-4c"/>
      <path d="
M27.9844 58.6875
L27.9844 14.2031
L34.7188 14.2031
Q46.2344 14.2031 52.3125 19.9219
Q58.4062 25.6406 58.4062 36.5312
Q58.4062 47.3594 52.3438 53.0156
Q46.2969 58.6875 34.7188 58.6875
z

M9.1875 72.9062
L29 72.9062
Q45.6094 72.9062 53.7344 70.5312
Q61.8594 68.1719 67.6719 62.5
Q72.7969 57.5625 75.2812 51.1094
Q77.7812 44.6719 77.7812 36.5312
Q77.7812 28.2656 75.2812 21.7969
Q72.7969 15.3281 67.6719 10.4062
Q61.8125 4.73438 53.6094 2.35938
Q45.4062 0 29 0
L9.1875 0
z
" id="BitstreamVeraSans-Bold-44"/>
     </defs>
     <g transform="translate(1426.53 85.251)scale(0.192 -0.192)">
      <use xlink:href="#BitstreamVeraSans-Bold-4c"/>
      <use x="63.720703125" xlink:href="#BitstreamVeraSans-Bold-46"/>
      <use x="132.03125" xlink:href="#BitstreamVeraSans-Bold-50"/>
      <use x="205.322265625" xlink:href="#BitstreamVeraSans-Bold-20"/>
      <use x="240.13671875" xlink:href="#BitstreamVeraSans-Bold-50"/>
      <use x="313.427734375" xlink:href="#BitstreamVeraSans-Bold-53"/>
      <use x="385.44921875" xlink:href="#BitstreamVeraSans-Bold-44"/>
     </g>
    </g>
    <g id="patch_67">
     <path d="
M1372.77 113.433
L1411.17 113.433
L1411.17 99.993
L1372.77 99.993
z
" style="fill:#610b0b;stroke:#610b0b;stroke-linejoin:miter;"/>
    </g>
    <g id="text_30">
     <!-- Spike Rate + Sync -->
     <defs>
      <path d="
M47.7031 62.7031
L47.7031 37.1094
L73.1875 37.1094
L73.1875 25.5938
L47.7031 25.5938
L47.7031 0
L36.0781 0
L36.0781 25.5938
L10.5938 25.5938
L10.5938 37.1094
L36.0781 37.1094
L36.0781 62.7031
z
" id="BitstreamVeraSans-Bold-2b"/>
     </defs>
     <g transform="translate(1426.53 113.433)scale(0.192 -0.192)">
      <use xlink:href="#BitstreamVeraSans-Bold-53"/>
      <use x="72.021484375" xlink:href="#BitstreamVeraSans-Bold-70"/>
      <use x="143.603515625" xlink:href="#BitstreamVeraSans-Bold-69"/>
      <use x="177.880859375" xlink:href="#BitstreamVeraSans-Bold-6b"/>
      <use x="241.759765625" xlink:href="#BitstreamVeraSans-Bold-65"/>
      <use x="309.58203125" xlink:href="#BitstreamVeraSans-Bold-20"/>
      <use x="344.396484375" xlink:href="#BitstreamVeraSans-Bold-52"/>
      <use x="421.3984375" xlink:href="#BitstreamVeraSans-Bold-61"/>
      <use x="488.87890625" xlink:href="#BitstreamVeraSans-Bold-74"/>
      <use x="536.681640625" xlink:href="#BitstreamVeraSans-Bold-65"/>
      <use x="604.50390625" xlink:href="#BitstreamVeraSans-Bold-20"/>
      <use x="639.318359375" xlink:href="#BitstreamVeraSans-Bold-2b"/>
      <use x="723.107421875" xlink:href="#BitstreamVeraSans-Bold-20"/>
      <use x="757.921875" xlink:href="#BitstreamVeraSans-Bold-53"/>
      <use x="829.943359375" xlink:href="#BitstreamVeraSans-Bold-79"/>
      <use x="895.12890625" xlink:href="#BitstreamVeraSans-Bold-6e"/>
      <use x="966.3203125" xlink:href="#BitstreamVeraSans-Bold-63"/>
     </g>
    </g>
   </g>
  </g>
 </g>
 <defs>
  <clipPath id="p882b81455c">
   <rect height="403.2" width="1556.64" x="82.8" y="25.2"/>
  </clipPath>
 </defs>
</svg>
