<?xml version="1.0" encoding="utf-8" standalone="no"?>
<!DOCTYPE svg PUBLIC "-//W3C//DTD SVG 1.1//EN"
  "http://www.w3.org/Graphics/SVG/1.1/DTD/svg11.dtd">
<!-- Created with matplotlib (http://matplotlib.org/) -->
<svg height="576pt" version="1.1" viewBox="0 0 1152 576" width="1152pt" xmlns="http://www.w3.org/2000/svg" xmlns:xlink="http://www.w3.org/1999/xlink">
 <defs>
  <style type="text/css">
*{stroke-linecap:butt;stroke-linejoin:round;}
  </style>
 </defs>
 <g id="figure_1">
  <g id="patch_1">
   <path d="
M0 576
L1152 576
L1152 0
L0 0
z
" style="fill:#ffffff;"/>
  </g>
  <g id="axes_1">
   <g id="patch_2">
    <path d="
M144 518.4
L1036.8 518.4
L1036.8 57.6
L144 57.6
z
" style="fill:#ffffff;"/>
   </g>
   <g id="patch_3">
    <path clip-path="url(#p73c6fe5791)" d="
M181.2 352.078
L255.6 352.078
L255.6 307.238
L181.2 307.238
z
" style="fill:#663333;stroke:#000000;stroke-linejoin:miter;"/>
   </g>
   <g id="patch_4">
    <path clip-path="url(#p73c6fe5791)" d="
M330 346.587
L404.4 346.587
L404.4 305.899
L330 305.899
z
" style="fill:#663333;stroke:#000000;stroke-linejoin:miter;"/>
   </g>
   <g id="patch_5">
    <path clip-path="url(#p73c6fe5791)" d="
M478.8 338.076
L553.2 338.076
L553.2 303.108
L478.8 303.108
z
" style="fill:#663333;stroke:#000000;stroke-linejoin:miter;"/>
   </g>
   <g id="patch_6">
    <path clip-path="url(#p73c6fe5791)" d="
M627.6 322.213
L702 322.213
L702 277.346
L627.6 277.346
z
" style="fill:#663333;stroke:#000000;stroke-linejoin:miter;"/>
   </g>
   <g id="patch_7">
    <path clip-path="url(#p73c6fe5791)" d="
M776.4 316.275
L850.8 316.275
L850.8 290.962
L776.4 290.962
z
" style="fill:#663333;stroke:#000000;stroke-linejoin:miter;"/>
   </g>
   <g id="patch_8">
    <path clip-path="url(#p73c6fe5791)" d="
M925.2 319.966
L999.6 319.966
L999.6 264.767
L925.2 264.767
z
" style="fill:#663333;stroke:#000000;stroke-linejoin:miter;"/>
   </g>
   <g id="line2d_1">
    <path clip-path="url(#p73c6fe5791)" d="
M181.2 352.078
L255.6 352.078
L255.6 307.238
L181.2 307.238
L181.2 352.078" style="fill:none;"/>
   </g>
   <g id="line2d_2">
    <path clip-path="url(#p73c6fe5791)" d="
M218.4 352.078
L218.4 400.834" style="fill:none;stroke:#000000;stroke-dasharray:6.000000,6.000000;stroke-dashoffset:0.0;stroke-width:3.0;"/>
   </g>
   <g id="line2d_3">
    <path clip-path="url(#p73c6fe5791)" d="
M218.4 307.238
L218.4 252.508" style="fill:none;stroke:#000000;stroke-dasharray:6.000000,6.000000;stroke-dashoffset:0.0;stroke-width:3.0;"/>
   </g>
   <g id="line2d_4">
    <path clip-path="url(#p73c6fe5791)" d="
M199.8 400.834
L237 400.834" style="fill:none;stroke:#000000;stroke-linecap:square;"/>
   </g>
   <g id="line2d_5">
    <path clip-path="url(#p73c6fe5791)" d="
M199.8 252.508
L237 252.508" style="fill:none;stroke:#000000;stroke-linecap:square;"/>
   </g>
   <g id="line2d_6">
    <path clip-path="url(#p73c6fe5791)" d="
M181.2 328.215
L255.6 328.215" style="fill:none;stroke:#ff0000;stroke-linecap:square;"/>
   </g>
   <g id="line2d_7"/>
   <g id="line2d_8">
    <path clip-path="url(#p73c6fe5791)" d="
M330 346.587
L404.4 346.587
L404.4 305.899
L330 305.899
L330 346.587" style="fill:none;"/>
   </g>
   <g id="line2d_9">
    <path clip-path="url(#p73c6fe5791)" d="
M367.2 346.587
L367.2 367.964" style="fill:none;stroke:#000000;stroke-dasharray:6.000000,6.000000;stroke-dashoffset:0.0;stroke-width:3.0;"/>
   </g>
   <g id="line2d_10">
    <path clip-path="url(#p73c6fe5791)" d="
M367.2 305.899
L367.2 251.949" style="fill:none;stroke:#000000;stroke-dasharray:6.000000,6.000000;stroke-dashoffset:0.0;stroke-width:3.0;"/>
   </g>
   <g id="line2d_11">
    <path clip-path="url(#p73c6fe5791)" d="
M348.6 367.964
L385.8 367.964" style="fill:none;stroke:#000000;stroke-linecap:square;"/>
   </g>
   <g id="line2d_12">
    <path clip-path="url(#p73c6fe5791)" d="
M348.6 251.949
L385.8 251.949" style="fill:none;stroke:#000000;stroke-linecap:square;"/>
   </g>
   <g id="line2d_13">
    <path clip-path="url(#p73c6fe5791)" d="
M330 321.809
L404.4 321.809" style="fill:none;stroke:#ff0000;stroke-linecap:square;"/>
   </g>
   <g id="line2d_14">
    <defs>
     <path d="
M-3 0
L3 0
M0 3
L0 -3" id="md4acab13e0" style="stroke:#0000ff;stroke-width:0.5;"/>
    </defs>
    <g clip-path="url(#p73c6fe5791)">
     <use style="fill:#0000ff;stroke:#0000ff;stroke-width:0.5;" x="367.2" xlink:href="#md4acab13e0" y="231.662998822"/>
     <use style="fill:#0000ff;stroke:#0000ff;stroke-width:0.5;" x="367.2" xlink:href="#md4acab13e0" y="238.649500093"/>
    </g>
   </g>
   <g id="line2d_15">
    <path clip-path="url(#p73c6fe5791)" d="
M478.8 338.076
L553.2 338.076
L553.2 303.108
L478.8 303.108
L478.8 338.076" style="fill:none;"/>
   </g>
   <g id="line2d_16">
    <path clip-path="url(#p73c6fe5791)" d="
M516 338.076
L516 385.668" style="fill:none;stroke:#000000;stroke-dasharray:6.000000,6.000000;stroke-dashoffset:0.0;stroke-width:3.0;"/>
   </g>
   <g id="line2d_17">
    <path clip-path="url(#p73c6fe5791)" d="
M516 303.108
L516 257.355" style="fill:none;stroke:#000000;stroke-dasharray:6.000000,6.000000;stroke-dashoffset:0.0;stroke-width:3.0;"/>
   </g>
   <g id="line2d_18">
    <path clip-path="url(#p73c6fe5791)" d="
M497.4 385.668
L534.6 385.668" style="fill:none;stroke:#000000;stroke-linecap:square;"/>
   </g>
   <g id="line2d_19">
    <path clip-path="url(#p73c6fe5791)" d="
M497.4 257.355
L534.6 257.355" style="fill:none;stroke:#000000;stroke-linecap:square;"/>
   </g>
   <g id="line2d_20">
    <path clip-path="url(#p73c6fe5791)" d="
M478.8 320.917
L553.2 320.917" style="fill:none;stroke:#ff0000;stroke-linecap:square;"/>
   </g>
   <g id="line2d_21">
    <g clip-path="url(#p73c6fe5791)">
     <use style="fill:#0000ff;stroke:#0000ff;stroke-width:0.5;" x="516.0" xlink:href="#md4acab13e0" y="392.946407454"/>
     <use style="fill:#0000ff;stroke:#0000ff;stroke-width:0.5;" x="516.0" xlink:href="#md4acab13e0" y="406.667490814"/>
     <use style="fill:#0000ff;stroke:#0000ff;stroke-width:0.5;" x="516.0" xlink:href="#md4acab13e0" y="432.131341335"/>
     <use style="fill:#0000ff;stroke:#0000ff;stroke-width:0.5;" x="516.0" xlink:href="#md4acab13e0" y="411.789390123"/>
     <use style="fill:#0000ff;stroke:#0000ff;stroke-width:0.5;" x="516.0" xlink:href="#md4acab13e0" y="424.063158454"/>
     <use style="fill:#0000ff;stroke:#0000ff;stroke-width:0.5;" x="516.0" xlink:href="#md4acab13e0" y="411.504938686"/>
     <use style="fill:#0000ff;stroke:#0000ff;stroke-width:0.5;" x="516.0" xlink:href="#md4acab13e0" y="423.148082871"/>
     <use style="fill:#0000ff;stroke:#0000ff;stroke-width:0.5;" x="516.0" xlink:href="#md4acab13e0" y="420.19014078"/>
     <use style="fill:#0000ff;stroke:#0000ff;stroke-width:0.5;" x="516.0" xlink:href="#md4acab13e0" y="422.360192821"/>
     <use style="fill:#0000ff;stroke:#0000ff;stroke-width:0.5;" x="516.0" xlink:href="#md4acab13e0" y="413.756819468"/>
     <use style="fill:#0000ff;stroke:#0000ff;stroke-width:0.5;" x="516.0" xlink:href="#md4acab13e0" y="397.729685984"/>
     <use style="fill:#0000ff;stroke:#0000ff;stroke-width:0.5;" x="516.0" xlink:href="#md4acab13e0" y="414.138464294"/>
     <use style="fill:#0000ff;stroke:#0000ff;stroke-width:0.5;" x="516.0" xlink:href="#md4acab13e0" y="416.990094835"/>
     <use style="fill:#0000ff;stroke:#0000ff;stroke-width:0.5;" x="516.0" xlink:href="#md4acab13e0" y="247.228371757"/>
     <use style="fill:#0000ff;stroke:#0000ff;stroke-width:0.5;" x="516.0" xlink:href="#md4acab13e0" y="220.104533236"/>
     <use style="fill:#0000ff;stroke:#0000ff;stroke-width:0.5;" x="516.0" xlink:href="#md4acab13e0" y="232.081392913"/>
     <use style="fill:#0000ff;stroke:#0000ff;stroke-width:0.5;" x="516.0" xlink:href="#md4acab13e0" y="234.847044822"/>
     <use style="fill:#0000ff;stroke:#0000ff;stroke-width:0.5;" x="516.0" xlink:href="#md4acab13e0" y="233.227319354"/>
     <use style="fill:#0000ff;stroke:#0000ff;stroke-width:0.5;" x="516.0" xlink:href="#md4acab13e0" y="201.681422617"/>
    </g>
   </g>
   <g id="line2d_22">
    <path clip-path="url(#p73c6fe5791)" d="
M627.6 322.213
L702 322.213
L702 277.346
L627.6 277.346
L627.6 322.213" style="fill:none;"/>
   </g>
   <g id="line2d_23">
    <path clip-path="url(#p73c6fe5791)" d="
M664.8 322.213
L664.8 352.162" style="fill:none;stroke:#000000;stroke-dasharray:6.000000,6.000000;stroke-dashoffset:0.0;stroke-width:3.0;"/>
   </g>
   <g id="line2d_24">
    <path clip-path="url(#p73c6fe5791)" d="
M664.8 277.346
L664.8 215.145" style="fill:none;stroke:#000000;stroke-dasharray:6.000000,6.000000;stroke-dashoffset:0.0;stroke-width:3.0;"/>
   </g>
   <g id="line2d_25">
    <path clip-path="url(#p73c6fe5791)" d="
M646.2 352.162
L683.4 352.162" style="fill:none;stroke:#000000;stroke-linecap:square;"/>
   </g>
   <g id="line2d_26">
    <path clip-path="url(#p73c6fe5791)" d="
M646.2 215.145
L683.4 215.145" style="fill:none;stroke:#000000;stroke-linecap:square;"/>
   </g>
   <g id="line2d_27">
    <path clip-path="url(#p73c6fe5791)" d="
M627.6 305.672
L702 305.672" style="fill:none;stroke:#ff0000;stroke-linecap:square;"/>
   </g>
   <g id="line2d_28"/>
   <g id="line2d_29">
    <path clip-path="url(#p73c6fe5791)" d="
M776.4 316.275
L850.8 316.275
L850.8 290.962
L776.4 290.962
L776.4 316.275" style="fill:none;"/>
   </g>
   <g id="line2d_30">
    <path clip-path="url(#p73c6fe5791)" d="
M813.6 316.275
L813.6 352.136" style="fill:none;stroke:#000000;stroke-dasharray:6.000000,6.000000;stroke-dashoffset:0.0;stroke-width:3.0;"/>
   </g>
   <g id="line2d_31">
    <path clip-path="url(#p73c6fe5791)" d="
M813.6 290.962
L813.6 270.429" style="fill:none;stroke:#000000;stroke-dasharray:6.000000,6.000000;stroke-dashoffset:0.0;stroke-width:3.0;"/>
   </g>
   <g id="line2d_32">
    <path clip-path="url(#p73c6fe5791)" d="
M795 352.136
L832.2 352.136" style="fill:none;stroke:#000000;stroke-linecap:square;"/>
   </g>
   <g id="line2d_33">
    <path clip-path="url(#p73c6fe5791)" d="
M795 270.429
L832.2 270.429" style="fill:none;stroke:#000000;stroke-linecap:square;"/>
   </g>
   <g id="line2d_34">
    <path clip-path="url(#p73c6fe5791)" d="
M776.4 304.029
L850.8 304.029" style="fill:none;stroke:#ff0000;stroke-linecap:square;"/>
   </g>
   <g id="line2d_35">
    <g clip-path="url(#p73c6fe5791)">
     <use style="fill:#0000ff;stroke:#0000ff;stroke-width:0.5;" x="813.6" xlink:href="#md4acab13e0" y="219.573201408"/>
     <use style="fill:#0000ff;stroke:#0000ff;stroke-width:0.5;" x="813.6" xlink:href="#md4acab13e0" y="252.829519322"/>
     <use style="fill:#0000ff;stroke:#0000ff;stroke-width:0.5;" x="813.6" xlink:href="#md4acab13e0" y="229.112785241"/>
     <use style="fill:#0000ff;stroke:#0000ff;stroke-width:0.5;" x="813.6" xlink:href="#md4acab13e0" y="221.376732296"/>
    </g>
   </g>
   <g id="line2d_36">
    <path clip-path="url(#p73c6fe5791)" d="
M925.2 319.966
L999.6 319.966
L999.6 264.767
L925.2 264.767
L925.2 319.966" style="fill:none;"/>
   </g>
   <g id="line2d_37">
    <path clip-path="url(#p73c6fe5791)" d="
M962.4 319.966
L962.4 365.316" style="fill:none;stroke:#000000;stroke-dasharray:6.000000,6.000000;stroke-dashoffset:0.0;stroke-width:3.0;"/>
   </g>
   <g id="line2d_38">
    <path clip-path="url(#p73c6fe5791)" d="
M962.4 264.767
L962.4 218.21" style="fill:none;stroke:#000000;stroke-dasharray:6.000000,6.000000;stroke-dashoffset:0.0;stroke-width:3.0;"/>
   </g>
   <g id="line2d_39">
    <path clip-path="url(#p73c6fe5791)" d="
M943.8 365.316
L981 365.316" style="fill:none;stroke:#000000;stroke-linecap:square;"/>
   </g>
   <g id="line2d_40">
    <path clip-path="url(#p73c6fe5791)" d="
M943.8 218.21
L981 218.21" style="fill:none;stroke:#000000;stroke-linecap:square;"/>
   </g>
   <g id="line2d_41">
    <path clip-path="url(#p73c6fe5791)" d="
M925.2 303.152
L999.6 303.152" style="fill:none;stroke:#ff0000;stroke-linecap:square;"/>
   </g>
   <g id="line2d_42"/>
   <g id="line2d_43">
    <path clip-path="url(#p73c6fe5791)" d="
M181.2 328.215" style="fill:none;stroke:#000000;stroke-linecap:square;stroke-width:3.0;"/>
   </g>
   <g id="line2d_44">
    <path clip-path="url(#p73c6fe5791)" d="
M181.2 328.215
L255.6 328.215" style="fill:none;stroke:#000000;stroke-linecap:square;stroke-width:3.0;"/>
   </g>
   <g id="line2d_45">
    <path clip-path="url(#p73c6fe5791)" d="
M218.4 328.215" style="fill:none;stroke:#ffffff;stroke-linecap:square;"/>
    <defs>
     <path d="
M4.59243e-16 -7.5
L-1.68385 -2.31763
L-7.13292 -2.31763
L-2.72453 0.885255
L-4.40839 6.06763
L-5.26245e-16 2.86475
L4.40839 6.06763
L2.72453 0.885255
L7.13292 -2.31763
L1.68385 -2.31763
z
" id="mc370e10c12" style="stroke:#000000;stroke-linejoin:bevel;stroke-width:0.5;"/>
    </defs>
    <g clip-path="url(#p73c6fe5791)">
     <use style="fill:#ffffff;stroke:#000000;stroke-linejoin:bevel;stroke-width:0.5;" x="218.4" xlink:href="#mc370e10c12" y="328.21518674"/>
    </g>
   </g>
   <g id="line2d_46">
    <path clip-path="url(#p73c6fe5791)" d="
M330 321.809" style="fill:none;stroke:#000000;stroke-linecap:square;stroke-width:3.0;"/>
   </g>
   <g id="line2d_47">
    <path clip-path="url(#p73c6fe5791)" d="
M330 321.809
L404.4 321.809" style="fill:none;stroke:#000000;stroke-linecap:square;stroke-width:3.0;"/>
   </g>
   <g id="line2d_48">
    <path clip-path="url(#p73c6fe5791)" d="
M367.2 321.809" style="fill:none;stroke:#ffffff;stroke-linecap:square;"/>
    <g clip-path="url(#p73c6fe5791)">
     <use style="fill:#ffffff;stroke:#000000;stroke-linejoin:bevel;stroke-width:0.5;" x="367.2" xlink:href="#mc370e10c12" y="321.80933636"/>
    </g>
   </g>
   <g id="line2d_49">
    <path clip-path="url(#p73c6fe5791)" d="
M478.8 320.917" style="fill:none;stroke:#000000;stroke-linecap:square;stroke-width:3.0;"/>
   </g>
   <g id="line2d_50">
    <path clip-path="url(#p73c6fe5791)" d="
M478.8 320.917
L553.2 320.917" style="fill:none;stroke:#000000;stroke-linecap:square;stroke-width:3.0;"/>
   </g>
   <g id="line2d_51">
    <path clip-path="url(#p73c6fe5791)" d="
M516 320.917" style="fill:none;stroke:#ffffff;stroke-linecap:square;"/>
    <g clip-path="url(#p73c6fe5791)">
     <use style="fill:#ffffff;stroke:#000000;stroke-linejoin:bevel;stroke-width:0.5;" x="516.0" xlink:href="#mc370e10c12" y="320.916763515"/>
    </g>
   </g>
   <g id="line2d_52">
    <path clip-path="url(#p73c6fe5791)" d="
M627.6 305.672" style="fill:none;stroke:#000000;stroke-linecap:square;stroke-width:3.0;"/>
   </g>
   <g id="line2d_53">
    <path clip-path="url(#p73c6fe5791)" d="
M627.6 305.672
L702 305.672" style="fill:none;stroke:#000000;stroke-linecap:square;stroke-width:3.0;"/>
   </g>
   <g id="line2d_54">
    <path clip-path="url(#p73c6fe5791)" d="
M664.8 305.672" style="fill:none;stroke:#ffffff;stroke-linecap:square;"/>
    <g clip-path="url(#p73c6fe5791)">
     <use style="fill:#ffffff;stroke:#000000;stroke-linejoin:bevel;stroke-width:0.5;" x="664.8" xlink:href="#mc370e10c12" y="305.672205997"/>
    </g>
   </g>
   <g id="line2d_55">
    <path clip-path="url(#p73c6fe5791)" d="
M776.4 304.029" style="fill:none;stroke:#000000;stroke-linecap:square;stroke-width:3.0;"/>
   </g>
   <g id="line2d_56">
    <path clip-path="url(#p73c6fe5791)" d="
M776.4 304.029
L850.8 304.029" style="fill:none;stroke:#000000;stroke-linecap:square;stroke-width:3.0;"/>
   </g>
   <g id="line2d_57">
    <path clip-path="url(#p73c6fe5791)" d="
M813.6 304.029" style="fill:none;stroke:#ffffff;stroke-linecap:square;"/>
    <g clip-path="url(#p73c6fe5791)">
     <use style="fill:#ffffff;stroke:#000000;stroke-linejoin:bevel;stroke-width:0.5;" x="813.6" xlink:href="#mc370e10c12" y="304.028524309"/>
    </g>
   </g>
   <g id="line2d_58">
    <path clip-path="url(#p73c6fe5791)" d="
M925.2 303.152" style="fill:none;stroke:#000000;stroke-linecap:square;stroke-width:3.0;"/>
   </g>
   <g id="line2d_59">
    <path clip-path="url(#p73c6fe5791)" d="
M925.2 303.152
L999.6 303.152" style="fill:none;stroke:#000000;stroke-linecap:square;stroke-width:3.0;"/>
   </g>
   <g id="line2d_60">
    <path clip-path="url(#p73c6fe5791)" d="
M962.4 303.152" style="fill:none;stroke:#ffffff;stroke-linecap:square;"/>
    <g clip-path="url(#p73c6fe5791)">
     <use style="fill:#ffffff;stroke:#000000;stroke-linejoin:bevel;stroke-width:0.5;" x="962.4" xlink:href="#mc370e10c12" y="303.151674445"/>
    </g>
   </g>
   <g id="patch_9">
    <path d="
M144 57.6
L1036.8 57.6" style="fill:none;stroke:#000000;stroke-linecap:square;stroke-linejoin:miter;"/>
   </g>
   <g id="patch_10">
    <path d="
M1036.8 518.4
L1036.8 57.6" style="fill:none;stroke:#000000;stroke-linecap:square;stroke-linejoin:miter;"/>
   </g>
   <g id="patch_11">
    <path d="
M144 518.4
L1036.8 518.4" style="fill:none;stroke:#000000;stroke-linecap:square;stroke-linejoin:miter;"/>
   </g>
   <g id="patch_12">
    <path d="
M144 518.4
L144 57.6" style="fill:none;stroke:#000000;stroke-linecap:square;stroke-linejoin:miter;"/>
   </g>
   <g id="matplotlib.axis_1">
    <g id="xtick_1">
     <g id="line2d_61">
      <defs>
       <path d="
M0 0
L0 -4" id="m93b0483c22" style="stroke:#000000;stroke-width:0.5;"/>
      </defs>
      <g>
       <use style="stroke:#000000;stroke-width:0.5;" x="218.4" xlink:href="#m93b0483c22" y="518.4"/>
      </g>
     </g>
     <g id="line2d_62">
      <defs>
       <path d="
M0 0
L0 4" id="m741efc42ff" style="stroke:#000000;stroke-width:0.5;"/>
      </defs>
      <g>
       <use style="stroke:#000000;stroke-width:0.5;" x="218.4" xlink:href="#m741efc42ff" y="57.6"/>
      </g>
     </g>
     <g id="text_1">
      <!-- CML -->
      <defs>
       <path d="
M67 4
Q61.8125 1.3125 56.2031 -0.046875
Q50.5938 -1.42188 44.4844 -1.42188
Q26.2656 -1.42188 15.625 8.76562
Q4.98438 18.9531 4.98438 36.375
Q4.98438 53.8594 15.625 64.0312
Q26.2656 74.2188 44.4844 74.2188
Q50.5938 74.2188 56.2031 72.8438
Q61.8125 71.4844 67 68.7969
L67 53.7188
Q61.7656 57.2812 56.6875 58.9375
Q51.6094 60.5938 46 60.5938
Q35.9375 60.5938 30.1719 54.1406
Q24.4219 47.7031 24.4219 36.375
Q24.4219 25.0938 30.1719 18.6406
Q35.9375 12.2031 46 12.2031
Q51.6094 12.2031 56.6875 13.8594
Q61.7656 15.5312 67 19.0938
z
" id="BitstreamVeraSans-Bold-43"/>
       <path d="
M9.1875 72.9062
L33.1094 72.9062
L49.7031 33.8906
L66.4062 72.9062
L90.2812 72.9062
L90.2812 0
L72.5156 0
L72.5156 53.3281
L55.7188 14.0156
L43.7969 14.0156
L27 53.3281
L27 0
L9.1875 0
z
" id="BitstreamVeraSans-Bold-4d"/>
       <path d="
M9.1875 72.9062
L27.9844 72.9062
L27.9844 14.2031
L60.9844 14.2031
L60.9844 0
L9.1875 0
z
" id="BitstreamVeraSans-Bold-4c"/>
      </defs>
      <g transform="translate(193.2203125 539.1165625)scale(0.22 -0.22)">
       <use xlink:href="#BitstreamVeraSans-Bold-43"/>
       <use x="73.388671875" xlink:href="#BitstreamVeraSans-Bold-4d"/>
       <use x="172.900390625" xlink:href="#BitstreamVeraSans-Bold-4c"/>
      </g>
     </g>
    </g>
    <g id="xtick_2">
     <g id="line2d_63">
      <g>
       <use style="stroke:#000000;stroke-width:0.5;" x="367.2" xlink:href="#m93b0483c22" y="518.4"/>
      </g>
     </g>
     <g id="line2d_64">
      <g>
       <use style="stroke:#000000;stroke-width:0.5;" x="367.2" xlink:href="#m741efc42ff" y="57.6"/>
      </g>
     </g>
     <g id="text_2">
      <!-- CMM -->
      <g transform="translate(338.79765625 539.1165625)scale(0.22 -0.22)">
       <use xlink:href="#BitstreamVeraSans-Bold-43"/>
       <use x="73.388671875" xlink:href="#BitstreamVeraSans-Bold-4d"/>
       <use x="172.900390625" xlink:href="#BitstreamVeraSans-Bold-4d"/>
      </g>
     </g>
    </g>
    <g id="xtick_3">
     <g id="line2d_65">
      <g>
       <use style="stroke:#000000;stroke-width:0.5;" x="516.0" xlink:href="#m93b0483c22" y="518.4"/>
      </g>
     </g>
     <g id="line2d_66">
      <g>
       <use style="stroke:#000000;stroke-width:0.5;" x="516.0" xlink:href="#m741efc42ff" y="57.6"/>
      </g>
     </g>
     <g id="text_3">
      <!-- NCM -->
      <defs>
       <path d="
M9.1875 72.9062
L30.1719 72.9062
L56.6875 22.9062
L56.6875 72.9062
L74.5156 72.9062
L74.5156 0
L53.5156 0
L27 50
L27 0
L9.1875 0
z
" id="BitstreamVeraSans-Bold-4e"/>
      </defs>
      <g transform="translate(489.80109375 539.1165625)scale(0.22 -0.22)">
       <use xlink:href="#BitstreamVeraSans-Bold-4e"/>
       <use x="83.69140625" xlink:href="#BitstreamVeraSans-Bold-43"/>
       <use x="157.080078125" xlink:href="#BitstreamVeraSans-Bold-4d"/>
      </g>
     </g>
    </g>
    <g id="xtick_4">
     <g id="line2d_67">
      <g>
       <use style="stroke:#000000;stroke-width:0.5;" x="664.8" xlink:href="#m93b0483c22" y="518.4"/>
      </g>
     </g>
     <g id="line2d_68">
      <g>
       <use style="stroke:#000000;stroke-width:0.5;" x="664.8" xlink:href="#m741efc42ff" y="57.6"/>
      </g>
     </g>
     <g id="text_4">
      <!-- L1 -->
      <defs>
       <path d="
M11.7188 12.9844
L28.3281 12.9844
L28.3281 60.1094
L11.2812 56.5938
L11.2812 69.3906
L28.2188 72.9062
L46.0938 72.9062
L46.0938 12.9844
L62.7031 12.9844
L62.7031 0
L11.7188 0
z
" id="BitstreamVeraSans-Bold-31"/>
      </defs>
      <g transform="translate(651.90421875 539.1165625)scale(0.22 -0.22)">
       <use xlink:href="#BitstreamVeraSans-Bold-4c"/>
       <use x="63.720703125" xlink:href="#BitstreamVeraSans-Bold-31"/>
      </g>
     </g>
    </g>
    <g id="xtick_5">
     <g id="line2d_69">
      <g>
       <use style="stroke:#000000;stroke-width:0.5;" x="813.6" xlink:href="#m93b0483c22" y="518.4"/>
      </g>
     </g>
     <g id="line2d_70">
      <g>
       <use style="stroke:#000000;stroke-width:0.5;" x="813.6" xlink:href="#m741efc42ff" y="57.6"/>
      </g>
     </g>
     <g id="text_5">
      <!-- L2 -->
      <defs>
       <path d="
M28.8125 13.8125
L60.8906 13.8125
L60.8906 0
L7.90625 0
L7.90625 13.8125
L34.5156 37.3125
Q38.0938 40.5312 39.7969 43.6094
Q41.5 46.6875 41.5 50
Q41.5 55.125 38.0625 58.25
Q34.625 61.375 28.9062 61.375
Q24.5156 61.375 19.2812 59.5
Q14.0625 57.625 8.10938 53.9062
L8.10938 69.9219
Q14.4531 72.0156 20.6562 73.1094
Q26.8594 74.2188 32.8125 74.2188
Q45.9062 74.2188 53.1562 68.4531
Q60.4062 62.7031 60.4062 52.3906
Q60.4062 46.4375 57.3281 41.2812
Q54.25 36.1406 44.3906 27.4844
z
" id="BitstreamVeraSans-Bold-32"/>
      </defs>
      <g transform="translate(800.90359375 539.1165625)scale(0.22 -0.22)">
       <use xlink:href="#BitstreamVeraSans-Bold-4c"/>
       <use x="63.720703125" xlink:href="#BitstreamVeraSans-Bold-32"/>
      </g>
     </g>
    </g>
    <g id="xtick_6">
     <g id="line2d_71">
      <g>
       <use style="stroke:#000000;stroke-width:0.5;" x="962.4" xlink:href="#m93b0483c22" y="518.4"/>
      </g>
     </g>
     <g id="line2d_72">
      <g>
       <use style="stroke:#000000;stroke-width:0.5;" x="962.4" xlink:href="#m741efc42ff" y="57.6"/>
      </g>
     </g>
     <g id="text_6">
      <!-- L3 -->
      <defs>
       <path d="
M46.5781 39.3125
Q53.9531 37.4062 57.7812 32.6875
Q61.625 27.9844 61.625 20.7031
Q61.625 9.85938 53.3125 4.21875
Q45.0156 -1.42188 29.1094 -1.42188
Q23.4844 -1.42188 17.8438 -0.515625
Q12.2031 0.390625 6.6875 2.20312
L6.6875 16.7031
Q11.9688 14.0625 17.1562 12.7188
Q22.3594 11.375 27.3906 11.375
Q34.8594 11.375 38.8438 13.9531
Q42.8281 16.5469 42.8281 21.3906
Q42.8281 26.375 38.75 28.9375
Q34.6719 31.5 26.7031 31.5
L19.1875 31.5
L19.1875 43.6094
L27.0938 43.6094
Q34.1875 43.6094 37.6406 45.8281
Q41.1094 48.0469 41.1094 52.5938
Q41.1094 56.7812 37.7344 59.0781
Q34.375 61.375 28.2188 61.375
Q23.6875 61.375 19.0469 60.3438
Q14.4062 59.3281 9.8125 57.3281
L9.8125 71.0938
Q15.375 72.6562 20.8438 73.4375
Q26.3125 74.2188 31.5938 74.2188
Q45.7969 74.2188 52.8438 69.5469
Q59.9062 64.8906 59.9062 55.5156
Q59.9062 49.125 56.5312 45.0469
Q53.1719 40.9688 46.5781 39.3125" id="BitstreamVeraSans-Bold-33"/>
      </defs>
      <g transform="translate(949.6228125 539.1165625)scale(0.22 -0.22)">
       <use xlink:href="#BitstreamVeraSans-Bold-4c"/>
       <use x="63.720703125" xlink:href="#BitstreamVeraSans-Bold-33"/>
      </g>
     </g>
    </g>
   </g>
   <g id="matplotlib.axis_2">
    <g id="ytick_1">
     <g id="line2d_73">
      <defs>
       <path d="
M0 0
L4 0" id="m728421d6d4" style="stroke:#000000;stroke-width:0.5;"/>
      </defs>
      <g>
       <use style="stroke:#000000;stroke-width:0.5;" x="144.0" xlink:href="#m728421d6d4" y="518.4"/>
      </g>
     </g>
     <g id="line2d_74">
      <defs>
       <path d="
M0 0
L-4 0" id="mcb0005524f" style="stroke:#000000;stroke-width:0.5;"/>
      </defs>
      <g>
       <use style="stroke:#000000;stroke-width:0.5;" x="1036.8" xlink:href="#mcb0005524f" y="518.4"/>
      </g>
     </g>
     <g id="text_7">
      <!-- 0.0 -->
      <defs>
       <path d="
M10.2031 18.8906
L27.7812 18.8906
L27.7812 0
L10.2031 0
z
" id="BitstreamVeraSans-Bold-2e"/>
       <path d="
M46 36.5312
Q46 50.2031 43.4375 55.7812
Q40.875 61.375 34.8125 61.375
Q28.7656 61.375 26.1719 55.7812
Q23.5781 50.2031 23.5781 36.5312
Q23.5781 22.7031 26.1719 17.0312
Q28.7656 11.375 34.8125 11.375
Q40.8281 11.375 43.4062 17.0312
Q46 22.7031 46 36.5312
M64.7969 36.375
Q64.7969 18.2656 56.9844 8.42188
Q49.1719 -1.42188 34.8125 -1.42188
Q20.4062 -1.42188 12.5938 8.42188
Q4.78125 18.2656 4.78125 36.375
Q4.78125 54.5469 12.5938 64.375
Q20.4062 74.2188 34.8125 74.2188
Q49.1719 74.2188 56.9844 64.375
Q64.7969 54.5469 64.7969 36.375" id="BitstreamVeraSans-Bold-30"/>
      </defs>
      <g transform="translate(103.1328125 524.470625)scale(0.22 -0.22)">
       <use xlink:href="#BitstreamVeraSans-Bold-30"/>
       <use x="69.580078125" xlink:href="#BitstreamVeraSans-Bold-2e"/>
       <use x="107.568359375" xlink:href="#BitstreamVeraSans-Bold-30"/>
      </g>
     </g>
    </g>
    <g id="ytick_2">
     <g id="line2d_75">
      <g>
       <use style="stroke:#000000;stroke-width:0.5;" x="144.0" xlink:href="#m728421d6d4" y="426.24"/>
      </g>
     </g>
     <g id="line2d_76">
      <g>
       <use style="stroke:#000000;stroke-width:0.5;" x="1036.8" xlink:href="#mcb0005524f" y="426.24"/>
      </g>
     </g>
     <g id="text_8">
      <!-- 0.1 -->
      <g transform="translate(103.5934375 432.310625)scale(0.22 -0.22)">
       <use xlink:href="#BitstreamVeraSans-Bold-30"/>
       <use x="69.580078125" xlink:href="#BitstreamVeraSans-Bold-2e"/>
       <use x="107.568359375" xlink:href="#BitstreamVeraSans-Bold-31"/>
      </g>
     </g>
    </g>
    <g id="ytick_3">
     <g id="line2d_77">
      <g>
       <use style="stroke:#000000;stroke-width:0.5;" x="144.0" xlink:href="#m728421d6d4" y="334.08"/>
      </g>
     </g>
     <g id="line2d_78">
      <g>
       <use style="stroke:#000000;stroke-width:0.5;" x="1036.8" xlink:href="#mcb0005524f" y="334.08"/>
      </g>
     </g>
     <g id="text_9">
      <!-- 0.2 -->
      <g transform="translate(103.9921875 340.150625)scale(0.22 -0.22)">
       <use xlink:href="#BitstreamVeraSans-Bold-30"/>
       <use x="69.580078125" xlink:href="#BitstreamVeraSans-Bold-2e"/>
       <use x="107.568359375" xlink:href="#BitstreamVeraSans-Bold-32"/>
      </g>
     </g>
    </g>
    <g id="ytick_4">
     <g id="line2d_79">
      <g>
       <use style="stroke:#000000;stroke-width:0.5;" x="144.0" xlink:href="#m728421d6d4" y="241.92"/>
      </g>
     </g>
     <g id="line2d_80">
      <g>
       <use style="stroke:#000000;stroke-width:0.5;" x="1036.8" xlink:href="#mcb0005524f" y="241.92"/>
      </g>
     </g>
     <g id="text_10">
      <!-- 0.3 -->
      <g transform="translate(103.830625 247.990625)scale(0.22 -0.22)">
       <use xlink:href="#BitstreamVeraSans-Bold-30"/>
       <use x="69.580078125" xlink:href="#BitstreamVeraSans-Bold-2e"/>
       <use x="107.568359375" xlink:href="#BitstreamVeraSans-Bold-33"/>
      </g>
     </g>
    </g>
    <g id="ytick_5">
     <g id="line2d_81">
      <g>
       <use style="stroke:#000000;stroke-width:0.5;" x="144.0" xlink:href="#m728421d6d4" y="149.76"/>
      </g>
     </g>
     <g id="line2d_82">
      <g>
       <use style="stroke:#000000;stroke-width:0.5;" x="1036.8" xlink:href="#mcb0005524f" y="149.76"/>
      </g>
     </g>
     <g id="text_11">
      <!-- 0.4 -->
      <defs>
       <path d="
M36.8125 57.4219
L16.2188 26.9062
L36.8125 26.9062
z

M33.6875 72.9062
L54.5938 72.9062
L54.5938 26.9062
L64.9844 26.9062
L64.9844 13.2812
L54.5938 13.2812
L54.5938 0
L36.8125 0
L36.8125 13.2812
L4.5 13.2812
L4.5 29.3906
z
" id="BitstreamVeraSans-Bold-34"/>
      </defs>
      <g transform="translate(103.0915625 155.830625)scale(0.22 -0.22)">
       <use xlink:href="#BitstreamVeraSans-Bold-30"/>
       <use x="69.580078125" xlink:href="#BitstreamVeraSans-Bold-2e"/>
       <use x="107.568359375" xlink:href="#BitstreamVeraSans-Bold-34"/>
      </g>
     </g>
    </g>
    <g id="ytick_6">
     <g id="line2d_83">
      <g>
       <use style="stroke:#000000;stroke-width:0.5;" x="144.0" xlink:href="#m728421d6d4" y="57.6"/>
      </g>
     </g>
     <g id="line2d_84">
      <g>
       <use style="stroke:#000000;stroke-width:0.5;" x="1036.8" xlink:href="#mcb0005524f" y="57.6"/>
      </g>
     </g>
     <g id="text_12">
      <!-- 0.5 -->
      <defs>
       <path d="
M10.5938 72.9062
L57.3281 72.9062
L57.3281 59.0781
L25.5938 59.0781
L25.5938 47.7969
Q27.7344 48.3906 29.9062 48.7031
Q32.0781 49.0312 34.4219 49.0312
Q47.75 49.0312 55.1719 42.3594
Q62.5938 35.6875 62.5938 23.7812
Q62.5938 11.9688 54.5156 5.26562
Q46.4375 -1.42188 32.0781 -1.42188
Q25.875 -1.42188 19.7969 -0.21875
Q13.7188 0.984375 7.71875 3.42188
L7.71875 18.2188
Q13.6719 14.7969 19.0156 13.0781
Q24.3594 11.375 29.1094 11.375
Q35.9375 11.375 39.8594 14.7188
Q43.7969 18.0625 43.7969 23.7812
Q43.7969 29.5469 39.8594 32.8594
Q35.9375 36.1875 29.1094 36.1875
Q25.0469 36.1875 20.4531 35.125
Q15.875 34.0781 10.5938 31.8906
z
" id="BitstreamVeraSans-Bold-35"/>
      </defs>
      <g transform="translate(103.6175 63.670625)scale(0.22 -0.22)">
       <use xlink:href="#BitstreamVeraSans-Bold-30"/>
       <use x="69.580078125" xlink:href="#BitstreamVeraSans-Bold-2e"/>
       <use x="107.568359375" xlink:href="#BitstreamVeraSans-Bold-35"/>
      </g>
     </g>
    </g>
    <g id="text_13">
     <!-- PCC -->
     <defs>
      <path d="
M19.6719 64.7969
L19.6719 37.4062
L32.0781 37.4062
Q38.9688 37.4062 42.7188 40.9688
Q46.4844 44.5312 46.4844 51.125
Q46.4844 57.6719 42.7188 61.2344
Q38.9688 64.7969 32.0781 64.7969
z

M9.8125 72.9062
L32.0781 72.9062
Q44.3438 72.9062 50.6094 67.3594
Q56.8906 61.8125 56.8906 51.125
Q56.8906 40.3281 50.6094 34.8125
Q44.3438 29.2969 32.0781 29.2969
L19.6719 29.2969
L19.6719 0
L9.8125 0
z
" id="BitstreamVeraSans-Roman-50"/>
      <path d="
M64.4062 67.2812
L64.4062 56.8906
Q59.4219 61.5312 53.7812 63.8125
Q48.1406 66.1094 41.7969 66.1094
Q29.2969 66.1094 22.6562 58.4688
Q16.0156 50.8281 16.0156 36.375
Q16.0156 21.9688 22.6562 14.3281
Q29.2969 6.6875 41.7969 6.6875
Q48.1406 6.6875 53.7812 8.98438
Q59.4219 11.2812 64.4062 15.9219
L64.4062 5.60938
Q59.2344 2.09375 53.4375 0.328125
Q47.6562 -1.42188 41.2188 -1.42188
Q24.6562 -1.42188 15.125 8.70312
Q5.60938 18.8438 5.60938 36.375
Q5.60938 53.9531 15.125 64.0781
Q24.6562 74.2188 41.2188 74.2188
Q47.75 74.2188 53.5312 72.4844
Q59.3281 70.75 64.4062 67.2812" id="BitstreamVeraSans-Roman-43"/>
     </defs>
     <g transform="translate(93.51625 308.3190625)rotate(-90.0)scale(0.22 -0.22)">
      <use xlink:href="#BitstreamVeraSans-Roman-50"/>
      <use x="60.302734375" xlink:href="#BitstreamVeraSans-Roman-43"/>
      <use x="130.126953125" xlink:href="#BitstreamVeraSans-Roman-43"/>
     </g>
    </g>
   </g>
  </g>
 </g>
 <defs>
  <clipPath id="p73c6fe5791">
   <rect height="460.8" width="892.8" x="144.0" y="57.6"/>
  </clipPath>
 </defs>
</svg>
