<?xml version="1.0" encoding="utf-8" standalone="no"?>
<!DOCTYPE svg PUBLIC "-//W3C//DTD SVG 1.1//EN"
  "http://www.w3.org/Graphics/SVG/1.1/DTD/svg11.dtd">
<!-- Created with matplotlib (http://matplotlib.org/) -->
<svg height="576pt" version="1.1" viewBox="0 0 1728 576" width="1728pt" xmlns="http://www.w3.org/2000/svg" xmlns:xlink="http://www.w3.org/1999/xlink">
 <defs>
  <style type="text/css">
*{stroke-linecap:butt;stroke-linejoin:round;}
  </style>
 </defs>
 <g id="figure_1">
  <g id="patch_1">
   <path d="
M0 576
L1728 576
L1728 0
L0 0
z
" style="fill:#ffffff;"/>
  </g>
  <g id="axes_1">
   <g id="patch_2">
    <path d="
M216 518.4
L588 518.4
L588 57.6
L216 57.6
z
" style="fill:#ffffff;"/>
   </g>
   <g id="line2d_1">
    <path clip-path="url(#p821c29eae4)" d="
M216 57.6
L249.818 63.7771
L283.636 120.99
L317.455 189.208
L351.273 258.717
L385.091 382.106
L418.909 463.177
L452.727 436.219
L486.545 400.354
L520.364 409.969
L554.182 409.41
L588 385.102" style="fill:none;opacity:0.7;stroke:#0068a5;stroke-linecap:square;stroke-width:4.0;"/>
   </g>
   <g id="line2d_2">
    <path clip-path="url(#p821c29eae4)" d="
M216 425.136
L249.818 461.182
L283.636 437.507
L317.455 370.87
L351.273 436.916
L385.091 511.972
L418.909 518.4
L452.727 494.944
L486.545 399.176
L520.364 379.349
L554.182 392.684
L588 385.163" style="fill:none;opacity:0.7;stroke:#f0db00;stroke-linecap:square;stroke-width:4.0;"/>
   </g>
   <g id="patch_3">
    <path d="
M216 57.6
L588 57.6" style="fill:none;stroke:#000000;stroke-linecap:square;stroke-linejoin:miter;"/>
   </g>
   <g id="patch_4">
    <path d="
M588 518.4
L588 57.6" style="fill:none;stroke:#000000;stroke-linecap:square;stroke-linejoin:miter;"/>
   </g>
   <g id="patch_5">
    <path d="
M216 518.4
L588 518.4" style="fill:none;stroke:#000000;stroke-linecap:square;stroke-linejoin:miter;"/>
   </g>
   <g id="patch_6">
    <path d="
M216 518.4
L216 57.6" style="fill:none;stroke:#000000;stroke-linecap:square;stroke-linejoin:miter;"/>
   </g>
   <g id="matplotlib.axis_1">
    <g id="xtick_1">
     <g id="line2d_3">
      <defs>
       <path d="
M0 0
L0 -4" id="m93b0483c22" style="stroke:#000000;stroke-width:0.5;"/>
      </defs>
      <g>
       <use style="stroke:#000000;stroke-width:0.5;" x="216.0" xlink:href="#m93b0483c22" y="518.4"/>
      </g>
     </g>
     <g id="line2d_4">
      <defs>
       <path d="
M0 0
L0 4" id="m741efc42ff" style="stroke:#000000;stroke-width:0.5;"/>
      </defs>
      <g>
       <use style="stroke:#000000;stroke-width:0.5;" x="216.0" xlink:href="#m741efc42ff" y="57.6"/>
      </g>
     </g>
     <g id="text_1">
      <!-- 0 -->
      <defs>
       <path d="
M46 36.5312
Q46 50.2031 43.4375 55.7812
Q40.875 61.375 34.8125 61.375
Q28.7656 61.375 26.1719 55.7812
Q23.5781 50.2031 23.5781 36.5312
Q23.5781 22.7031 26.1719 17.0312
Q28.7656 11.375 34.8125 11.375
Q40.8281 11.375 43.4062 17.0312
Q46 22.7031 46 36.5312
M64.7969 36.375
Q64.7969 18.2656 56.9844 8.42188
Q49.1719 -1.42188 34.8125 -1.42188
Q20.4062 -1.42188 12.5938 8.42188
Q4.78125 18.2656 4.78125 36.375
Q4.78125 54.5469 12.5938 64.375
Q20.4062 74.2188 34.8125 74.2188
Q49.1719 74.2188 56.9844 64.375
Q64.7969 54.5469 64.7969 36.375" id="BitstreamVeraSans-Bold-30"/>
      </defs>
      <g transform="translate(211.19875 534.5575)scale(0.16 -0.16)">
       <use xlink:href="#BitstreamVeraSans-Bold-30"/>
      </g>
     </g>
    </g>
    <g id="xtick_2">
     <g id="line2d_5">
      <g>
       <use style="stroke:#000000;stroke-width:0.5;" x="317.950184727" xlink:href="#m93b0483c22" y="518.4"/>
      </g>
     </g>
     <g id="line2d_6">
      <g>
       <use style="stroke:#000000;stroke-width:0.5;" x="317.950184727" xlink:href="#m741efc42ff" y="57.6"/>
      </g>
     </g>
     <g id="text_2">
      <!-- 50 -->
      <defs>
       <path d="
M10.5938 72.9062
L57.3281 72.9062
L57.3281 59.0781
L25.5938 59.0781
L25.5938 47.7969
Q27.7344 48.3906 29.9062 48.7031
Q32.0781 49.0312 34.4219 49.0312
Q47.75 49.0312 55.1719 42.3594
Q62.5938 35.6875 62.5938 23.7812
Q62.5938 11.9688 54.5156 5.26562
Q46.4375 -1.42188 32.0781 -1.42188
Q25.875 -1.42188 19.7969 -0.21875
Q13.7188 0.984375 7.71875 3.42188
L7.71875 18.2188
Q13.6719 14.7969 19.0156 13.0781
Q24.3594 11.375 29.1094 11.375
Q35.9375 11.375 39.8594 14.7188
Q43.7969 18.0625 43.7969 23.7812
Q43.7969 29.5469 39.8594 32.8594
Q35.9375 36.1875 29.1094 36.1875
Q25.0469 36.1875 20.4531 35.125
Q15.875 34.0781 10.5938 31.8906
z
" id="BitstreamVeraSans-Bold-35"/>
      </defs>
      <g transform="translate(307.817684727 534.5575)scale(0.16 -0.16)">
       <use xlink:href="#BitstreamVeraSans-Bold-35"/>
       <use x="69.580078125" xlink:href="#BitstreamVeraSans-Bold-30"/>
      </g>
     </g>
    </g>
    <g id="xtick_3">
     <g id="line2d_7">
      <g>
       <use style="stroke:#000000;stroke-width:0.5;" x="419.900369455" xlink:href="#m93b0483c22" y="518.4"/>
      </g>
     </g>
     <g id="line2d_8">
      <g>
       <use style="stroke:#000000;stroke-width:0.5;" x="419.900369455" xlink:href="#m741efc42ff" y="57.6"/>
      </g>
     </g>
     <g id="text_3">
      <!-- 100 -->
      <defs>
       <path d="
M11.7188 12.9844
L28.3281 12.9844
L28.3281 60.1094
L11.2812 56.5938
L11.2812 69.3906
L28.2188 72.9062
L46.0938 72.9062
L46.0938 12.9844
L62.7031 12.9844
L62.7031 0
L11.7188 0
z
" id="BitstreamVeraSans-Bold-31"/>
      </defs>
      <g transform="translate(404.486619455 534.5575)scale(0.16 -0.16)">
       <use xlink:href="#BitstreamVeraSans-Bold-31"/>
       <use x="69.580078125" xlink:href="#BitstreamVeraSans-Bold-30"/>
       <use x="139.16015625" xlink:href="#BitstreamVeraSans-Bold-30"/>
      </g>
     </g>
    </g>
    <g id="xtick_4">
     <g id="line2d_9">
      <g>
       <use style="stroke:#000000;stroke-width:0.5;" x="521.850554182" xlink:href="#m93b0483c22" y="518.4"/>
      </g>
     </g>
     <g id="line2d_10">
      <g>
       <use style="stroke:#000000;stroke-width:0.5;" x="521.850554182" xlink:href="#m741efc42ff" y="57.6"/>
      </g>
     </g>
     <g id="text_4">
      <!-- 150 -->
      <g transform="translate(506.436804182 534.5575)scale(0.16 -0.16)">
       <use xlink:href="#BitstreamVeraSans-Bold-31"/>
       <use x="69.580078125" xlink:href="#BitstreamVeraSans-Bold-35"/>
       <use x="139.16015625" xlink:href="#BitstreamVeraSans-Bold-30"/>
      </g>
     </g>
    </g>
    <g id="text_5">
     <!-- Frequency (Hz) -->
     <defs>
      <path id="BitstreamVeraSans-Roman-20"/>
      <path d="
M54.8906 33.0156
L54.8906 0
L45.9062 0
L45.9062 32.7188
Q45.9062 40.4844 42.875 44.3281
Q39.8438 48.1875 33.7969 48.1875
Q26.5156 48.1875 22.3125 43.5469
Q18.1094 38.9219 18.1094 30.9062
L18.1094 0
L9.07812 0
L9.07812 54.6875
L18.1094 54.6875
L18.1094 46.1875
Q21.3438 51.125 25.7031 53.5625
Q30.0781 56 35.7969 56
Q45.2188 56 50.0469 50.1719
Q54.8906 44.3438 54.8906 33.0156" id="BitstreamVeraSans-Roman-6e"/>
      <path d="
M31 75.875
Q24.4688 64.6562 21.2812 53.6562
Q18.1094 42.6719 18.1094 31.3906
Q18.1094 20.125 21.3125 9.0625
Q24.5156 -2 31 -13.1875
L23.1875 -13.1875
Q15.875 -1.70312 12.2344 9.375
Q8.59375 20.4531 8.59375 31.3906
Q8.59375 42.2812 12.2031 53.3125
Q15.8281 64.3594 23.1875 75.875
z
" id="BitstreamVeraSans-Roman-28"/>
      <path d="
M5.51562 54.6875
L48.1875 54.6875
L48.1875 46.4844
L14.4062 7.17188
L48.1875 7.17188
L48.1875 0
L4.29688 0
L4.29688 8.20312
L38.0938 47.5156
L5.51562 47.5156
z
" id="BitstreamVeraSans-Roman-7a"/>
      <path d="
M9.8125 72.9062
L51.7031 72.9062
L51.7031 64.5938
L19.6719 64.5938
L19.6719 43.1094
L48.5781 43.1094
L48.5781 34.8125
L19.6719 34.8125
L19.6719 0
L9.8125 0
z
" id="BitstreamVeraSans-Roman-46"/>
      <path d="
M32.1719 -5.07812
Q28.375 -14.8438 24.75 -17.8125
Q21.1406 -20.7969 15.0938 -20.7969
L7.90625 -20.7969
L7.90625 -13.2812
L13.1875 -13.2812
Q16.8906 -13.2812 18.9375 -11.5156
Q21 -9.76562 23.4844 -3.21875
L25.0938 0.875
L2.98438 54.6875
L12.5 54.6875
L29.5938 11.9219
L46.6875 54.6875
L56.2031 54.6875
z
" id="BitstreamVeraSans-Roman-79"/>
      <path d="
M56.2031 29.5938
L56.2031 25.2031
L14.8906 25.2031
Q15.4844 15.9219 20.4844 11.0625
Q25.4844 6.20312 34.4219 6.20312
Q39.5938 6.20312 44.4531 7.46875
Q49.3125 8.73438 54.1094 11.2812
L54.1094 2.78125
Q49.2656 0.734375 44.1875 -0.34375
Q39.1094 -1.42188 33.8906 -1.42188
Q20.7969 -1.42188 13.1562 6.1875
Q5.51562 13.8125 5.51562 26.8125
Q5.51562 40.2344 12.7656 48.1094
Q20.0156 56 32.3281 56
Q43.3594 56 49.7812 48.8906
Q56.2031 41.7969 56.2031 29.5938
M47.2188 32.2344
Q47.125 39.5938 43.0938 43.9844
Q39.0625 48.3906 32.4219 48.3906
Q24.9062 48.3906 20.3906 44.1406
Q15.875 39.8906 15.1875 32.1719
z
" id="BitstreamVeraSans-Roman-65"/>
      <path d="
M9.8125 72.9062
L19.6719 72.9062
L19.6719 43.0156
L55.5156 43.0156
L55.5156 72.9062
L65.375 72.9062
L65.375 0
L55.5156 0
L55.5156 34.7188
L19.6719 34.7188
L19.6719 0
L9.8125 0
z
" id="BitstreamVeraSans-Roman-48"/>
      <path d="
M8.01562 75.875
L15.8281 75.875
Q23.1406 64.3594 26.7812 53.3125
Q30.4219 42.2812 30.4219 31.3906
Q30.4219 20.4531 26.7812 9.375
Q23.1406 -1.70312 15.8281 -13.1875
L8.01562 -13.1875
Q14.5 -2 17.7031 9.0625
Q20.9062 20.125 20.9062 31.3906
Q20.9062 42.6719 17.7031 53.6562
Q14.5 64.6562 8.01562 75.875" id="BitstreamVeraSans-Roman-29"/>
      <path d="
M8.5 21.5781
L8.5 54.6875
L17.4844 54.6875
L17.4844 21.9219
Q17.4844 14.1562 20.5 10.2656
Q23.5312 6.39062 29.5938 6.39062
Q36.8594 6.39062 41.0781 11.0312
Q45.3125 15.6719 45.3125 23.6875
L45.3125 54.6875
L54.2969 54.6875
L54.2969 0
L45.3125 0
L45.3125 8.40625
Q42.0469 3.42188 37.7188 1
Q33.4062 -1.42188 27.6875 -1.42188
Q18.2656 -1.42188 13.375 4.4375
Q8.5 10.2969 8.5 21.5781" id="BitstreamVeraSans-Roman-75"/>
      <path d="
M41.1094 46.2969
Q39.5938 47.1719 37.8125 47.5781
Q36.0312 48 33.8906 48
Q26.2656 48 22.1875 43.0469
Q18.1094 38.0938 18.1094 28.8125
L18.1094 0
L9.07812 0
L9.07812 54.6875
L18.1094 54.6875
L18.1094 46.1875
Q20.9531 51.1719 25.4844 53.5781
Q30.0312 56 36.5312 56
Q37.4531 56 38.5781 55.875
Q39.7031 55.7656 41.0625 55.5156
z
" id="BitstreamVeraSans-Roman-72"/>
      <path d="
M48.7812 52.5938
L48.7812 44.1875
Q44.9688 46.2969 41.1406 47.3438
Q37.3125 48.3906 33.4062 48.3906
Q24.6562 48.3906 19.8125 42.8438
Q14.9844 37.3125 14.9844 27.2969
Q14.9844 17.2812 19.8125 11.7344
Q24.6562 6.20312 33.4062 6.20312
Q37.3125 6.20312 41.1406 7.25
Q44.9688 8.29688 48.7812 10.4062
L48.7812 2.09375
Q45.0156 0.34375 40.9844 -0.53125
Q36.9688 -1.42188 32.4219 -1.42188
Q20.0625 -1.42188 12.7812 6.34375
Q5.51562 14.1094 5.51562 27.2969
Q5.51562 40.6719 12.8594 48.3281
Q20.2188 56 33.0156 56
Q37.1562 56 41.1094 55.1406
Q45.0625 54.2969 48.7812 52.5938" id="BitstreamVeraSans-Roman-63"/>
      <path d="
M14.7969 27.2969
Q14.7969 17.3906 18.875 11.75
Q22.9531 6.10938 30.0781 6.10938
Q37.2031 6.10938 41.2969 11.75
Q45.4062 17.3906 45.4062 27.2969
Q45.4062 37.2031 41.2969 42.8438
Q37.2031 48.4844 30.0781 48.4844
Q22.9531 48.4844 18.875 42.8438
Q14.7969 37.2031 14.7969 27.2969
M45.4062 8.20312
Q42.5781 3.32812 38.25 0.953125
Q33.9375 -1.42188 27.875 -1.42188
Q17.9688 -1.42188 11.7344 6.48438
Q5.51562 14.4062 5.51562 27.2969
Q5.51562 40.1875 11.7344 48.0938
Q17.9688 56 27.875 56
Q33.9375 56 38.25 53.625
Q42.5781 51.2656 45.4062 46.3906
L45.4062 54.6875
L54.3906 54.6875
L54.3906 -20.7969
L45.4062 -20.7969
z
" id="BitstreamVeraSans-Roman-71"/>
     </defs>
     <g transform="translate(342.36 555.0425)scale(0.16 -0.16)">
      <use xlink:href="#BitstreamVeraSans-Roman-46"/>
      <use x="50.26953125" xlink:href="#BitstreamVeraSans-Roman-72"/>
      <use x="89.1328125" xlink:href="#BitstreamVeraSans-Roman-65"/>
      <use x="150.65625" xlink:href="#BitstreamVeraSans-Roman-71"/>
      <use x="214.1328125" xlink:href="#BitstreamVeraSans-Roman-75"/>
      <use x="277.51171875" xlink:href="#BitstreamVeraSans-Roman-65"/>
      <use x="339.03515625" xlink:href="#BitstreamVeraSans-Roman-6e"/>
      <use x="402.4140625" xlink:href="#BitstreamVeraSans-Roman-63"/>
      <use x="457.39453125" xlink:href="#BitstreamVeraSans-Roman-79"/>
      <use x="516.57421875" xlink:href="#BitstreamVeraSans-Roman-20"/>
      <use x="548.361328125" xlink:href="#BitstreamVeraSans-Roman-28"/>
      <use x="587.375" xlink:href="#BitstreamVeraSans-Roman-48"/>
      <use x="662.5703125" xlink:href="#BitstreamVeraSans-Roman-7a"/>
      <use x="715.060546875" xlink:href="#BitstreamVeraSans-Roman-29"/>
     </g>
    </g>
   </g>
   <g id="matplotlib.axis_2">
    <g id="ytick_1">
     <g id="line2d_11">
      <defs>
       <path d="
M0 0
L4 0" id="m728421d6d4" style="stroke:#000000;stroke-width:0.5;"/>
      </defs>
      <g>
       <use style="stroke:#000000;stroke-width:0.5;" x="216.0" xlink:href="#m728421d6d4" y="465.865192856"/>
      </g>
     </g>
     <g id="line2d_12">
      <defs>
       <path d="
M0 0
L-4 0" id="mcb0005524f" style="stroke:#000000;stroke-width:0.5;"/>
      </defs>
      <g>
       <use style="stroke:#000000;stroke-width:0.5;" x="588.0" xlink:href="#mcb0005524f" y="465.865192856"/>
      </g>
     </g>
     <g id="text_6">
      <!-- 0.1 -->
      <defs>
       <path d="
M10.2031 18.8906
L27.7812 18.8906
L27.7812 0
L10.2031 0
z
" id="BitstreamVeraSans-Bold-2e"/>
      </defs>
      <g transform="translate(185.5225 470.280192856)scale(0.16 -0.16)">
       <use xlink:href="#BitstreamVeraSans-Bold-30"/>
       <use x="69.580078125" xlink:href="#BitstreamVeraSans-Bold-2e"/>
       <use x="107.568359375" xlink:href="#BitstreamVeraSans-Bold-31"/>
      </g>
     </g>
    </g>
    <g id="ytick_2">
     <g id="line2d_13">
      <g>
       <use style="stroke:#000000;stroke-width:0.5;" x="216.0" xlink:href="#m728421d6d4" y="395.247857298"/>
      </g>
     </g>
     <g id="line2d_14">
      <g>
       <use style="stroke:#000000;stroke-width:0.5;" x="588.0" xlink:href="#mcb0005524f" y="395.247857298"/>
      </g>
     </g>
     <g id="text_7">
      <!-- 0.2 -->
      <defs>
       <path d="
M28.8125 13.8125
L60.8906 13.8125
L60.8906 0
L7.90625 0
L7.90625 13.8125
L34.5156 37.3125
Q38.0938 40.5312 39.7969 43.6094
Q41.5 46.6875 41.5 50
Q41.5 55.125 38.0625 58.25
Q34.625 61.375 28.9062 61.375
Q24.5156 61.375 19.2812 59.5
Q14.0625 57.625 8.10938 53.9062
L8.10938 69.9219
Q14.4531 72.0156 20.6562 73.1094
Q26.8594 74.2188 32.8125 74.2188
Q45.9062 74.2188 53.1562 68.4531
Q60.4062 62.7031 60.4062 52.3906
Q60.4062 46.4375 57.3281 41.2812
Q54.25 36.1406 44.3906 27.4844
z
" id="BitstreamVeraSans-Bold-32"/>
      </defs>
      <g transform="translate(185.8125 399.662857298)scale(0.16 -0.16)">
       <use xlink:href="#BitstreamVeraSans-Bold-30"/>
       <use x="69.580078125" xlink:href="#BitstreamVeraSans-Bold-2e"/>
       <use x="107.568359375" xlink:href="#BitstreamVeraSans-Bold-32"/>
      </g>
     </g>
    </g>
    <g id="ytick_3">
     <g id="line2d_15">
      <g>
       <use style="stroke:#000000;stroke-width:0.5;" x="216.0" xlink:href="#m728421d6d4" y="324.630521739"/>
      </g>
     </g>
     <g id="line2d_16">
      <g>
       <use style="stroke:#000000;stroke-width:0.5;" x="588.0" xlink:href="#mcb0005524f" y="324.630521739"/>
      </g>
     </g>
     <g id="text_8">
      <!-- 0.3 -->
      <defs>
       <path d="
M46.5781 39.3125
Q53.9531 37.4062 57.7812 32.6875
Q61.625 27.9844 61.625 20.7031
Q61.625 9.85938 53.3125 4.21875
Q45.0156 -1.42188 29.1094 -1.42188
Q23.4844 -1.42188 17.8438 -0.515625
Q12.2031 0.390625 6.6875 2.20312
L6.6875 16.7031
Q11.9688 14.0625 17.1562 12.7188
Q22.3594 11.375 27.3906 11.375
Q34.8594 11.375 38.8438 13.9531
Q42.8281 16.5469 42.8281 21.3906
Q42.8281 26.375 38.75 28.9375
Q34.6719 31.5 26.7031 31.5
L19.1875 31.5
L19.1875 43.6094
L27.0938 43.6094
Q34.1875 43.6094 37.6406 45.8281
Q41.1094 48.0469 41.1094 52.5938
Q41.1094 56.7812 37.7344 59.0781
Q34.375 61.375 28.2188 61.375
Q23.6875 61.375 19.0469 60.3438
Q14.4062 59.3281 9.8125 57.3281
L9.8125 71.0938
Q15.375 72.6562 20.8438 73.4375
Q26.3125 74.2188 31.5938 74.2188
Q45.7969 74.2188 52.8438 69.5469
Q59.9062 64.8906 59.9062 55.5156
Q59.9062 49.125 56.5312 45.0469
Q53.1719 40.9688 46.5781 39.3125" id="BitstreamVeraSans-Bold-33"/>
      </defs>
      <g transform="translate(185.695 329.045521739)scale(0.16 -0.16)">
       <use xlink:href="#BitstreamVeraSans-Bold-30"/>
       <use x="69.580078125" xlink:href="#BitstreamVeraSans-Bold-2e"/>
       <use x="107.568359375" xlink:href="#BitstreamVeraSans-Bold-33"/>
      </g>
     </g>
    </g>
    <g id="ytick_4">
     <g id="line2d_17">
      <g>
       <use style="stroke:#000000;stroke-width:0.5;" x="216.0" xlink:href="#m728421d6d4" y="254.013186181"/>
      </g>
     </g>
     <g id="line2d_18">
      <g>
       <use style="stroke:#000000;stroke-width:0.5;" x="588.0" xlink:href="#mcb0005524f" y="254.013186181"/>
      </g>
     </g>
     <g id="text_9">
      <!-- 0.4 -->
      <defs>
       <path d="
M36.8125 57.4219
L16.2188 26.9062
L36.8125 26.9062
z

M33.6875 72.9062
L54.5938 72.9062
L54.5938 26.9062
L64.9844 26.9062
L64.9844 13.2812
L54.5938 13.2812
L54.5938 0
L36.8125 0
L36.8125 13.2812
L4.5 13.2812
L4.5 29.3906
z
" id="BitstreamVeraSans-Bold-34"/>
      </defs>
      <g transform="translate(185.1575 258.428186181)scale(0.16 -0.16)">
       <use xlink:href="#BitstreamVeraSans-Bold-30"/>
       <use x="69.580078125" xlink:href="#BitstreamVeraSans-Bold-2e"/>
       <use x="107.568359375" xlink:href="#BitstreamVeraSans-Bold-34"/>
      </g>
     </g>
    </g>
    <g id="ytick_5">
     <g id="line2d_19">
      <g>
       <use style="stroke:#000000;stroke-width:0.5;" x="216.0" xlink:href="#m728421d6d4" y="183.395850622"/>
      </g>
     </g>
     <g id="line2d_20">
      <g>
       <use style="stroke:#000000;stroke-width:0.5;" x="588.0" xlink:href="#mcb0005524f" y="183.395850622"/>
      </g>
     </g>
     <g id="text_10">
      <!-- 0.5 -->
      <g transform="translate(185.54 187.810850622)scale(0.16 -0.16)">
       <use xlink:href="#BitstreamVeraSans-Bold-30"/>
       <use x="69.580078125" xlink:href="#BitstreamVeraSans-Bold-2e"/>
       <use x="107.568359375" xlink:href="#BitstreamVeraSans-Bold-35"/>
      </g>
     </g>
    </g>
    <g id="ytick_6">
     <g id="line2d_21">
      <g>
       <use style="stroke:#000000;stroke-width:0.5;" x="216.0" xlink:href="#m728421d6d4" y="112.778515064"/>
      </g>
     </g>
     <g id="line2d_22">
      <g>
       <use style="stroke:#000000;stroke-width:0.5;" x="588.0" xlink:href="#mcb0005524f" y="112.778515064"/>
      </g>
     </g>
     <g id="text_11">
      <!-- 0.6 -->
      <defs>
       <path d="
M36.1875 35.9844
Q31.25 35.9844 28.7812 32.7812
Q26.3125 29.5938 26.3125 23.1875
Q26.3125 16.7969 28.7812 13.5938
Q31.25 10.4062 36.1875 10.4062
Q41.1562 10.4062 43.625 13.5938
Q46.0938 16.7969 46.0938 23.1875
Q46.0938 29.5938 43.625 32.7812
Q41.1562 35.9844 36.1875 35.9844
M59.4219 71
L59.4219 57.5156
Q54.7812 59.7188 50.6719 60.7656
Q46.5781 61.8125 42.6719 61.8125
Q34.2812 61.8125 29.5938 57.1406
Q24.9062 52.4844 24.125 43.3125
Q27.3438 45.7031 31.0938 46.8906
Q34.8594 48.0938 39.3125 48.0938
Q50.4844 48.0938 57.3438 41.5469
Q64.2031 35.0156 64.2031 24.4219
Q64.2031 12.7031 56.5312 5.64062
Q48.875 -1.42188 35.9844 -1.42188
Q21.7812 -1.42188 13.9844 8.17188
Q6.20312 17.7812 6.20312 35.4062
Q6.20312 53.4688 15.3125 63.7969
Q24.4219 74.125 40.2812 74.125
Q45.3125 74.125 50.0469 73.3438
Q54.7812 72.5625 59.4219 71" id="BitstreamVeraSans-Bold-36"/>
      </defs>
      <g transform="translate(185.2825 117.193515064)scale(0.16 -0.16)">
       <use xlink:href="#BitstreamVeraSans-Bold-30"/>
       <use x="69.580078125" xlink:href="#BitstreamVeraSans-Bold-2e"/>
       <use x="107.568359375" xlink:href="#BitstreamVeraSans-Bold-36"/>
      </g>
     </g>
    </g>
    <g id="text_12">
     <!-- Power (dB) -->
     <defs>
      <path d="
M19.6719 64.7969
L19.6719 37.4062
L32.0781 37.4062
Q38.9688 37.4062 42.7188 40.9688
Q46.4844 44.5312 46.4844 51.125
Q46.4844 57.6719 42.7188 61.2344
Q38.9688 64.7969 32.0781 64.7969
z

M9.8125 72.9062
L32.0781 72.9062
Q44.3438 72.9062 50.6094 67.3594
Q56.8906 61.8125 56.8906 51.125
Q56.8906 40.3281 50.6094 34.8125
Q44.3438 29.2969 32.0781 29.2969
L19.6719 29.2969
L19.6719 0
L9.8125 0
z
" id="BitstreamVeraSans-Roman-50"/>
      <path d="
M4.20312 54.6875
L13.1875 54.6875
L24.4219 12.0156
L35.5938 54.6875
L46.1875 54.6875
L57.4219 12.0156
L68.6094 54.6875
L77.5938 54.6875
L63.2812 0
L52.6875 0
L40.9219 44.8281
L29.1094 0
L18.5 0
z
" id="BitstreamVeraSans-Roman-77"/>
      <path d="
M30.6094 48.3906
Q23.3906 48.3906 19.1875 42.75
Q14.9844 37.1094 14.9844 27.2969
Q14.9844 17.4844 19.1562 11.8438
Q23.3438 6.20312 30.6094 6.20312
Q37.7969 6.20312 41.9844 11.8594
Q46.1875 17.5312 46.1875 27.2969
Q46.1875 37.0156 41.9844 42.7031
Q37.7969 48.3906 30.6094 48.3906
M30.6094 56
Q42.3281 56 49.0156 48.375
Q55.7188 40.7656 55.7188 27.2969
Q55.7188 13.875 49.0156 6.21875
Q42.3281 -1.42188 30.6094 -1.42188
Q18.8438 -1.42188 12.1719 6.21875
Q5.51562 13.875 5.51562 27.2969
Q5.51562 40.7656 12.1719 48.375
Q18.8438 56 30.6094 56" id="BitstreamVeraSans-Roman-6f"/>
      <path d="
M19.6719 34.8125
L19.6719 8.10938
L35.5 8.10938
Q43.4531 8.10938 47.2812 11.4062
Q51.125 14.7031 51.125 21.4844
Q51.125 28.3281 47.2812 31.5625
Q43.4531 34.8125 35.5 34.8125
z

M19.6719 64.7969
L19.6719 42.8281
L34.2812 42.8281
Q41.5 42.8281 45.0312 45.5312
Q48.5781 48.25 48.5781 53.8125
Q48.5781 59.3281 45.0312 62.0625
Q41.5 64.7969 34.2812 64.7969
z

M9.8125 72.9062
L35.0156 72.9062
Q46.2969 72.9062 52.3906 68.2188
Q58.5 63.5312 58.5 54.8906
Q58.5 48.1875 55.375 44.2344
Q52.25 40.2812 46.1875 39.3125
Q53.4688 37.75 57.5 32.7812
Q61.5312 27.8281 61.5312 20.4062
Q61.5312 10.6406 54.8906 5.3125
Q48.25 0 35.9844 0
L9.8125 0
z
" id="BitstreamVeraSans-Roman-42"/>
      <path d="
M45.4062 46.3906
L45.4062 75.9844
L54.3906 75.9844
L54.3906 0
L45.4062 0
L45.4062 8.20312
Q42.5781 3.32812 38.25 0.953125
Q33.9375 -1.42188 27.875 -1.42188
Q17.9688 -1.42188 11.7344 6.48438
Q5.51562 14.4062 5.51562 27.2969
Q5.51562 40.1875 11.7344 48.0938
Q17.9688 56 27.875 56
Q33.9375 56 38.25 53.625
Q42.5781 51.2656 45.4062 46.3906
M14.7969 27.2969
Q14.7969 17.3906 18.875 11.75
Q22.9531 6.10938 30.0781 6.10938
Q37.2031 6.10938 41.2969 11.75
Q45.4062 17.3906 45.4062 27.2969
Q45.4062 37.2031 41.2969 42.8438
Q37.2031 48.4844 30.0781 48.4844
Q22.9531 48.4844 18.875 42.8438
Q14.7969 37.2031 14.7969 27.2969" id="BitstreamVeraSans-Roman-64"/>
     </defs>
     <g transform="translate(176.83 330.8475)rotate(-90.0)scale(0.16 -0.16)">
      <use xlink:href="#BitstreamVeraSans-Roman-50"/>
      <use x="56.677734375" xlink:href="#BitstreamVeraSans-Roman-6f"/>
      <use x="117.859375" xlink:href="#BitstreamVeraSans-Roman-77"/>
      <use x="199.646484375" xlink:href="#BitstreamVeraSans-Roman-65"/>
      <use x="261.169921875" xlink:href="#BitstreamVeraSans-Roman-72"/>
      <use x="302.283203125" xlink:href="#BitstreamVeraSans-Roman-20"/>
      <use x="334.0703125" xlink:href="#BitstreamVeraSans-Roman-28"/>
      <use x="373.083984375" xlink:href="#BitstreamVeraSans-Roman-64"/>
      <use x="436.560546875" xlink:href="#BitstreamVeraSans-Roman-42"/>
      <use x="505.1640625" xlink:href="#BitstreamVeraSans-Roman-29"/>
     </g>
    </g>
   </g>
   <g id="legend_1">
    <g id="patch_7">
     <path d="
M400.323 129.324
L578.4 129.324
L578.4 67.2
L400.323 67.2
z
" style="fill:#ffffff;stroke:#000000;stroke-linejoin:miter;"/>
    </g>
    <g id="line2d_23">
     <path d="
M413.763 82.749
L440.643 82.749" style="fill:none;opacity:0.7;stroke:#0068a5;stroke-linecap:square;stroke-width:4.0;"/>
    </g>
    <g id="line2d_24"/>
    <g id="text_13">
     <!-- LFP -->
     <defs>
      <path d="
M9.1875 72.9062
L27.9844 72.9062
L27.9844 14.2031
L60.9844 14.2031
L60.9844 0
L9.1875 0
z
" id="BitstreamVeraSans-Bold-4c"/>
      <path d="
M9.1875 72.9062
L59.9062 72.9062
L59.9062 58.6875
L27.9844 58.6875
L27.9844 45.125
L58.0156 45.125
L58.0156 30.9062
L27.9844 30.9062
L27.9844 0
L9.1875 0
z
" id="BitstreamVeraSans-Bold-46"/>
      <path d="
M9.1875 72.9062
L40.375 72.9062
Q54.2969 72.9062 61.7344 66.7188
Q69.1875 60.5469 69.1875 49.125
Q69.1875 37.6406 61.7344 31.4688
Q54.2969 25.2969 40.375 25.2969
L27.9844 25.2969
L27.9844 0
L9.1875 0
z

M27.9844 59.2812
L27.9844 38.9219
L38.375 38.9219
Q43.8438 38.9219 46.8281 41.5781
Q49.8125 44.2344 49.8125 49.125
Q49.8125 54 46.8281 56.6406
Q43.8438 59.2812 38.375 59.2812
z
" id="BitstreamVeraSans-Bold-50"/>
     </defs>
     <g transform="translate(461.763 89.469)scale(0.192 -0.192)">
      <use xlink:href="#BitstreamVeraSans-Bold-4c"/>
      <use x="63.720703125" xlink:href="#BitstreamVeraSans-Bold-46"/>
      <use x="132.03125" xlink:href="#BitstreamVeraSans-Bold-50"/>
     </g>
    </g>
    <g id="line2d_25">
     <path d="
M413.763 110.931
L440.643 110.931" style="fill:none;opacity:0.7;stroke:#f0db00;stroke-linecap:square;stroke-width:4.0;"/>
    </g>
    <g id="line2d_26"/>
    <g id="text_14">
     <!-- Spike PSD -->
     <defs>
      <path d="
M8.40625 54.6875
L25.875 54.6875
L25.875 0
L8.40625 0
z

M8.40625 75.9844
L25.875 75.9844
L25.875 61.7188
L8.40625 61.7188
z
" id="BitstreamVeraSans-Bold-69"/>
      <path d="
M27.9844 58.6875
L27.9844 14.2031
L34.7188 14.2031
Q46.2344 14.2031 52.3125 19.9219
Q58.4062 25.6406 58.4062 36.5312
Q58.4062 47.3594 52.3438 53.0156
Q46.2969 58.6875 34.7188 58.6875
z

M9.1875 72.9062
L29 72.9062
Q45.6094 72.9062 53.7344 70.5312
Q61.8594 68.1719 67.6719 62.5
Q72.7969 57.5625 75.2812 51.1094
Q77.7812 44.6719 77.7812 36.5312
Q77.7812 28.2656 75.2812 21.7969
Q72.7969 15.3281 67.6719 10.4062
Q61.8125 4.73438 53.6094 2.35938
Q45.4062 0 29 0
L9.1875 0
z
" id="BitstreamVeraSans-Bold-44"/>
      <path id="BitstreamVeraSans-Bold-20"/>
      <path d="
M25.875 7.90625
L25.875 -20.7969
L8.40625 -20.7969
L8.40625 54.6875
L25.875 54.6875
L25.875 46.6875
Q29.5 51.4688 33.8906 53.7344
Q38.2812 56 44 56
Q54.1094 56 60.5938 47.9688
Q67.0938 39.9375 67.0938 27.2969
Q67.0938 14.6562 60.5938 6.60938
Q54.1094 -1.42188 44 -1.42188
Q38.2812 -1.42188 33.8906 0.84375
Q29.5 3.125 25.875 7.90625
M37.5 43.3125
Q31.8906 43.3125 28.875 39.1875
Q25.875 35.0625 25.875 27.2969
Q25.875 19.5312 28.875 15.4062
Q31.8906 11.2812 37.5 11.2812
Q43.1094 11.2812 46.0625 15.375
Q49.0312 19.4844 49.0312 27.2969
Q49.0312 35.1094 46.0625 39.2031
Q43.1094 43.3125 37.5 43.3125" id="BitstreamVeraSans-Bold-70"/>
      <path d="
M59.9062 70.6094
L59.9062 55.1719
Q53.9062 57.8594 48.1875 59.2188
Q42.4844 60.5938 37.4062 60.5938
Q30.6719 60.5938 27.4375 58.7344
Q24.2188 56.8906 24.2188 52.9844
Q24.2188 50.0469 26.3906 48.4062
Q28.5625 46.7812 34.2812 45.6094
L42.2812 44
Q54.4375 41.5469 59.5625 36.5625
Q64.7031 31.5938 64.7031 22.4062
Q64.7031 10.3594 57.5469 4.46875
Q50.3906 -1.42188 35.6875 -1.42188
Q28.7656 -1.42188 21.7812 -0.09375
Q14.7969 1.21875 7.8125 3.8125
L7.8125 19.6719
Q14.7969 15.9688 21.3125 14.0781
Q27.8281 12.2031 33.8906 12.2031
Q40.0469 12.2031 43.3125 14.25
Q46.5781 16.3125 46.5781 20.125
Q46.5781 23.5312 44.3594 25.3906
Q42.1406 27.25 35.5 28.7188
L28.2188 30.3281
Q17.2812 32.6719 12.2188 37.7969
Q7.17188 42.9219 7.17188 51.6094
Q7.17188 62.5 14.2031 68.3594
Q21.2344 74.2188 34.4219 74.2188
Q40.4375 74.2188 46.7812 73.3125
Q53.125 72.4062 59.9062 70.6094" id="BitstreamVeraSans-Bold-53"/>
      <path d="
M62.9844 27.4844
L62.9844 22.5156
L22.125 22.5156
Q22.75 16.3594 26.5625 13.2812
Q30.375 10.2031 37.2031 10.2031
Q42.7188 10.2031 48.5 11.8438
Q54.2969 13.4844 60.4062 16.7969
L60.4062 3.32812
Q54.2031 0.984375 48 -0.21875
Q41.7969 -1.42188 35.5938 -1.42188
Q20.75 -1.42188 12.5156 6.125
Q4.29688 13.6719 4.29688 27.2969
Q4.29688 40.6719 12.375 48.3281
Q20.4531 56 34.625 56
Q47.5156 56 55.25 48.2344
Q62.9844 40.4844 62.9844 27.4844
M45.0156 33.2969
Q45.0156 38.2812 42.1094 41.3281
Q39.2031 44.3906 34.5156 44.3906
Q29.4375 44.3906 26.2656 41.5312
Q23.0938 38.6719 22.3125 33.2969
z
" id="BitstreamVeraSans-Bold-65"/>
      <path d="
M8.40625 75.9844
L25.875 75.9844
L25.875 34.625
L46 54.6875
L66.3125 54.6875
L39.5938 29.5938
L68.4062 0
L47.2188 0
L25.875 22.7969
L25.875 0
L8.40625 0
z
" id="BitstreamVeraSans-Bold-6b"/>
     </defs>
     <g transform="translate(461.763 117.651)scale(0.192 -0.192)">
      <use xlink:href="#BitstreamVeraSans-Bold-53"/>
      <use x="72.021484375" xlink:href="#BitstreamVeraSans-Bold-70"/>
      <use x="143.603515625" xlink:href="#BitstreamVeraSans-Bold-69"/>
      <use x="177.880859375" xlink:href="#BitstreamVeraSans-Bold-6b"/>
      <use x="241.759765625" xlink:href="#BitstreamVeraSans-Bold-65"/>
      <use x="309.58203125" xlink:href="#BitstreamVeraSans-Bold-20"/>
      <use x="344.396484375" xlink:href="#BitstreamVeraSans-Bold-50"/>
      <use x="417.6875" xlink:href="#BitstreamVeraSans-Bold-53"/>
      <use x="489.708984375" xlink:href="#BitstreamVeraSans-Bold-44"/>
     </g>
    </g>
   </g>
  </g>
  <g id="axes_2">
   <g id="patch_8">
    <path d="
M699.6 518.4
L1071.6 518.4
L1071.6 57.6
L699.6 57.6
z
" style="fill:#ffffff;"/>
   </g>
   <g id="line2d_27">
    <path clip-path="url(#p3225615a37)" d="
M699.6 516.975
L730.6 518.4
L761.6 383.859
L792.6 70.2642
L823.6 89.5275
L854.6 396.432
L885.6 467.092
L916.6 437.16
L947.6 179.449
L978.6 99.5091
L1009.6 121.905
L1040.6 402.868
L1071.6 476.551" style="fill:none;opacity:0.7;stroke:#ff0000;stroke-linecap:square;stroke-width:4.0;"/>
   </g>
   <g id="line2d_28">
    <path clip-path="url(#p3225615a37)" d="
M699.6 400.406
L730.6 454.738
L761.6 396.018
L792.6 95.2119
L823.6 104.188
L854.6 364.937
L885.6 442.651
L916.6 406.833
L947.6 157.948
L978.6 113.1
L1009.6 118.73
L1040.6 360.782
L1071.6 455.427" style="fill:none;opacity:0.7;stroke:#008000;stroke-linecap:square;stroke-width:4.0;"/>
   </g>
   <g id="line2d_29">
    <path clip-path="url(#p3225615a37)" d="
M699.6 508.04
L730.6 508.812
L761.6 340.016
L792.6 57.6
L823.6 94.9911
L854.6 384.95
L885.6 458.433
L916.6 429.471
L947.6 180.577
L978.6 86.8697
L1009.6 117.186
L1040.6 393.097
L1071.6 464.265" style="fill:none;opacity:0.7;stroke:#0000ff;stroke-linecap:square;stroke-width:4.0;"/>
   </g>
   <g id="patch_9">
    <path d="
M699.6 57.6
L1071.6 57.6" style="fill:none;stroke:#000000;stroke-linecap:square;stroke-linejoin:miter;"/>
   </g>
   <g id="patch_10">
    <path d="
M1071.6 518.4
L1071.6 57.6" style="fill:none;stroke:#000000;stroke-linecap:square;stroke-linejoin:miter;"/>
   </g>
   <g id="patch_11">
    <path d="
M699.6 518.4
L1071.6 518.4" style="fill:none;stroke:#000000;stroke-linecap:square;stroke-linejoin:miter;"/>
   </g>
   <g id="patch_12">
    <path d="
M699.6 518.4
L699.6 57.6" style="fill:none;stroke:#000000;stroke-linecap:square;stroke-linejoin:miter;"/>
   </g>
   <g id="matplotlib.axis_3">
    <g id="xtick_5">
     <g id="line2d_30">
      <g>
       <use style="stroke:#000000;stroke-width:0.5;" x="699.6" xlink:href="#m93b0483c22" y="518.4"/>
      </g>
     </g>
     <g id="line2d_31">
      <g>
       <use style="stroke:#000000;stroke-width:0.5;" x="699.6" xlink:href="#m741efc42ff" y="57.6"/>
      </g>
     </g>
     <g id="text_15">
      <!-- 0 -->
      <g transform="translate(694.79875 534.5575)scale(0.16 -0.16)">
       <use xlink:href="#BitstreamVeraSans-Bold-30"/>
      </g>
     </g>
    </g>
    <g id="xtick_6">
     <g id="line2d_32">
      <g>
       <use style="stroke:#000000;stroke-width:0.5;" x="794.15" xlink:href="#m93b0483c22" y="518.4"/>
      </g>
     </g>
     <g id="line2d_33">
      <g>
       <use style="stroke:#000000;stroke-width:0.5;" x="794.15" xlink:href="#m741efc42ff" y="57.6"/>
      </g>
     </g>
     <g id="text_16">
      <!-- 50 -->
      <g transform="translate(784.0175 534.5575)scale(0.16 -0.16)">
       <use xlink:href="#BitstreamVeraSans-Bold-35"/>
       <use x="69.580078125" xlink:href="#BitstreamVeraSans-Bold-30"/>
      </g>
     </g>
    </g>
    <g id="xtick_7">
     <g id="line2d_34">
      <g>
       <use style="stroke:#000000;stroke-width:0.5;" x="888.7" xlink:href="#m93b0483c22" y="518.4"/>
      </g>
     </g>
     <g id="line2d_35">
      <g>
       <use style="stroke:#000000;stroke-width:0.5;" x="888.7" xlink:href="#m741efc42ff" y="57.6"/>
      </g>
     </g>
     <g id="text_17">
      <!-- 100 -->
      <g transform="translate(873.28625 534.5575)scale(0.16 -0.16)">
       <use xlink:href="#BitstreamVeraSans-Bold-31"/>
       <use x="69.580078125" xlink:href="#BitstreamVeraSans-Bold-30"/>
       <use x="139.16015625" xlink:href="#BitstreamVeraSans-Bold-30"/>
      </g>
     </g>
    </g>
    <g id="xtick_8">
     <g id="line2d_36">
      <g>
       <use style="stroke:#000000;stroke-width:0.5;" x="983.25" xlink:href="#m93b0483c22" y="518.4"/>
      </g>
     </g>
     <g id="line2d_37">
      <g>
       <use style="stroke:#000000;stroke-width:0.5;" x="983.25" xlink:href="#m741efc42ff" y="57.6"/>
      </g>
     </g>
     <g id="text_18">
      <!-- 150 -->
      <g transform="translate(967.83625 534.5575)scale(0.16 -0.16)">
       <use xlink:href="#BitstreamVeraSans-Bold-31"/>
       <use x="69.580078125" xlink:href="#BitstreamVeraSans-Bold-35"/>
       <use x="139.16015625" xlink:href="#BitstreamVeraSans-Bold-30"/>
      </g>
     </g>
    </g>
    <g id="text_19">
     <!-- Frequency (Hz) -->
     <g transform="translate(825.96 555.0425)scale(0.16 -0.16)">
      <use xlink:href="#BitstreamVeraSans-Roman-46"/>
      <use x="50.26953125" xlink:href="#BitstreamVeraSans-Roman-72"/>
      <use x="89.1328125" xlink:href="#BitstreamVeraSans-Roman-65"/>
      <use x="150.65625" xlink:href="#BitstreamVeraSans-Roman-71"/>
      <use x="214.1328125" xlink:href="#BitstreamVeraSans-Roman-75"/>
      <use x="277.51171875" xlink:href="#BitstreamVeraSans-Roman-65"/>
      <use x="339.03515625" xlink:href="#BitstreamVeraSans-Roman-6e"/>
      <use x="402.4140625" xlink:href="#BitstreamVeraSans-Roman-63"/>
      <use x="457.39453125" xlink:href="#BitstreamVeraSans-Roman-79"/>
      <use x="516.57421875" xlink:href="#BitstreamVeraSans-Roman-20"/>
      <use x="548.361328125" xlink:href="#BitstreamVeraSans-Roman-28"/>
      <use x="587.375" xlink:href="#BitstreamVeraSans-Roman-48"/>
      <use x="662.5703125" xlink:href="#BitstreamVeraSans-Roman-7a"/>
      <use x="715.060546875" xlink:href="#BitstreamVeraSans-Roman-29"/>
     </g>
    </g>
   </g>
   <g id="matplotlib.axis_4">
    <g id="ytick_7">
     <g id="line2d_38">
      <g>
       <use style="stroke:#000000;stroke-width:0.5;" x="699.6" xlink:href="#m728421d6d4" y="437.268034388"/>
      </g>
     </g>
     <g id="line2d_39">
      <g>
       <use style="stroke:#000000;stroke-width:0.5;" x="1071.6" xlink:href="#mcb0005524f" y="437.268034388"/>
      </g>
     </g>
     <g id="text_20">
      <!-- 0.1 -->
      <g transform="translate(669.1225 441.683034388)scale(0.16 -0.16)">
       <use xlink:href="#BitstreamVeraSans-Bold-30"/>
       <use x="69.580078125" xlink:href="#BitstreamVeraSans-Bold-2e"/>
       <use x="107.568359375" xlink:href="#BitstreamVeraSans-Bold-31"/>
      </g>
     </g>
    </g>
    <g id="ytick_8">
     <g id="line2d_40">
      <g>
       <use style="stroke:#000000;stroke-width:0.5;" x="699.6" xlink:href="#m728421d6d4" y="354.24460038"/>
      </g>
     </g>
     <g id="line2d_41">
      <g>
       <use style="stroke:#000000;stroke-width:0.5;" x="1071.6" xlink:href="#mcb0005524f" y="354.24460038"/>
      </g>
     </g>
     <g id="text_21">
      <!-- 0.2 -->
      <g transform="translate(669.4125 358.65960038)scale(0.16 -0.16)">
       <use xlink:href="#BitstreamVeraSans-Bold-30"/>
       <use x="69.580078125" xlink:href="#BitstreamVeraSans-Bold-2e"/>
       <use x="107.568359375" xlink:href="#BitstreamVeraSans-Bold-32"/>
      </g>
     </g>
    </g>
    <g id="ytick_9">
     <g id="line2d_42">
      <g>
       <use style="stroke:#000000;stroke-width:0.5;" x="699.6" xlink:href="#m728421d6d4" y="271.221166372"/>
      </g>
     </g>
     <g id="line2d_43">
      <g>
       <use style="stroke:#000000;stroke-width:0.5;" x="1071.6" xlink:href="#mcb0005524f" y="271.221166372"/>
      </g>
     </g>
     <g id="text_22">
      <!-- 0.3 -->
      <g transform="translate(669.295 275.636166372)scale(0.16 -0.16)">
       <use xlink:href="#BitstreamVeraSans-Bold-30"/>
       <use x="69.580078125" xlink:href="#BitstreamVeraSans-Bold-2e"/>
       <use x="107.568359375" xlink:href="#BitstreamVeraSans-Bold-33"/>
      </g>
     </g>
    </g>
    <g id="ytick_10">
     <g id="line2d_44">
      <g>
       <use style="stroke:#000000;stroke-width:0.5;" x="699.6" xlink:href="#m728421d6d4" y="188.197732364"/>
      </g>
     </g>
     <g id="line2d_45">
      <g>
       <use style="stroke:#000000;stroke-width:0.5;" x="1071.6" xlink:href="#mcb0005524f" y="188.197732364"/>
      </g>
     </g>
     <g id="text_23">
      <!-- 0.4 -->
      <g transform="translate(668.7575 192.612732364)scale(0.16 -0.16)">
       <use xlink:href="#BitstreamVeraSans-Bold-30"/>
       <use x="69.580078125" xlink:href="#BitstreamVeraSans-Bold-2e"/>
       <use x="107.568359375" xlink:href="#BitstreamVeraSans-Bold-34"/>
      </g>
     </g>
    </g>
    <g id="ytick_11">
     <g id="line2d_46">
      <g>
       <use style="stroke:#000000;stroke-width:0.5;" x="699.6" xlink:href="#m728421d6d4" y="105.174298356"/>
      </g>
     </g>
     <g id="line2d_47">
      <g>
       <use style="stroke:#000000;stroke-width:0.5;" x="1071.6" xlink:href="#mcb0005524f" y="105.174298356"/>
      </g>
     </g>
     <g id="text_24">
      <!-- 0.5 -->
      <g transform="translate(669.14 109.589298356)scale(0.16 -0.16)">
       <use xlink:href="#BitstreamVeraSans-Bold-30"/>
       <use x="69.580078125" xlink:href="#BitstreamVeraSans-Bold-2e"/>
       <use x="107.568359375" xlink:href="#BitstreamVeraSans-Bold-35"/>
      </g>
     </g>
    </g>
    <g id="text_25">
     <!-- Power (dB) -->
     <g transform="translate(660.43 330.8475)rotate(-90.0)scale(0.16 -0.16)">
      <use xlink:href="#BitstreamVeraSans-Roman-50"/>
      <use x="56.677734375" xlink:href="#BitstreamVeraSans-Roman-6f"/>
      <use x="117.859375" xlink:href="#BitstreamVeraSans-Roman-77"/>
      <use x="199.646484375" xlink:href="#BitstreamVeraSans-Roman-65"/>
      <use x="261.169921875" xlink:href="#BitstreamVeraSans-Roman-72"/>
      <use x="302.283203125" xlink:href="#BitstreamVeraSans-Roman-20"/>
      <use x="334.0703125" xlink:href="#BitstreamVeraSans-Roman-28"/>
      <use x="373.083984375" xlink:href="#BitstreamVeraSans-Roman-64"/>
      <use x="436.560546875" xlink:href="#BitstreamVeraSans-Roman-42"/>
      <use x="505.1640625" xlink:href="#BitstreamVeraSans-Roman-29"/>
     </g>
    </g>
   </g>
   <g id="legend_2">
    <g id="patch_13">
     <path d="
M873.402 157.506
L1062 157.506
L1062 67.2
L873.402 67.2
z
" style="fill:#ffffff;stroke:#000000;stroke-linejoin:miter;"/>
    </g>
    <g id="line2d_48">
     <path d="
M886.842 82.749
L913.722 82.749" style="fill:none;opacity:0.7;stroke:#ff0000;stroke-linecap:square;stroke-width:4.0;"/>
    </g>
    <g id="line2d_49"/>
    <g id="text_26">
     <!-- MLd -->
     <defs>
      <path d="
M9.1875 72.9062
L33.1094 72.9062
L49.7031 33.8906
L66.4062 72.9062
L90.2812 72.9062
L90.2812 0
L72.5156 0
L72.5156 53.3281
L55.7188 14.0156
L43.7969 14.0156
L27 53.3281
L27 0
L9.1875 0
z
" id="BitstreamVeraSans-Bold-4d"/>
      <path d="
M45.6094 46.6875
L45.6094 75.9844
L63.1875 75.9844
L63.1875 0
L45.6094 0
L45.6094 7.90625
Q42 3.07812 37.6406 0.828125
Q33.2969 -1.42188 27.5938 -1.42188
Q17.4844 -1.42188 10.9844 6.60938
Q4.5 14.6562 4.5 27.2969
Q4.5 39.9375 10.9844 47.9688
Q17.4844 56 27.5938 56
Q33.25 56 37.625 53.7344
Q42 51.4688 45.6094 46.6875
M34.0781 11.2812
Q39.7031 11.2812 42.6562 15.375
Q45.6094 19.4844 45.6094 27.2969
Q45.6094 35.1094 42.6562 39.2031
Q39.7031 43.3125 34.0781 43.3125
Q28.5156 43.3125 25.5625 39.2031
Q22.6094 35.1094 22.6094 27.2969
Q22.6094 19.4844 25.5625 15.375
Q28.5156 11.2812 34.0781 11.2812" id="BitstreamVeraSans-Bold-64"/>
     </defs>
     <g transform="translate(934.842 89.469)scale(0.192 -0.192)">
      <use xlink:href="#BitstreamVeraSans-Bold-4d"/>
      <use x="99.51171875" xlink:href="#BitstreamVeraSans-Bold-4c"/>
      <use x="163.232421875" xlink:href="#BitstreamVeraSans-Bold-64"/>
     </g>
    </g>
    <g id="line2d_50">
     <path d="
M886.842 110.931
L913.722 110.931" style="fill:none;opacity:0.7;stroke:#008000;stroke-linecap:square;stroke-width:4.0;"/>
    </g>
    <g id="line2d_51"/>
    <g id="text_27">
     <!-- OV -->
     <defs>
      <path d="
M0.484375 72.9062
L19.3906 72.9062
L38.7188 19.0938
L58.0156 72.9062
L76.9062 72.9062
L49.9062 0
L27.4844 0
z
" id="BitstreamVeraSans-Bold-56"/>
      <path d="
M42.4844 60.5938
Q33.8906 60.5938 29.1562 54.25
Q24.4219 47.9062 24.4219 36.375
Q24.4219 24.9062 29.1562 18.5469
Q33.8906 12.2031 42.4844 12.2031
Q51.125 12.2031 55.8594 18.5469
Q60.5938 24.9062 60.5938 36.375
Q60.5938 47.9062 55.8594 54.25
Q51.125 60.5938 42.4844 60.5938
M42.4844 74.2188
Q60.0625 74.2188 70.0156 64.1562
Q79.9844 54.1094 79.9844 36.375
Q79.9844 18.7031 70.0156 8.64062
Q60.0625 -1.42188 42.4844 -1.42188
Q24.9531 -1.42188 14.9688 8.64062
Q4.98438 18.7031 4.98438 36.375
Q4.98438 54.1094 14.9688 64.1562
Q24.9531 74.2188 42.4844 74.2188" id="BitstreamVeraSans-Bold-4f"/>
     </defs>
     <g transform="translate(934.842 117.651)scale(0.192 -0.192)">
      <use xlink:href="#BitstreamVeraSans-Bold-4f"/>
      <use x="82.384765625" xlink:href="#BitstreamVeraSans-Bold-56"/>
     </g>
    </g>
    <g id="line2d_52">
     <path d="
M886.842 139.113
L913.722 139.113" style="fill:none;opacity:0.7;stroke:#0000ff;stroke-linecap:square;stroke-width:4.0;"/>
    </g>
    <g id="line2d_53"/>
    <g id="text_28">
     <!-- Field L+CM -->
     <defs>
      <path d="
M8.40625 75.9844
L25.875 75.9844
L25.875 0
L8.40625 0
z
" id="BitstreamVeraSans-Bold-6c"/>
      <path d="
M67 4
Q61.8125 1.3125 56.2031 -0.046875
Q50.5938 -1.42188 44.4844 -1.42188
Q26.2656 -1.42188 15.625 8.76562
Q4.98438 18.9531 4.98438 36.375
Q4.98438 53.8594 15.625 64.0312
Q26.2656 74.2188 44.4844 74.2188
Q50.5938 74.2188 56.2031 72.8438
Q61.8125 71.4844 67 68.7969
L67 53.7188
Q61.7656 57.2812 56.6875 58.9375
Q51.6094 60.5938 46 60.5938
Q35.9375 60.5938 30.1719 54.1406
Q24.4219 47.7031 24.4219 36.375
Q24.4219 25.0938 30.1719 18.6406
Q35.9375 12.2031 46 12.2031
Q51.6094 12.2031 56.6875 13.8594
Q61.7656 15.5312 67 19.0938
z
" id="BitstreamVeraSans-Bold-43"/>
      <path d="
M47.7031 62.7031
L47.7031 37.1094
L73.1875 37.1094
L73.1875 25.5938
L47.7031 25.5938
L47.7031 0
L36.0781 0
L36.0781 25.5938
L10.5938 25.5938
L10.5938 37.1094
L36.0781 37.1094
L36.0781 62.7031
z
" id="BitstreamVeraSans-Bold-2b"/>
     </defs>
     <g transform="translate(934.842 145.833)scale(0.192 -0.192)">
      <use xlink:href="#BitstreamVeraSans-Bold-46"/>
      <use x="68.310546875" xlink:href="#BitstreamVeraSans-Bold-69"/>
      <use x="102.587890625" xlink:href="#BitstreamVeraSans-Bold-65"/>
      <use x="170.41015625" xlink:href="#BitstreamVeraSans-Bold-6c"/>
      <use x="204.6875" xlink:href="#BitstreamVeraSans-Bold-64"/>
      <use x="276.26953125" xlink:href="#BitstreamVeraSans-Bold-20"/>
      <use x="311.083984375" xlink:href="#BitstreamVeraSans-Bold-4c"/>
      <use x="374.8046875" xlink:href="#BitstreamVeraSans-Bold-2b"/>
      <use x="458.59375" xlink:href="#BitstreamVeraSans-Bold-43"/>
      <use x="531.982421875" xlink:href="#BitstreamVeraSans-Bold-4d"/>
     </g>
    </g>
   </g>
  </g>
  <g id="axes_3">
   <g id="patch_14">
    <path d="
M1183.2 518.4
L1555.2 518.4
L1555.2 57.6
L1183.2 57.6
z
" style="fill:#ffffff;"/>
   </g>
   <g id="line2d_54">
    <path clip-path="url(#p29ffa7b62c)" d="
M1183.2 291.35
L1217.02 163.096
L1250.84 74.4969
L1284.65 57.6
L1318.47 224.315
L1352.29 356.208
L1386.11 380.893
L1419.93 403.01
L1453.75 463.376
L1487.56 487.998
L1521.38 502.182
L1555.2 518.4" style="fill:none;opacity:0.7;stroke:#000000;stroke-linecap:square;stroke-width:4.0;"/>
   </g>
   <g id="patch_15">
    <path d="
M1183.2 57.6
L1555.2 57.6" style="fill:none;stroke:#000000;stroke-linecap:square;stroke-linejoin:miter;"/>
   </g>
   <g id="patch_16">
    <path d="
M1555.2 518.4
L1555.2 57.6" style="fill:none;stroke:#000000;stroke-linecap:square;stroke-linejoin:miter;"/>
   </g>
   <g id="patch_17">
    <path d="
M1183.2 518.4
L1555.2 518.4" style="fill:none;stroke:#000000;stroke-linecap:square;stroke-linejoin:miter;"/>
   </g>
   <g id="patch_18">
    <path d="
M1183.2 518.4
L1183.2 57.6" style="fill:none;stroke:#000000;stroke-linecap:square;stroke-linejoin:miter;"/>
   </g>
   <g id="matplotlib.axis_5">
    <g id="xtick_9">
     <g id="line2d_55">
      <g>
       <use style="stroke:#000000;stroke-width:0.5;" x="1183.2" xlink:href="#m93b0483c22" y="518.4"/>
      </g>
     </g>
     <g id="line2d_56">
      <g>
       <use style="stroke:#000000;stroke-width:0.5;" x="1183.2" xlink:href="#m741efc42ff" y="57.6"/>
      </g>
     </g>
     <g id="text_29">
      <!-- 0 -->
      <g transform="translate(1178.39875 534.5575)scale(0.16 -0.16)">
       <use xlink:href="#BitstreamVeraSans-Bold-30"/>
      </g>
     </g>
    </g>
    <g id="xtick_10">
     <g id="line2d_57">
      <g>
       <use style="stroke:#000000;stroke-width:0.5;" x="1285.15018473" xlink:href="#m93b0483c22" y="518.4"/>
      </g>
     </g>
     <g id="line2d_58">
      <g>
       <use style="stroke:#000000;stroke-width:0.5;" x="1285.15018473" xlink:href="#m741efc42ff" y="57.6"/>
      </g>
     </g>
     <g id="text_30">
      <!-- 50 -->
      <g transform="translate(1275.01768473 534.5575)scale(0.16 -0.16)">
       <use xlink:href="#BitstreamVeraSans-Bold-35"/>
       <use x="69.580078125" xlink:href="#BitstreamVeraSans-Bold-30"/>
      </g>
     </g>
    </g>
    <g id="xtick_11">
     <g id="line2d_59">
      <g>
       <use style="stroke:#000000;stroke-width:0.5;" x="1387.10036945" xlink:href="#m93b0483c22" y="518.4"/>
      </g>
     </g>
     <g id="line2d_60">
      <g>
       <use style="stroke:#000000;stroke-width:0.5;" x="1387.10036945" xlink:href="#m741efc42ff" y="57.6"/>
      </g>
     </g>
     <g id="text_31">
      <!-- 100 -->
      <g transform="translate(1371.68661945 534.5575)scale(0.16 -0.16)">
       <use xlink:href="#BitstreamVeraSans-Bold-31"/>
       <use x="69.580078125" xlink:href="#BitstreamVeraSans-Bold-30"/>
       <use x="139.16015625" xlink:href="#BitstreamVeraSans-Bold-30"/>
      </g>
     </g>
    </g>
    <g id="xtick_12">
     <g id="line2d_61">
      <g>
       <use style="stroke:#000000;stroke-width:0.5;" x="1489.05055418" xlink:href="#m93b0483c22" y="518.4"/>
      </g>
     </g>
     <g id="line2d_62">
      <g>
       <use style="stroke:#000000;stroke-width:0.5;" x="1489.05055418" xlink:href="#m741efc42ff" y="57.6"/>
      </g>
     </g>
     <g id="text_32">
      <!-- 150 -->
      <g transform="translate(1473.63680418 534.5575)scale(0.16 -0.16)">
       <use xlink:href="#BitstreamVeraSans-Bold-31"/>
       <use x="69.580078125" xlink:href="#BitstreamVeraSans-Bold-35"/>
       <use x="139.16015625" xlink:href="#BitstreamVeraSans-Bold-30"/>
      </g>
     </g>
    </g>
    <g id="text_33">
     <!-- Frequency (Hz) -->
     <g transform="translate(1309.56 555.0425)scale(0.16 -0.16)">
      <use xlink:href="#BitstreamVeraSans-Roman-46"/>
      <use x="50.26953125" xlink:href="#BitstreamVeraSans-Roman-72"/>
      <use x="89.1328125" xlink:href="#BitstreamVeraSans-Roman-65"/>
      <use x="150.65625" xlink:href="#BitstreamVeraSans-Roman-71"/>
      <use x="214.1328125" xlink:href="#BitstreamVeraSans-Roman-75"/>
      <use x="277.51171875" xlink:href="#BitstreamVeraSans-Roman-65"/>
      <use x="339.03515625" xlink:href="#BitstreamVeraSans-Roman-6e"/>
      <use x="402.4140625" xlink:href="#BitstreamVeraSans-Roman-63"/>
      <use x="457.39453125" xlink:href="#BitstreamVeraSans-Roman-79"/>
      <use x="516.57421875" xlink:href="#BitstreamVeraSans-Roman-20"/>
      <use x="548.361328125" xlink:href="#BitstreamVeraSans-Roman-28"/>
      <use x="587.375" xlink:href="#BitstreamVeraSans-Roman-48"/>
      <use x="662.5703125" xlink:href="#BitstreamVeraSans-Roman-7a"/>
      <use x="715.060546875" xlink:href="#BitstreamVeraSans-Roman-29"/>
     </g>
    </g>
   </g>
   <g id="matplotlib.axis_6">
    <g id="ytick_12">
     <g id="line2d_63">
      <g>
       <use style="stroke:#000000;stroke-width:0.5;" x="1183.2" xlink:href="#m728421d6d4" y="467.256035966"/>
      </g>
     </g>
     <g id="line2d_64">
      <g>
       <use style="stroke:#000000;stroke-width:0.5;" x="1555.2" xlink:href="#mcb0005524f" y="467.256035966"/>
      </g>
     </g>
     <g id="text_34">
      <!-- 0.17 -->
      <defs>
       <path d="
M6.6875 72.9062
L61.625 72.9062
L61.625 62.3125
L33.2031 0
L14.8906 0
L41.7969 59.0781
L6.6875 59.0781
z
" id="BitstreamVeraSans-Bold-37"/>
      </defs>
      <g transform="translate(1141.7625 471.671035966)scale(0.16 -0.16)">
       <use xlink:href="#BitstreamVeraSans-Bold-30"/>
       <use x="69.580078125" xlink:href="#BitstreamVeraSans-Bold-2e"/>
       <use x="107.568359375" xlink:href="#BitstreamVeraSans-Bold-31"/>
       <use x="177.1484375" xlink:href="#BitstreamVeraSans-Bold-37"/>
      </g>
     </g>
    </g>
    <g id="ytick_13">
     <g id="line2d_65">
      <g>
       <use style="stroke:#000000;stroke-width:0.5;" x="1183.2" xlink:href="#m728421d6d4" y="387.212809376"/>
      </g>
     </g>
     <g id="line2d_66">
      <g>
       <use style="stroke:#000000;stroke-width:0.5;" x="1555.2" xlink:href="#mcb0005524f" y="387.212809376"/>
      </g>
     </g>
     <g id="text_35">
      <!-- 0.18 -->
      <defs>
       <path d="
M34.8125 32.625
Q29.5469 32.625 26.7031 29.7344
Q23.875 26.8594 23.875 21.4844
Q23.875 16.1094 26.7031 13.25
Q29.5469 10.4062 34.8125 10.4062
Q40.0469 10.4062 42.8281 13.25
Q45.6094 16.1094 45.6094 21.4844
Q45.6094 26.9062 42.8281 29.7656
Q40.0469 32.625 34.8125 32.625
M21.0938 38.8125
Q14.4531 40.8281 11.0781 44.9688
Q7.71875 49.125 7.71875 55.3281
Q7.71875 64.5469 14.5938 69.375
Q21.4844 74.2188 34.8125 74.2188
Q48.0469 74.2188 54.9219 69.4062
Q61.8125 64.5938 61.8125 55.3281
Q61.8125 49.125 58.4219 44.9688
Q55.0312 40.8281 48.3906 38.8125
Q55.8125 36.7656 59.5938 32.1562
Q63.375 27.5469 63.375 20.5156
Q63.375 9.67188 56.1719 4.125
Q48.9688 -1.42188 34.8125 -1.42188
Q20.6094 -1.42188 13.3594 4.125
Q6.10938 9.67188 6.10938 20.5156
Q6.10938 27.5469 9.89062 32.1562
Q13.6719 36.7656 21.0938 38.8125
M25.4844 53.4219
Q25.4844 49.0781 27.9062 46.7344
Q30.3281 44.3906 34.8125 44.3906
Q39.2031 44.3906 41.5938 46.7344
Q44 49.0781 44 53.4219
Q44 57.7656 41.5938 60.0781
Q39.2031 62.4062 34.8125 62.4062
Q30.3281 62.4062 27.9062 60.0625
Q25.4844 57.7188 25.4844 53.4219" id="BitstreamVeraSans-Bold-38"/>
      </defs>
      <g transform="translate(1141.4825 391.627809376)scale(0.16 -0.16)">
       <use xlink:href="#BitstreamVeraSans-Bold-30"/>
       <use x="69.580078125" xlink:href="#BitstreamVeraSans-Bold-2e"/>
       <use x="107.568359375" xlink:href="#BitstreamVeraSans-Bold-31"/>
       <use x="177.1484375" xlink:href="#BitstreamVeraSans-Bold-38"/>
      </g>
     </g>
    </g>
    <g id="ytick_14">
     <g id="line2d_67">
      <g>
       <use style="stroke:#000000;stroke-width:0.5;" x="1183.2" xlink:href="#m728421d6d4" y="307.169582786"/>
      </g>
     </g>
     <g id="line2d_68">
      <g>
       <use style="stroke:#000000;stroke-width:0.5;" x="1555.2" xlink:href="#mcb0005524f" y="307.169582786"/>
      </g>
     </g>
     <g id="text_36">
      <!-- 0.19 -->
      <defs>
       <path d="
M10.0156 1.60938
L10.0156 15.0938
Q14.5 12.9844 18.5938 11.9375
Q22.7031 10.8906 26.7031 10.8906
Q35.1094 10.8906 39.7969 15.5469
Q44.4844 20.2188 45.3125 29.3906
Q42 26.9531 38.2344 25.7344
Q34.4688 24.5156 30.0781 24.5156
Q18.8906 24.5156 12.0312 31.0312
Q5.17188 37.5469 5.17188 48.1875
Q5.17188 59.9688 12.8125 67.0469
Q20.4531 74.125 33.2969 74.125
Q47.5625 74.125 55.375 64.5
Q63.1875 54.8906 63.1875 37.3125
Q63.1875 19.2344 54.0469 8.90625
Q44.9219 -1.42188 29 -1.42188
Q23.875 -1.42188 19.1875 -0.65625
Q14.5 0.09375 10.0156 1.60938
M33.2031 36.7188
Q38.1406 36.7188 40.625 39.9062
Q43.1094 43.1094 43.1094 49.5156
Q43.1094 55.8594 40.625 59.0781
Q38.1406 62.3125 33.2031 62.3125
Q28.2656 62.3125 25.7812 59.0781
Q23.2969 55.8594 23.2969 49.5156
Q23.2969 43.1094 25.7812 39.9062
Q28.2656 36.7188 33.2031 36.7188" id="BitstreamVeraSans-Bold-39"/>
      </defs>
      <g transform="translate(1141.5125 311.584582786)scale(0.16 -0.16)">
       <use xlink:href="#BitstreamVeraSans-Bold-30"/>
       <use x="69.580078125" xlink:href="#BitstreamVeraSans-Bold-2e"/>
       <use x="107.568359375" xlink:href="#BitstreamVeraSans-Bold-31"/>
       <use x="177.1484375" xlink:href="#BitstreamVeraSans-Bold-39"/>
      </g>
     </g>
    </g>
    <g id="ytick_15">
     <g id="line2d_69">
      <g>
       <use style="stroke:#000000;stroke-width:0.5;" x="1183.2" xlink:href="#m728421d6d4" y="227.126356195"/>
      </g>
     </g>
     <g id="line2d_70">
      <g>
       <use style="stroke:#000000;stroke-width:0.5;" x="1555.2" xlink:href="#mcb0005524f" y="227.126356195"/>
      </g>
     </g>
     <g id="text_37">
      <!-- 0.20 -->
      <g transform="translate(1141.255 231.541356195)scale(0.16 -0.16)">
       <use xlink:href="#BitstreamVeraSans-Bold-30"/>
       <use x="69.580078125" xlink:href="#BitstreamVeraSans-Bold-2e"/>
       <use x="107.568359375" xlink:href="#BitstreamVeraSans-Bold-32"/>
       <use x="177.1484375" xlink:href="#BitstreamVeraSans-Bold-30"/>
      </g>
     </g>
    </g>
    <g id="ytick_16">
     <g id="line2d_71">
      <g>
       <use style="stroke:#000000;stroke-width:0.5;" x="1183.2" xlink:href="#m728421d6d4" y="147.083129605"/>
      </g>
     </g>
     <g id="line2d_72">
      <g>
       <use style="stroke:#000000;stroke-width:0.5;" x="1555.2" xlink:href="#mcb0005524f" y="147.083129605"/>
      </g>
     </g>
     <g id="text_38">
      <!-- 0.21 -->
      <g transform="translate(1141.59 151.498129605)scale(0.16 -0.16)">
       <use xlink:href="#BitstreamVeraSans-Bold-30"/>
       <use x="69.580078125" xlink:href="#BitstreamVeraSans-Bold-2e"/>
       <use x="107.568359375" xlink:href="#BitstreamVeraSans-Bold-32"/>
       <use x="177.1484375" xlink:href="#BitstreamVeraSans-Bold-31"/>
      </g>
     </g>
    </g>
    <g id="ytick_17">
     <g id="line2d_73">
      <g>
       <use style="stroke:#000000;stroke-width:0.5;" x="1183.2" xlink:href="#m728421d6d4" y="67.0399030146"/>
      </g>
     </g>
     <g id="line2d_74">
      <g>
       <use style="stroke:#000000;stroke-width:0.5;" x="1555.2" xlink:href="#mcb0005524f" y="67.0399030146"/>
      </g>
     </g>
     <g id="text_39">
      <!-- 0.22 -->
      <g transform="translate(1141.88 71.4549030146)scale(0.16 -0.16)">
       <use xlink:href="#BitstreamVeraSans-Bold-30"/>
       <use x="69.580078125" xlink:href="#BitstreamVeraSans-Bold-2e"/>
       <use x="107.568359375" xlink:href="#BitstreamVeraSans-Bold-32"/>
       <use x="177.1484375" xlink:href="#BitstreamVeraSans-Bold-32"/>
      </g>
     </g>
    </g>
    <g id="text_40">
     <!-- PSTH-LFP Coherence -->
     <defs>
      <path d="
M9.8125 72.9062
L19.6719 72.9062
L19.6719 8.29688
L55.1719 8.29688
L55.1719 0
L9.8125 0
z
" id="BitstreamVeraSans-Roman-4c"/>
      <path d="
M53.5156 70.5156
L53.5156 60.8906
Q47.9062 63.5781 42.9219 64.8906
Q37.9375 66.2188 33.2969 66.2188
Q25.25 66.2188 20.875 63.0938
Q16.5 59.9688 16.5 54.2031
Q16.5 49.3594 19.4062 46.8906
Q22.3125 44.4375 30.4219 42.9219
L36.375 41.7031
Q47.4062 39.5938 52.6562 34.2969
Q57.9062 29 57.9062 20.125
Q57.9062 9.51562 50.7969 4.04688
Q43.7031 -1.42188 29.9844 -1.42188
Q24.8125 -1.42188 18.9688 -0.25
Q13.1406 0.921875 6.89062 3.21875
L6.89062 13.375
Q12.8906 10.0156 18.6562 8.29688
Q24.4219 6.59375 29.9844 6.59375
Q38.4219 6.59375 43.0156 9.90625
Q47.6094 13.2344 47.6094 19.3906
Q47.6094 24.75 44.3125 27.7812
Q41.0156 30.8125 33.5 32.3281
L27.4844 33.5
Q16.4531 35.6875 11.5156 40.375
Q6.59375 45.0625 6.59375 53.4219
Q6.59375 63.0938 13.4062 68.6562
Q20.2188 74.2188 32.1719 74.2188
Q37.3125 74.2188 42.625 73.2812
Q47.9531 72.3594 53.5156 70.5156" id="BitstreamVeraSans-Roman-53"/>
      <path d="
M-0.296875 72.9062
L61.375 72.9062
L61.375 64.5938
L35.5 64.5938
L35.5 0
L25.5938 0
L25.5938 64.5938
L-0.296875 64.5938
z
" id="BitstreamVeraSans-Roman-54"/>
      <path d="
M4.89062 31.3906
L31.2031 31.3906
L31.2031 23.3906
L4.89062 23.3906
z
" id="BitstreamVeraSans-Roman-2d"/>
      <path d="
M64.4062 67.2812
L64.4062 56.8906
Q59.4219 61.5312 53.7812 63.8125
Q48.1406 66.1094 41.7969 66.1094
Q29.2969 66.1094 22.6562 58.4688
Q16.0156 50.8281 16.0156 36.375
Q16.0156 21.9688 22.6562 14.3281
Q29.2969 6.6875 41.7969 6.6875
Q48.1406 6.6875 53.7812 8.98438
Q59.4219 11.2812 64.4062 15.9219
L64.4062 5.60938
Q59.2344 2.09375 53.4375 0.328125
Q47.6562 -1.42188 41.2188 -1.42188
Q24.6562 -1.42188 15.125 8.70312
Q5.60938 18.8438 5.60938 36.375
Q5.60938 53.9531 15.125 64.0781
Q24.6562 74.2188 41.2188 74.2188
Q47.75 74.2188 53.5312 72.4844
Q59.3281 70.75 64.4062 67.2812" id="BitstreamVeraSans-Roman-43"/>
      <path d="
M54.8906 33.0156
L54.8906 0
L45.9062 0
L45.9062 32.7188
Q45.9062 40.4844 42.875 44.3281
Q39.8438 48.1875 33.7969 48.1875
Q26.5156 48.1875 22.3125 43.5469
Q18.1094 38.9219 18.1094 30.9062
L18.1094 0
L9.07812 0
L9.07812 75.9844
L18.1094 75.9844
L18.1094 46.1875
Q21.3438 51.125 25.7031 53.5625
Q30.0781 56 35.7969 56
Q45.2188 56 50.0469 50.1719
Q54.8906 44.3438 54.8906 33.0156" id="BitstreamVeraSans-Roman-68"/>
     </defs>
     <g transform="translate(1132.9275 370.58625)rotate(-90.0)scale(0.16 -0.16)">
      <use xlink:href="#BitstreamVeraSans-Roman-50"/>
      <use x="60.302734375" xlink:href="#BitstreamVeraSans-Roman-53"/>
      <use x="123.779296875" xlink:href="#BitstreamVeraSans-Roman-54"/>
      <use x="184.86328125" xlink:href="#BitstreamVeraSans-Roman-48"/>
      <use x="260.05859375" xlink:href="#BitstreamVeraSans-Roman-2d"/>
      <use x="296.142578125" xlink:href="#BitstreamVeraSans-Roman-4c"/>
      <use x="351.85546875" xlink:href="#BitstreamVeraSans-Roman-46"/>
      <use x="409.375" xlink:href="#BitstreamVeraSans-Roman-50"/>
      <use x="469.677734375" xlink:href="#BitstreamVeraSans-Roman-20"/>
      <use x="501.46484375" xlink:href="#BitstreamVeraSans-Roman-43"/>
      <use x="571.2890625" xlink:href="#BitstreamVeraSans-Roman-6f"/>
      <use x="632.470703125" xlink:href="#BitstreamVeraSans-Roman-68"/>
      <use x="695.849609375" xlink:href="#BitstreamVeraSans-Roman-65"/>
      <use x="757.373046875" xlink:href="#BitstreamVeraSans-Roman-72"/>
      <use x="796.236328125" xlink:href="#BitstreamVeraSans-Roman-65"/>
      <use x="857.759765625" xlink:href="#BitstreamVeraSans-Roman-6e"/>
      <use x="921.138671875" xlink:href="#BitstreamVeraSans-Roman-63"/>
      <use x="976.119140625" xlink:href="#BitstreamVeraSans-Roman-65"/>
     </g>
    </g>
   </g>
  </g>
 </g>
 <defs>
  <clipPath id="p3225615a37">
   <rect height="460.8" width="372.0" x="699.6" y="57.6"/>
  </clipPath>
  <clipPath id="p821c29eae4">
   <rect height="460.8" width="372.0" x="216.0" y="57.6"/>
  </clipPath>
  <clipPath id="p29ffa7b62c">
   <rect height="460.8" width="372.0" x="1183.2" y="57.6"/>
  </clipPath>
 </defs>
</svg>
